{
.appVersion = "3112";
.formatVersion = 3;
customParameters = (
{
name = vendorID;
value = PYRS;
},
{
name = panose;
value = (
2,
11,
8,
3,
4,
0,
0,
2,
0,
4
);
},
{
name = unicodeRanges;
value = (
0,
1,
2,
3,
5,
6,
9,
31,
33,
35,
37,
38,
47
);
},
{
name = codePageRanges;
value = (
"1252",
"1250",
"1251",
"1254",
"1257",
"bit 29"
);
},
{
name = fsType;
value = (
);
},
{
name = glyphOrder;
value = (
.notdef,
NULL,
CR,
space,
B,
D,
E,
F,
H,
I,
L,
M,
N,
P,
R,
U,
V,
W,
X,
Y,
Z,
b,
d,
h,
i,
l,
m,
n,
p,
q,
u,
v,
w,
x,
z,
period,
comma,
A,
breve,
circumflex,
uni0326,
exclam,
quotedbl,
quotesingle,
numbersign,
percent,
asterisk,
plus,
slash,
colon,
semicolon,
less,
equal,
greater,
at,
bracketleft,
bracketright,
backslash,
asciicircum,
underscore,
braceleft,
bar,
braceright,
Euro,
quotedblbase,
quotesinglbase,
quotedblright,
quoteright,
quotedblleft,
quoteleft,
minus,
hyphen,
endash,
emdash,
grave,
acute,
guillemotright,
guilsinglright,
guillemotleft,
guilsinglleft,
uni00AD,
ellipsis,
uni0445,
uni0431,
uni0432,
uni0433,
uni0434,
uni0436,
uni043A,
uni0438,
uni0439,
uni043B,
uni043C,
uni043D,
uni043F,
uni0442,
uni0444,
uni0446,
uni0447,
uni0448,
uni0449,
uni044A,
uni044B,
uni044C,
uni044E,
uni044F,
u_alt,
uni0410,
uni0415,
uni041C,
uni041D,
uni0420,
uni0422,
uni0425,
T,
uni0412,
uni041F,
uni0413,
uni041B,
uni0414,
uni0411,
uni0416,
uni0417,
uni0418,
uni0419,
uni041A,
uni0423,
uni0424,
uni0426,
uni0427,
uni0428,
uni0429,
uni042A,
uni042B,
uni042C,
uni042D,
uni042E,
uni042F,
uni0440,
O,
be_alt,
a,
c,
e,
f,
g,
j,
o,
r,
t,
y_alt,
y2_alt,
uni0443,
uni0451,
uni0437,
uni044D,
C,
S,
uni0421,
G,
uni041E,
Q,
J,
K_alt,
K,
k_alt,
k,
i_alt,
j_alt,
s_alt,
s,
c_alt,
copyright,
ampersand,
dollar,
parenleft,
parenright,
cent,
section,
uni04C1,
uni04C2,
w_alt,
W_alt,
zero,
one,
two,
three,
four,
seven,
eight,
nine,
uni0430,
uni0435,
uni043E,
uni0441,
uni0218,
uni0219,
uni021A,
uni021B,
question,
uni2116,
uni0401,
asciitilde,
trademark,
registered,
degree,
bullet,
uni27F5,
uni27F6,
arrowup,

glyphs = (
{
glyphname = .notdef;
layers = (
{
layerId = m01;
shapes = (
{
closed = 1;
nodes = (
(520,-295,l),
(520,960,l),
(20,960,l),
(20,-295,l)
);
},
{
closed = 1;
nodes = (
(510,950,l),
(510,-285,l),
(30,-285,l),
(30,950,l)
);
}
);
userData = {
assembly = "MPPEM[ ]	/* MeasurePixelPerEm */
PUSHB[ ]	/* 1 value pushed */
50 
LT[ ]	/* LessThan */
IF[ ]	/* If */
NPUSHB[ ]	/* 21 values pushed */
0 3 3 0 95 0 0 0 68 77 0 2 2 1 95 0 1 1 69 1 78 
ELSE[ ]	/* Else */
NPUSHB[ ]	/* 24 values pushed */
0 0 0 3 2 0 3 103 0 2 1 1 2 87 0 2 2 1 95 0 1 2 1 79 
EIF[ ]	/* EndIf */
PUSHB[ ]	/* 7 values pushed */
17 17 17 16 4 6 26 
CALL[ ]	/* CallFunction */";
};
width = 540;
}
);
note = ".notdef";
},
{
glyphname = B;
layers = (
{
layerId = m01;
shapes = (
{
closed = 1;
nodes = (
(404,0,o),
(512,16,o),
(557,47,qs),
(595,72,o),
(642,153,o),
(644,201,qs),
(645,231,o),
(633,287,o),
(606,335,o),
(562,371,o),
(531,380,q),
(575,406,o),
(612,482,o),
(611,531,qs),
(611,577,o),
(576,642,o),
(551,662,qs),
(520,688,o),
(437,708,o),
(388,708,qs),
(74,708,l),
(74,0,l),
(351,0,ls)
);
},
{
closed = 1;
nodes = (
(219,579,l),
(361,579,ls),
(383,579,o),
(425,576,o),
(441,566,qs),
(454,558,o),
(472,528,o),
(471,504,qs),
(470,481,o),
(448,447,o),
(432,437,qs),
(413,426,o),
(369,421,o),
(347,421,qs),
(219,421,l)
);
},
{
closed = 1;
nodes = (
(382,299,ls),
(405,299,o),
(448,295,o),
(465,284,qs),
(480,276,o),
(500,244,o),
(500,221,qs),
(500,196,o),
(482,163,o),
(468,152,qs),
(445,135,o),
(380,128,o),
(351,128,qs),
(219,128,l),
(219,298,l)
);
}
);
userData = {
assembly = "NPUSHB[ ]	/* 59 values pushed */
11 1 5 2 1 76 7 1 2 0 5 4 2 5 103 0 3 3 0 95 0 0 0 38 77 0 4 4 1 95 6 1 1 1 39 1 78 24 23 0 0 52 50 40 38 36 34 23 37 24 37 0 22 0 21 33 8 8 23 
CALL[ ]	/* CallFunction */";
};
width = 682;
}
);
note = B;
unicode = 66;
},
{
glyphname = D;
kernRight = D;
layers = (
{
layerId = m01;
shapes = (
{
closed = 1;
nodes = (
(514,0,o),
(691,182,o),
(691,353,qs),
(691,466,o),
(610,626,o),
(530,667,qs),
(485,691,o),
(387,708,o),
(336,708,qs),
(75,708,l),
(75,0,l),
(343,0,ls)
);
},
{
closed = 1;
nodes = (
(220,579,l),
(336,579,ls),
(378,579,o),
(465,555,o),
(493,522,qs),
(518,492,o),
(542,406,o),
(542,353,qs),
(542,286,o),
(501,183,o),
(460,155,qs),
(450,149,o),
(422,139,o),
(390,132,o),
(358,128,o),
(344,128,qs),
(220,128,l)
);
}
);
userData = {
assembly = "NPUSHB[ ]	/* 41 values pushed */
0 3 3 0 95 0 0 0 38 77 5 1 2 2 1 95 4 1 1 1 39 1 78 13 12 0 0 27 25 12 28 13 28 0 11 0 10 33 6 8 23 
CALL[ ]	/* CallFunction */";
};
width = 728;
}
);
note = D;
unicode = 68;
},
{
glyphname = E;
layers = (
{
layerId = m01;
shapes = (
{
closed = 1;
nodes = (
(75,0,l),
(581,0,l),
(581,128,l),
(220,128,l),
(220,285,l),
(535,285,l),
(535,414,l),
(220,414,l),
(220,579,l),
(581,579,l),
(581,708,l),
(75,708,l)
);
}
);
userData = {
assembly = "NPUSHB[ ]	/* 44 values pushed */
0 1 0 2 3 1 2 103 0 0 0 5 95 6 1 5 5 38 77 0 3 3 4 95 0 4 4 39 4 78 0 0 0 11 0 11 17 17 17 17 17 7 8 27 
CALL[ ]	/* CallFunction */";
};
width = 617;
}
);
note = E;
unicode = 69;
},
{
glyphname = F;
layers = (
{
layerId = m01;
shapes = (
{
closed = 1;
nodes = (
(75,0,l),
(220,0,l),
(220,269,l),
(513,269,l),
(513,396,l),
(220,396,l),
(220,579,l),
(569,579,l),
(569,708,l),
(75,708,l)
);
}
);
userData = {
assembly = "NPUSHB[ ]	/* 38 values pushed */
0 1 0 2 3 1 2 103 0 0 0 4 95 5 1 4 4 38 77 0 3 3 39 3 78 0 0 0 9 0 9 17 17 17 17 6 8 26 
CALL[ ]	/* CallFunction */";
};
width = 594;
}
);
note = F;
unicode = 70;
},
{
glyphname = H;
layers = (
{
layerId = m01;
shapes = (
{
closed = 1;
nodes = (
(75,708,l),
(75,0,l),
(220,0,l),
(220,285,l),
(533,285,l),
(533,0,l),
(678,0,l),
(678,708,l),
(533,708,l),
(533,414,l),
(220,414,l),
(220,708,l)
);
}
);
userData = {
assembly = "NPUSHB[ ]	/* 30 values pushed */
0 0 0 3 2 0 3 103 5 1 1 1 38 77 4 1 2 2 39 2 78 17 17 17 17 17 16 6 8 28 
CALL[ ]	/* CallFunction */";
};
width = 753;
}
);
note = H;
unicode = 72;
},
{
glyphname = I;
layers = (
{
layerId = m01;
shapes = (
{
closed = 1;
nodes = (
(75,708,l),
(75,0,l),
(220,0,l),
(220,708,l)
);
}
);
userData = {
assembly = "NPUSHB[ ]	/* 16 values pushed */
0 1 1 38 77 0 0 0 39 0 78 17 16 2 8 24 
CALL[ ]	/* CallFunction */";
};
width = 295;
}
);
note = I;
unicode = 73;
},
{
glyphname = L;
layers = (
{
layerId = m01;
shapes = (
{
closed = 1;
nodes = (
(75,708,l),
(75,0,l),
(566,0,l),
(566,128,l),
(219,128,l),
(219,708,l)
);
}
);
userData = {
assembly = "NPUSHB[ ]	/* 22 values pushed */
0 2 2 38 77 0 0 0 1 96 0 1 1 39 1 78 17 17 16 3 8 25 
CALL[ ]	/* CallFunction */";
};
width = 594;
}
);
note = L;
unicode = 76;
},
{
glyphname = M;
layers = (
{
layerId = m01;
shapes = (
{
closed = 1;
nodes = (
(75,0,l),
(218,0,l),
(218,488,l),
(409,183,l),
(474,183,l),
(665,488,l),
(665,0,l),
(809,0,l),
(809,708,l),
(655,708,l),
(444,375,l),
(232,708,l),
(75,708,l)
);
}
);
userData = {
assembly = "NPUSHB[ ]	/* 43 values pushed */
9 6 1 3 2 0 1 76 0 2 0 1 0 2 1 128 5 4 2 0 0 38 77 3 1 1 1 39 1 78 0 0 0 12 0 12 18 18 17 18 6 8 26 
CALL[ ]	/* CallFunction */";
};
width = 884;
}
);
note = M;
unicode = 77;
},
{
glyphname = N;
layers = (
{
layerId = m01;
shapes = (
{
closed = 1;
nodes = (
(75,0,l),
(217,0,l),
(217,472,l),
(553,0,l),
(692,0,l),
(692,708,l),
(550,708,l),
(550,234,l),
(214,708,l),
(75,708,l)
);
}
);
userData = {
assembly = "NPUSHB[ ]	/* 33 values pushed */
6 1 2 1 0 1 76 4 3 2 0 0 38 77 2 1 1 1 39 1 78 0 0 0 9 0 9 18 17 18 5 8 25 
CALL[ ]	/* CallFunction */";
};
width = 767;
}
);
note = N;
unicode = 78;
},
{
glyphname = P;
layers = (
{
layerId = m01;
shapes = (
{
closed = 1;
nodes = (
(75,0,l),
(220,0,l),
(220,209,l),
(357,209,ls),
(415,209,o),
(514,242,o),
(585,305,o),
(625,398,o),
(626,458,qs),
(627,527,o),
(588,622,o),
(515,681,o),
(411,708,o),
(347,708,qs),
(75,708,l)
);
},
{
closed = 1;
nodes = (
(220,579,l),
(348,579,ls),
(409,579,o),
(486,523,o),
(484,455,qs),
(483,425,o),
(461,381,o),
(425,351,o),
(376,337,o),
(349,337,qs),
(220,337,l)
);
}
);
userData = {
assembly = "NPUSHB[ ]	/* 47 values pushed */
6 1 3 0 1 2 3 1 103 0 4 4 0 95 5 1 0 0 38 77 0 2 2 39 2 78 16 15 1 0 24 22 15 25 16 25 13 12 11 9 0 14 1 14 7 8 22 
CALL[ ]	/* CallFunction */";
};
width = 664;
}
);
note = P;
unicode = 80;
},
{
glyphname = R;
layers = (
{
layerId = m01;
shapes = (
{
closed = 1;
nodes = (
(75,0,l),
(220,0,l),
(220,254,l),
(333,254,l),
(476,0,l),
(638,0,l),
(481,268,l),
(523,279,o),
(555,305,qs),
(590,335,o),
(631,421,o),
(632,483,qs),
(633,529,o),
(603,618,o),
(568,650,qs),
(546,670,o),
(495,693,o),
(441,705,o),
(385,708,o),
(357,708,qs),
(75,708,l)
);
},
{
closed = 1;
nodes = (
(220,579,l),
(361,579,ls),
(389,579,o),
(436,572,o),
(453,561,qs),
(471,550,o),
(491,510,o),
(490,478,qs),
(489,448,o),
(468,409,o),
(433,386,o),
(385,376,o),
(358,376,qs),
(220,376,l)
);
}
);
userData = {
assembly = "NPUSHB[ ]	/* 56 values pushed */
13 1 2 4 1 76 7 1 4 0 2 1 4 2 103 0 5 5 0 95 6 1 0 0 38 77 3 1 1 1 39 1 78 22 21 2 0 33 31 21 34 22 34 19 18 17 16 15 14 0 20 2 20 8 8 22 
CALL[ ]	/* CallFunction */";
};
width = 679;
}
);
note = R;
unicode = 82;
},
{
glyphname = U;
layers = (
{
layerId = m01;
shapes = (
{
closed = 1;
nodes = (
(576,40,o),
(649,128,o),
(682,253,o),
(682,328,qs),
(682,708,l),
(538,708,l),
(538,318,ls),
(538,280,o),
(523,209,o),
(486,154,o),
(424,121,o),
(378,121,qs),
(331,121,o),
(269,154,o),
(231,208,o),
(215,279,o),
(215,318,qs),
(215,708,l),
(70,708,l),
(70,328,ls),
(70,251,o),
(103,128,o),
(176,40,o),
(293,-8,o),
(376,-8,qs),
(459,-8,o)
);
}
);
userData = {
assembly = "NPUSHB[ ]	/* 33 values pushed */
3 1 1 1 38 77 0 2 2 0 97 4 1 0 0 50 0 78 1 0 20 19 14 12 7 6 0 25 1 25 5 8 22 
CALL[ ]	/* CallFunction */";
};
width = 752;
}
);
note = U;
unicode = 85;
},
{
glyphname = V;
layers = (
{
layerId = m01;
shapes = (
{
closed = 1;
nodes = (
(163,708,l),
(2,708,l),
(271,0,l),
(427,0,l),
(696,708,l),
(539,708,l),
(352,173,l)
);
}
);
userData = {
assembly = "NPUSHB[ ]	/* 24 values pushed */
6 1 1 0 1 76 2 1 0 0 38 77 0 1 1 39 1 78 17 17 16 3 8 25 
CALL[ ]	/* CallFunction */";
};
width = 698;
}
);
note = V;
unicode = 86;
},
{
glyphname = W;
kernLeft = W;
kernRight = W;
layers = (
{
layerId = m01;
shapes = (
{
closed = 1;
nodes = (
(488,552,l),
(599,0,l),
(791,0,l),
(959,708,l),
(803,708,l),
(694,165,l),
(588,708,l),
(393,708,l),
(284,165,l),
(168,708,l),
(3,708,l),
(183,0,l),
(378,0,l)
);
}
);
userData = {
assembly = "NPUSHB[ ]	/* 36 values pushed */
11 6 3 3 3 0 1 76 2 1 2 0 0 38 77 5 4 2 3 3 39 3 78 0 0 0 12 0 12 17 18 18 17 6 8 26 
CALL[ ]	/* CallFunction */";
};
width = 962;
}
);
note = W;
unicode = 87;
},
{
glyphname = X;
layers = (
{
layerId = m01;
shapes = (
{
closed = 1;
nodes = (
(179,708,l),
(10,708,l),
(245,355,l),
(2,0,l),
(165,0,l),
(331,243,l),
(491,0,l),
(660,0,l),
(420,354,l),
(654,708,l),
(486,708,l),
(334,463,l)
);
}
);
userData = {
assembly = "NPUSHB[ ]	/* 29 values pushed */
11 8 5 2 4 1 0 1 76 3 1 0 0 38 77 2 1 1 1 39 1 78 18 18 18 16 4 8 26 
CALL[ ]	/* CallFunction */";
};
width = 662;
}
);
note = X;
unicode = 88;
},
{
glyphname = Y;
kernLeft = Y;
kernRight = Y;
layers = (
{
layerId = m01;
shapes = (
{
closed = 1;
nodes = (
(169,708,l),
(2,708,l),
(267,263,l),
(267,0,l),
(412,0,l),
(412,265,l),
(674,708,l),
(510,708,l),
(341,402,l)
);
}
);
userData = {
assembly = "NPUSHB[ ]	/* 26 values pushed */
8 5 2 3 1 0 1 76 2 1 0 0 38 77 0 1 1 39 1 78 18 18 16 3 8 25 
CALL[ ]	/* CallFunction */";
};
width = 676;
}
);
note = Y;
unicode = 89;
},
{
glyphname = Z;
layers = (
{
layerId = m01;
shapes = (
{
closed = 1;
nodes = (
(32,115,l),
(32,0,l),
(588,0,l),
(588,128,l),
(214,128,l),
(595,594,l),
(595,708,l),
(40,708,l),
(40,579,l),
(413,579,l)
);
}
);
userData = {
assembly = "NPUSHB[ ]	/* 44 values pushed */
3 1 3 0 8 1 2 1 2 76 4 1 3 3 0 95 0 0 0 38 77 0 1 1 2 95 0 2 2 39 2 78 0 0 0 9 0 9 17 18 17 5 8 25 
CALL[ ]	/* CallFunction */";
};
width = 627;
}
);
note = Z;
unicode = 90;
},
{
glyphname = b;
layers = (
{
layerId = m01;
shapes = (
{
closed = 1;
nodes = (
(56,708,l),
(56,0,l),
(197,0,l),
(197,70,l),
(233,27,o),
(322,-8,o),
(373,-8,qs),
(417,-8,o),
(504,25,o),
(535,58,qs),
(572,96,o),
(603,203,o),
(603,268,qs),
(603,320,o),
(579,415,o),
(553,450,qs),
(521,498,o),
(425,539,o),
(369,538,qs),
(322,537,o),
(229,498,o),
(197,460,q),
(197,708,l)
);
},
{
closed = 1;
nodes = (
(214,347,o),
(247,388,o),
(298,412,o),
(330,412,qs),
(364,412,o),
(412,390,o),
(445,350,o),
(462,296,o),
(462,265,qs),
(462,233,o),
(445,179,o),
(414,138,o),
(366,116,o),
(332,117,qs),
(269,118,o),
(198,198,o),
(197,262,qs),
(197,292,o)
);
}
);
userData = {
assembly = "MPPEM[ ]	/* MeasurePixelPerEm */
PUSHB[ ]	/* 1 value pushed */
29 
LT[ ]	/* LessThan */
IF[ ]	/* If */
NPUSHB[ ]	/* 10 values pushed */
0 1 5 0 18 1 1 4 2 76 
ELSE[ ]	/* Else */
NPUSHB[ ]	/* 10 values pushed */
0 1 5 0 18 1 2 4 2 76 
EIF[ ]	/* EndIf */
MPPEM[ ]	/* MeasurePixelPerEm */
PUSHB[ ]	/* 1 value pushed */
29 
LT[ ]	/* LessThan */
IF[ ]	/* If */
NPUSHB[ ]	/* 27 values pushed */
0 3 3 38 77 0 5 5 0 97 0 0 0 49 77 0 4 4 1 97 2 1 1 1 50 1 78 
ELSE[ ]	/* Else */
NPUSHB[ ]	/* 31 values pushed */
0 3 3 38 77 0 5 5 0 97 0 0 0 49 77 0 2 2 39 77 0 4 4 1 97 0 1 1 50 1 78 
EIF[ ]	/* EndIf */
NPUSHB[ ]	/* 9 values pushed */
40 35 17 19 42 34 6 8 28 
CALL[ ]	/* CallFunction */";
};
width = 638;
}
);
note = b;
unicode = 98;
},
{
glyphname = d;
kernLeft = d;
layers = (
{
layerId = m01;
shapes = (
{
closed = 1;
nodes = (
(582,0,l),
(582,708,l),
(441,708,l),
(441,485,l),
(415,511,o),
(342,538,o),
(296,538,qs),
(235,538,o),
(139,500,o),
(107,466,qs),
(35,388,o),
(35,259,qs),
(35,204,o),
(66,98,o),
(104,58,qs),
(136,25,o),
(224,-8,o),
(276,-8,qs),
(332,-6,o),
(411,25,o),
(443,59,q),
(451,0,l)
);
},
{
closed = 1;
nodes = (
(225,139,o),
(192,179,o),
(176,232,o),
(176,265,qs),
(176,296,o),
(192,349,o),
(225,390,o),
(274,412,o),
(307,412,qs),
(372,411,o),
(440,329,o),
(440,263,qs),
(440,202,o),
(373,119,o),
(309,117,qs),
(276,117,o)
);
}
);
userData = {
assembly = "PUSHB[ ]	/* 6 values pushed */
17 1 5 1 1 76 
MPPEM[ ]	/* MeasurePixelPerEm */
PUSHB[ ]	/* 1 value pushed */
33 
LT[ ]	/* LessThan */
IF[ ]	/* If */
NPUSHB[ ]	/* 28 values pushed */
0 2 2 38 77 0 5 5 1 97 0 1 1 49 77 6 1 4 4 0 97 3 1 0 0 47 0 78 
ELSE[ ]	/* Else */
NPUSHB[ ]	/* 32 values pushed */
0 2 2 38 77 0 5 5 1 97 0 1 1 49 77 0 3 3 39 77 6 1 4 4 0 97 0 0 0 47 0 78 
EIF[ ]	/* EndIf */
NPUSHB[ ]	/* 15 values pushed */
23 22 29 27 22 37 23 37 17 19 41 34 7 8 26 
CALL[ ]	/* CallFunction */";
};
width = 637;
}
);
note = d;
unicode = 100;
},
{
glyphname = h;
layers = (
{
layerId = m01;
shapes = (
{
closed = 1;
nodes = (
(56,708,l),
(56,0,l),
(197,0,l),
(197,271,ls),
(197,297,o),
(208,346,o),
(233,386,o),
(280,411,o),
(310,412,qs),
(340,412,o),
(381,394,o),
(407,357,o),
(418,306,o),
(418,278,qs),
(418,0,l),
(560,0,l),
(560,289,ls),
(560,346,o),
(536,440,o),
(507,475,qs),
(482,503,o),
(406,538,o),
(355,538,qs),
(329,538,o),
(284,529,o),
(262,519,qs),
(241,508,o),
(211,485,o),
(197,468,q),
(197,708,l)
);
}
);
userData = {
assembly = "NPUSHB[ ]	/* 36 values pushed */
0 1 2 0 1 76 0 4 4 38 77 0 2 2 0 97 0 0 0 49 77 3 1 1 1 39 1 78 17 21 37 22 37 5 8 27 
CALL[ ]	/* CallFunction */";
};
width = 612;
}
);
note = h;
unicode = 104;
},
{
glyphname = i;
layers = (
{
layerId = m01;
shapes = (
{
closed = 1;
nodes = (
(47,726,o),
(47,688,qs),
(47,648,o),
(96,603,o),
(134,603,qs),
(173,603,o),
(221,648,o),
(221,688,qs),
(221,726,o),
(173,772,o),
(134,772,qs),
(96,772,o)
);
},
{
closed = 1;
nodes = (
(64,527,l),
(64,0,l),
(205,0,l),
(205,527,l)
);
}
);
userData = {
assembly = "MPPEM[ ]	/* MeasurePixelPerEm */
PUSHB[ ]	/* 1 value pushed */
12 
LT[ ]	/* LessThan */
IF[ ]	/* If */
NPUSHB[ ]	/* 22 values pushed */
0 1 1 0 97 4 1 0 0 48 77 0 3 3 41 77 0 2 2 39 2 78 
ELSE[ ]	/* Else */
NPUSHB[ ]	/* 20 values pushed */
4 1 0 0 1 3 0 1 105 0 3 3 41 77 0 2 2 39 2 78 
EIF[ ]	/* EndIf */
NPUSHB[ ]	/* 15 values pushed */
1 0 15 14 13 12 7 5 0 11 1 11 5 8 22 
CALL[ ]	/* CallFunction */";
};
width = 269;
}
);
note = i;
unicode = 105;
},
{
glyphname = l;
layers = (
{
layerId = m01;
shapes = (
{
closed = 1;
nodes = (
(56,708,l),
(56,0,l),
(197,0,l),
(197,708,l)
);
}
);
userData = {
assembly = "NPUSHB[ ]	/* 16 values pushed */
0 1 1 38 77 0 0 0 39 0 78 17 16 2 8 24 
CALL[ ]	/* CallFunction */";
};
width = 253;
}
);
note = l;
unicode = 108;
},
{
glyphname = m;
layers = (
{
layerId = m01;
shapes = (
{
closed = 1;
nodes = (
(56,527,l),
(56,0,l),
(197,0,l),
(197,270,ls),
(197,291,o),
(202,341,o),
(221,384,o),
(261,412,o),
(290,412,qs),
(315,412,o),
(346,392,o),
(364,359,o),
(370,318,o),
(370,297,qs),
(370,0,l),
(511,0,l),
(511,282,ls),
(511,305,o),
(518,351,o),
(539,389,o),
(576,412,o),
(603,412,qs),
(628,412,o),
(661,391,o),
(678,358,o),
(684,316,o),
(684,295,qs),
(684,0,l),
(825,0,l),
(825,335,ls),
(825,379,o),
(806,453,o),
(766,506,o),
(700,538,o),
(654,538,qs),
(554,538,o),
(488,453,q),
(468,492,o),
(400,538,o),
(347,538,qs),
(299,538,o),
(225,499,o),
(198,459,q),
(191,527,l)
);
}
);
userData = {
assembly = "MPPEM[ ]	/* MeasurePixelPerEm */
PUSHB[ ]	/* 1 value pushed */
22 
LT[ ]	/* LessThan */
IF[ ]	/* If */
PUSHB[ ]	/* 6 values pushed */
6 1 3 0 1 76 
ELSE[ ]	/* Else */
PUSHB[ ]	/* 6 values pushed */
6 1 3 7 1 76 
EIF[ ]	/* EndIf */
MPPEM[ ]	/* MeasurePixelPerEm */
PUSHB[ ]	/* 1 value pushed */
22 
LT[ ]	/* LessThan */
IF[ ]	/* If */
NPUSHB[ ]	/* 21 values pushed */
5 1 3 3 0 97 7 1 2 0 0 49 77 6 4 2 2 2 39 2 78 
ELSE[ ]	/* Else */
NPUSHB[ ]	/* 25 values pushed */
0 7 7 41 77 5 1 3 3 0 97 1 1 0 0 49 77 6 4 2 2 2 39 2 78 
EIF[ ]	/* EndIf */
NPUSHB[ ]	/* 11 values pushed */
17 21 37 21 37 21 35 34 8 8 30 
CALL[ ]	/* CallFunction */";
};
width = 876;
}
);
note = m;
unicode = 109;
},
{
glyphname = n;
layers = (
{
layerId = m01;
shapes = (
{
closed = 1;
nodes = (
(56,527,l),
(56,0,l),
(197,0,l),
(197,260,ls),
(197,287,o),
(206,340,o),
(232,384,o),
(278,412,o),
(311,412,qs),
(338,412,o),
(381,394,o),
(407,357,o),
(418,306,o),
(418,278,qs),
(418,0,l),
(560,0,l),
(560,289,ls),
(560,346,o),
(538,439,o),
(509,474,qs),
(485,504,o),
(407,538,o),
(356,538,qs),
(262,538,o),
(198,460,q),
(191,527,l)
);
}
);
userData = {
assembly = "MPPEM[ ]	/* MeasurePixelPerEm */
PUSHB[ ]	/* 1 value pushed */
22 
LT[ ]	/* LessThan */
IF[ ]	/* If */
NPUSHB[ ]	/* 18 values pushed */
0 2 2 0 97 4 1 0 0 49 77 3 1 1 1 39 1 78 
ELSE[ ]	/* Else */
NPUSHB[ ]	/* 22 values pushed */
0 4 4 41 77 0 2 2 0 97 0 0 0 49 77 3 1 1 1 39 1 78 
EIF[ ]	/* EndIf */
PUSHB[ ]	/* 8 values pushed */
17 21 37 22 33 5 8 27 
CALL[ ]	/* CallFunction */";
};
width = 612;
}
);
note = n;
unicode = 110;
},
{
glyphname = p;
layers = (
{
layerId = m01;
shapes = (
{
closed = 1;
nodes = (
(56,527,l),
(56,-220,l),
(197,-220,l),
(197,59,l),
(216,37,o),
(259,11,o),
(303,-3,o),
(347,-8,o),
(369,-8,qs),
(414,-8,o),
(504,27,o),
(535,61,qs),
(572,99,o),
(603,204,o),
(603,269,qs),
(603,321,o),
(579,415,o),
(553,450,qs),
(521,498,o),
(425,539,o),
(369,538,qs),
(322,537,o),
(229,494,o),
(198,456,q),
(190,527,l)
);
},
{
closed = 1;
nodes = (
(412,390,o),
(445,350,o),
(462,296,o),
(462,265,qs),
(462,233,o),
(445,179,o),
(414,139,o),
(366,117,o),
(332,117,qs),
(269,119,o),
(196,200,o),
(197,267,qs),
(197,297,o),
(216,349,o),
(250,389,o),
(299,412,o),
(330,412,qs),
(364,412,o)
);
}
);
userData = {
assembly = "PUSHB[ ]	/* 6 values pushed */
20 1 1 5 1 76 
MPPEM[ ]	/* MeasurePixelPerEm */
PUSHB[ ]	/* 1 value pushed */
14 
LT[ ]	/* LessThan */
IF[ ]	/* If */
NPUSHB[ ]	/* 28 values pushed */
6 1 4 4 0 97 3 1 0 0 49 77 0 5 5 1 97 0 1 1 50 77 0 2 2 43 2 78 
ELSE[ ]	/* Else */
MPPEM[ ]	/* MeasurePixelPerEm */
PUSHB[ ]	/* 1 value pushed */
22 
LT[ ]	/* LessThan */
IF[ ]	/* If */
NPUSHB[ ]	/* 34 values pushed */
6 1 4 4 0 97 3 1 0 0 49 77 0 5 5 1 97 0 1 1 50 77 0 2 2 0 97 3 1 0 0 49 2 78 
ELSE[ ]	/* Else */
NPUSHB[ ]	/* 32 values pushed */
6 1 4 4 0 97 0 0 0 49 77 0 5 5 1 97 0 1 1 50 77 0 2 2 3 95 0 3 3 41 2 78 
EIF[ ]	/* EndIf */
EIF[ ]	/* EndIf */
NPUSHB[ ]	/* 15 values pushed */
26 25 34 32 25 42 26 42 17 21 42 34 7 8 26 
CALL[ ]	/* CallFunction */";
};
width = 638;
}
);
note = p;
unicode = 112;
},
{
glyphname = q;
kernLeft = d;
layers = (
{
layerId = m01;
shapes = (
{
closed = 1;
nodes = (
(583,-220,l),
(583,527,l),
(461,527,l),
(446,470,l),
(431,489,o),
(393,515,o),
(351,532,o),
(309,538,o),
(291,538,qs),
(236,539,o),
(138,500,o),
(107,466,qs),
(35,388,o),
(35,259,qs),
(35,204,o),
(65,99,o),
(104,59,qs),
(136,25,o),
(229,-8,o),
(279,-8,qs),
(327,-8,o),
(413,20,o),
(441,49,q),
(441,-220,l)
);
},
{
closed = 1;
nodes = (
(227,139,o),
(193,179,o),
(176,232,o),
(176,265,qs),
(176,296,o),
(192,349,o),
(225,390,o),
(276,412,o),
(309,412,qs),
(373,411,o),
(442,329,o),
(440,263,qs),
(440,232,o),
(423,180,o),
(390,140,o),
(341,117,o),
(310,117,qs),
(277,117,o)
);
}
);
userData = {
assembly = "MPPEM[ ]	/* MeasurePixelPerEm */
PUSHB[ ]	/* 1 value pushed */
22 
LT[ ]	/* LessThan */
IF[ ]	/* If */
NPUSHB[ ]	/* 10 values pushed */
19 1 5 1 0 1 0 4 2 76 
ELSE[ ]	/* Else */
NPUSHB[ ]	/* 10 values pushed */
19 1 5 2 0 1 0 4 2 76 
EIF[ ]	/* EndIf */
MPPEM[ ]	/* MeasurePixelPerEm */
PUSHB[ ]	/* 1 value pushed */
14 
LT[ ]	/* LessThan */
IF[ ]	/* If */
NPUSHB[ ]	/* 28 values pushed */
0 5 5 1 97 2 1 1 1 49 77 6 1 4 4 0 97 0 0 0 50 77 0 3 3 43 3 78 
ELSE[ ]	/* Else */
MPPEM[ ]	/* MeasurePixelPerEm */
PUSHB[ ]	/* 1 value pushed */
22 
LT[ ]	/* LessThan */
IF[ ]	/* If */
NPUSHB[ ]	/* 34 values pushed */
0 5 5 1 97 2 1 1 1 49 77 6 1 4 4 0 97 0 0 0 50 77 0 3 3 1 97 2 1 1 1 49 3 78 
ELSE[ ]	/* Else */
NPUSHB[ ]	/* 32 values pushed */
0 5 5 1 97 0 1 1 49 77 6 1 4 4 0 97 0 0 0 50 77 0 3 3 2 95 0 2 2 41 3 78 
EIF[ ]	/* EndIf */
EIF[ ]	/* EndIf */
NPUSHB[ ]	/* 15 values pushed */
25 24 33 31 24 41 25 41 17 21 41 34 7 8 26 
CALL[ ]	/* CallFunction */";
};
width = 638;
}
);
note = q;
unicode = 113;
},
{
glyphname = u;
layers = (
{
layerId = m01;
shapes = (
{
closed = 1;
nodes = (
(194,178,o),
(195,235,qs),
(195,527,l),
(54,527,l),
(54,231,ls),
(54,176,o),
(74,98,o),
(100,66,qs),
(134,26,o),
(236,-8,o),
(298,-8,qs),
(325,-8,o),
(382,-1,o),
(433,16,o),
(478,42,o),
(497,66,qs),
(522,98,o),
(543,176,o),
(543,231,qs),
(543,527,l),
(402,527,l),
(402,235,ls),
(404,178,o),
(356,117,o),
(298,117,qs),
(244,118,o)
);
}
);
userData = {
assembly = "NPUSHB[ ]	/* 33 values pushed */
3 1 1 1 41 77 4 1 0 0 2 97 0 2 2 50 2 78 1 0 22 21 15 13 5 4 0 25 1 25 5 8 22 
CALL[ ]	/* CallFunction */";
};
width = 597;
}
);
note = u;
unicode = 117;
},
{
glyphname = v;
layers = (
{
layerId = m01;
shapes = (
{
closed = 1;
nodes = (
(156,527,l),
(0,527,l),
(193,0,l),
(370,0,l),
(564,527,l),
(409,527,l),
(283,136,l)
);
}
);
userData = {
assembly = "NPUSHB[ ]	/* 24 values pushed */
6 1 1 0 1 76 2 1 0 0 41 77 0 1 1 39 1 78 17 17 16 3 8 25 
CALL[ ]	/* CallFunction */";
};
width = 564;
}
);
note = v;
unicode = 118;
},
{
glyphname = w;
kernLeft = w;
layers = (
{
layerId = m01;
shapes = (
{
closed = 1;
nodes = (
(426,349,l),
(532,0,l),
(687,0,l),
(849,527,l),
(702,527,l),
(607,161,l),
(500,527,l),
(359,527,l),
(251,161,l),
(156,527,l),
(0,527,l),
(163,0,l),
(323,0,l)
);
}
);
userData = {
assembly = "NPUSHB[ ]	/* 36 values pushed */
11 6 3 3 3 0 1 76 2 1 2 0 0 41 77 5 4 2 3 3 39 3 78 0 0 0 12 0 12 17 18 18 17 6 8 26 
CALL[ ]	/* CallFunction */";
};
width = 849;
}
);
note = w;
unicode = 119;
},
{
glyphname = x;
layers = (
{
layerId = m01;
shapes = (
{
closed = 1;
nodes = (
(173,527,l),
(11,527,l),
(176,268,l),
(2,0,l),
(160,0,l),
(265,175,l),
(374,0,l),
(533,0,l),
(355,266,l),
(524,527,l),
(364,527,l),
(270,356,l)
);
}
);
userData = {
assembly = "NPUSHB[ ]	/* 29 values pushed */
11 8 5 2 4 1 0 1 76 3 1 0 0 41 77 2 1 1 1 39 1 78 18 18 18 16 4 8 26 
CALL[ ]	/* CallFunction */";
};
width = 535;
}
);
note = x;
unicode = 120;
},
{
glyphname = z;
layers = (
{
layerId = m01;
shapes = (
{
closed = 1;
nodes = (
(35,527,l),
(35,405,l),
(289,405,l),
(35,103,l),
(35,0,l),
(475,0,l),
(475,123,l),
(219,123,l),
(475,425,l),
(475,527,l)
);
}
);
userData = {
assembly = "NPUSHB[ ]	/* 38 values pushed */
0 1 2 3 5 1 1 0 2 76 0 2 2 3 95 0 3 3 41 77 0 0 0 1 95 0 1 1 39 1 78 17 18 17 17 4 8 26 
CALL[ ]	/* CallFunction */";
};
width = 510;
}
);
note = z;
unicode = 122;
},
{
glyphname = period;
kernLeft = period;
kernRight = period;
layers = (
{
layerId = m01;
shapes = (
{
closed = 1;
nodes = (
(55,120,o),
(55,78,qs),
(55,36,o),
(104,-8,o),
(142,-8,qs),
(180,-8,o),
(228,36,o),
(228,78,qs),
(228,120,o),
(180,166,o),
(142,166,qs),
(104,166,o)
);
}
);
userData = {
assembly = "NPUSHB[ ]	/* 23 values pushed */
2 1 0 0 1 97 0 1 1 50 1 78 1 0 7 5 0 11 1 11 3 8 22 
CALL[ ]	/* CallFunction */";
};
width = 283;
}
);
note = period;
unicode = 46;
},
{
glyphname = comma;
kernLeft = period;
kernRight = period;
layers = (
{
layerId = m01;
shapes = (
{
closed = 1;
nodes = (
(83,-107,o),
(55,-126,q),
(91,-176,l),
(121,-166,o),
(177,-123,o),
(220,-66,o),
(247,1,o),
(247,36,qs),
(247,61,o),
(236,105,o),
(212,139,o),
(175,159,o),
(150,159,qs),
(113,159,o),
(58,115,o),
(58,73,qs),
(58,35,o),
(104,-10,o),
(138,-12,q),
(129,-50,o)
);
}
);
userData = {
assembly = "PUSHB[ ]	/* 5 values pushed */
17 16 2 0 73 
MPPEM[ ]	/* MeasurePixelPerEm */
PUSHB[ ]	/* 1 value pushed */
10 
LT[ ]	/* LessThan */
IF[ ]	/* If */
NPUSHB[ ]	/* 11 values pushed */
0 1 1 0 97 0 0 0 47 0 78 
ELSE[ ]	/* Else */
NPUSHB[ ]	/* 11 values pushed */
0 1 1 0 97 0 0 0 50 0 78 
EIF[ ]	/* EndIf */
PUSHB[ ]	/* 5 values pushed */
36 16 2 8 24 
CALL[ ]	/* CallFunction */";
};
width = 302;
}
);
note = comma;
unicode = 44;
},
{
glyphname = A;
kernLeft = A;
kernRight = A;
layers = (
{
layerId = m01;
shapes = (
{
closed = 1;
nodes = (
(457,263,l),
(251,263,l),
(355,555,l)
);
},
{
closed = 1;
nodes = (
(549,0,l),
(708,0,l),
(438,708,l),
(274,708,l),
(0,0,l),
(158,0,l),
(209,135,l),
(500,135,l)
);
}
);
userData = {
assembly = "NPUSHB[ ]	/* 40 values pushed */
2 1 0 2 1 76 0 0 5 1 4 1 0 4 104 0 2 2 38 77 3 1 1 1 39 1 78 3 3 3 10 3 10 17 17 19 16 6 8 26 
CALL[ ]	/* CallFunction */";
};
width = 708;
}
);
note = A;
unicode = 65;
},
{
glyphname = breve;
layers = (
{
layerId = m01;
shapes = (
{
closed = 1;
nodes = (
(110,708,o),
(139,646,o),
(188,607,o),
(256,589,o),
(297,589,qs),
(337,589,o),
(405,608,o),
(455,647,o),
(483,708,o),
(484,751,q),
(374,751,l),
(372,715,o),
(332,682,o),
(297,682,qs),
(262,682,o),
(221,716,o),
(220,751,q),
(110,751,l)
);
}
);
userData = {
assembly = "PUSHB[ ]	/* 2 values pushed */
6 100 
WCVTP[ ]	/* WriteCVTInPixels */
NPUSHB[ ]	/* 35 values pushed */
4 3 2 1 0 1 133 0 0 2 2 0 89 0 0 0 2 97 0 2 0 2 81 0 0 0 17 0 17 36 18 34 5 8 25 
CALL[ ]	/* CallFunction */
PUSHB[ ]	/* 2 values pushed */
6 0 
WCVTP[ ]	/* WriteCVTInPixels */";
};
width = 594;
}
);
note = breve;
unicode = 728;
},
{
glyphname = circumflex;
layers = (
{
layerId = m01;
shapes = (
{
closed = 1;
nodes = (
(247,769,l),
(98,599,l),
(223,599,l),
(291,685,l),
(361,599,l),
(487,599,l),
(335,769,l)
);
}
);
userData = {
assembly = "PUSHB[ ]	/* 2 values pushed */
6 100 
WCVTP[ ]	/* WriteCVTInPixels */
NPUSHB[ ]	/* 22 values pushed */
2 1 0 2 1 76 0 2 0 2 133 1 1 0 0 118 17 18 16 3 8 25 
CALL[ ]	/* CallFunction */
PUSHB[ ]	/* 2 values pushed */
6 0 
WCVTP[ ]	/* WriteCVTInPixels */";
};
width = 585;
}
);
note = circumflex;
unicode = 710;
},
{
glyphname = uni0326;
layers = (
{
layerId = m01;
shapes = (
{
closed = 1;
nodes = (
(-341,-253,o),
(-360,-267,q),
(-335,-303,l),
(-314,-296,o),
(-272,-264,o),
(-241,-220,o),
(-224,-171,o),
(-224,-146,qs),
(-224,-130,o),
(-231,-100,o),
(-249,-76,o),
(-277,-62,o),
(-295,-62,qs),
(-325,-62,o),
(-360,-96,o),
(-360,-124,qs),
(-360,-151,o),
(-329,-183,o),
(-302,-185,q),
(-308,-211,o)
);
}
);
userData = {
assembly = "PUSHB[ ]	/* 2 values pushed */
6 100 
WCVTP[ ]	/* WriteCVTInPixels */
NPUSHB[ ]	/* 13 values pushed */
17 16 2 0 73 0 0 0 118 37 1 8 23 
CALL[ ]	/* CallFunction */
PUSHB[ ]	/* 2 values pushed */
6 0 
WCVTP[ ]	/* WriteCVTInPixels */";
};
width = 0;
}
);
note = uni0326;
unicode = 806;
},
{
glyphname = exclam;
layers = (
{
layerId = m01;
shapes = (
{
closed = 1;
nodes = (
(65,114,o),
(65,75,qs),
(65,35,o),
(112,-9,o),
(152,-9,qs),
(192,-9,o),
(239,36,o),
(239,75,qs),
(239,114,o),
(193,162,o),
(152,162,qs),
(112,162,o)
);
},
{
closed = 1;
nodes = (
(78,708,l),
(91,230,l),
(213,230,l),
(226,708,l)
);
}
);
userData = {
assembly = "MPPEM[ ]	/* MeasurePixelPerEm */
PUSHB[ ]	/* 1 value pushed */
12 
LT[ ]	/* LessThan */
IF[ ]	/* If */
NPUSHB[ ]	/* 22 values pushed */
0 2 2 3 95 0 3 3 38 77 4 1 0 0 1 97 0 1 1 47 1 78 
ELSE[ ]	/* Else */
NPUSHB[ ]	/* 22 values pushed */
0 2 2 3 95 0 3 3 38 77 4 1 0 0 1 97 0 1 1 50 1 78 
EIF[ ]	/* EndIf */
NPUSHB[ ]	/* 15 values pushed */
1 0 15 14 13 12 7 5 0 11 1 11 5 8 22 
CALL[ ]	/* CallFunction */";
};
width = 304;
}
);
note = exclam;
unicode = 33;
},
{
glyphname = quotedbl;
layers = (
{
layerId = m01;
shapes = (
{
closed = 1;
nodes = (
(47,708,l),
(60,440,l),
(168,440,l),
(181,708,l)
);
},
{
closed = 1;
nodes = (
(232,708,l),
(246,440,l),
(354,440,l),
(368,708,l)
);
}
);
userData = {
assembly = "NPUSHB[ ]	/* 20 values pushed */
2 1 0 0 1 95 3 1 1 1 38 0 78 17 17 17 16 4 8 26 
CALL[ ]	/* CallFunction */";
};
width = 415;
}
);
note = quotedbl;
unicode = 34;
},
{
glyphname = quotesingle;
layers = (
{
layerId = m01;
shapes = (
{
closed = 1;
nodes = (
(55,708,l),
(68,440,l),
(176,440,l),
(190,708,l)
);
}
);
userData = {
assembly = "NPUSHB[ ]	/* 16 values pushed */
0 0 0 1 95 0 1 1 38 0 78 17 16 2 8 24 
CALL[ ]	/* CallFunction */";
};
width = 245;
}
);
note = quotesingle;
unicode = 39;
},
{
glyphname = numbersign;
layers = (
{
layerId = m01;
shapes = (
{
closed = 1;
nodes = (
(422,708,l),
(402,535,l),
(300,535,l),
(320,708,l),
(205,708,l),
(185,535,l),
(76,535,l),
(76,419,l),
(171,419,l),
(155,288,l),
(47,288,l),
(47,172,l),
(142,172,l),
(121,0,l),
(238,0,l),
(258,172,l),
(360,172,l),
(340,0,l),
(455,0,l),
(476,172,l),
(584,172,l),
(584,288,l),
(489,288,l),
(505,419,l),
(613,419,l),
(613,535,l),
(518,535,l),
(538,708,l)
);
},
{
closed = 1;
nodes = (
(286,419,l),
(388,419,l),
(374,288,l),
(272,288,l)
);
}
);
userData = {
assembly = "NPUSHB[ ]	/* 70 values pushed */
16 15 8 3 2 7 5 2 3 4 2 3 103 13 1 11 11 38 77 14 9 2 1 1 0 95 12 10 2 0 0 41 77 6 1 4 4 39 4 78 28 28 28 31 28 31 30 29 27 26 25 24 23 22 21 20 19 18 17 17 17 17 17 17 17 17 16 17 8 31 
CALL[ ]	/* CallFunction */";
};
width = 660;
}
);
note = numbersign;
unicode = 35;
},
{
glyphname = percent;
layers = (
{
layerId = m01;
shapes = (
{
closed = 1;
nodes = (
(749,12,o),
(792,59,o),
(815,122,o),
(815,158,qs),
(815,196,o),
(792,260,o),
(749,306,o),
(685,332,o),
(643,332,qs),
(602,332,o),
(538,306,o),
(494,260,o),
(472,196,o),
(472,158,qs),
(472,122,o),
(494,59,o),
(538,12,o),
(601,-15,o),
(643,-15,qs),
(685,-15,o)
);
},
{
closed = 1;
nodes = (
(324,404,o),
(367,451,o),
(389,514,o),
(389,550,qs),
(389,587,o),
(367,651,o),
(324,697,o),
(260,723,o),
(219,723,qs),
(177,723,o),
(113,697,o),
(70,651,o),
(47,588,o),
(47,550,qs),
(47,514,o),
(69,451,o),
(113,404,o),
(177,377,o),
(219,377,qs),
(260,377,o)
);
},
{
closed = 1;
nodes = (
(724,708,l),
(585,708,l),
(131,0,l),
(271,0,l)
);
},
{
closed = 1;
nodes = (
(278,578,o),
(278,550,qs),
(278,522,o),
(253,480,o),
(219,480,qs),
(184,480,o),
(157,521,o),
(157,550,qs),
(157,578,o),
(184,620,o),
(219,620,qs),
(253,620,o)
);
},
{
closed = 1;
nodes = (
(703,187,o),
(703,158,qs),
(703,130,o),
(678,88,o),
(643,88,qs),
(609,88,o),
(582,129,o),
(582,158,qs),
(582,187,o),
(611,229,o),
(643,229,qs),
(678,229,o)
);
}
);
userData = {
assembly = "MPPEM[ ]	/* MeasurePixelPerEm */
PUSHB[ ]	/* 1 value pushed */
16 
LT[ ]	/* LessThan */
IF[ ]	/* If */
NPUSHB[ ]	/* 44 values pushed */
0 7 11 1 2 1 7 2 105 0 1 14 1 8 9 1 8 106 13 1 6 6 3 97 4 1 3 3 46 77 0 9 9 0 97 12 5 10 3 0 0 50 0 78 
ELSE[ ]	/* Else */
NPUSHB[ ]	/* 52 values pushed */
0 7 11 1 2 1 7 2 105 0 1 14 1 8 9 1 8 106 0 4 4 38 77 13 1 6 6 3 97 0 3 3 46 77 12 1 5 5 39 77 0 9 9 0 97 10 1 0 0 50 0 78 
EIF[ ]	/* EndIf */
NPUSHB[ ]	/* 43 values pushed */
57 56 45 44 40 40 21 20 1 0 63 61 56 67 57 67 51 49 44 55 45 55 40 43 40 43 42 41 31 29 20 39 21 39 11 9 0 19 1 19 15 8 22 
CALL[ ]	/* CallFunction */";
};
width = 862;
}
);
note = percent;
unicode = 37;
},
{
glyphname = asterisk;
layers = (
{
layerId = m01;
shapes = (
{
closed = 1;
nodes = (
(88,660,l),
(57,565,l),
(153,534,l),
(93,452,l),
(175,394,l),
(233,474,l),
(292,394,l),
(373,452,l),
(314,534,l),
(410,565,l),
(379,660,l),
(283,629,l),
(283,728,l),
(184,728,l),
(184,629,l)
);
}
);
userData = {
assembly = "NPUSHB[ ]	/* 16 values pushed */
14 13 12 11 10 9 8 7 6 5 4 3 2 13 0 73 
MPPEM[ ]	/* MeasurePixelPerEm */
PUSHB[ ]	/* 1 value pushed */
25 
LT[ ]	/* LessThan */
IF[ ]	/* If */
PUSHB[ ]	/* 6 values pushed */
0 0 0 38 0 78 
ELSE[ ]	/* Else */
PUSHB[ ]	/* 4 values pushed */
0 0 0 118 
EIF[ ]	/* EndIf */
PUSHB[ ]	/* 4 values pushed */
16 1 8 23 
CALL[ ]	/* CallFunction */";
};
width = 467;
}
);
note = asterisk;
unicode = 42;
},
{
glyphname = plus;
layers = (
{
layerId = m01;
shapes = (
{
closed = 1;
nodes = (
(541,420,l),
(360,420,l),
(360,600,l),
(243,600,l),
(243,420,l),
(62,420,l),
(62,302,l),
(243,302,l),
(243,121,l),
(360,121,l),
(360,302,l),
(541,302,l)
);
}
);
userData = {
assembly = "NPUSHB[ ]	/* 41 values pushed */
0 3 2 0 3 87 4 1 2 6 5 2 1 0 2 1 103 0 3 3 0 95 0 0 3 0 79 0 0 0 11 0 11 17 17 17 17 17 7 8 27 
CALL[ ]	/* CallFunction */";
};
width = 603;
}
);
note = plus;
unicode = 43;
},
{
glyphname = slash;
layers = (
{
layerId = m01;
shapes = (
{
closed = 1;
nodes = (
(464,784,l),
(329,784,l),
(27,-171,l),
(162,-171,l)
);
}
);
userData = {
assembly = "NPUSHB[ ]	/* 20 values pushed */
0 0 1 0 133 2 1 1 1 118 0 0 0 3 0 3 17 3 8 23 
CALL[ ]	/* CallFunction */";
};
width = 491;
}
);
note = slash;
unicode = 47;
},
{
glyphname = colon;
kernLeft = colon;
layers = (
{
layerId = m01;
shapes = (
{
closed = 1;
nodes = (
(55,117,o),
(55,77,qs),
(55,35,o),
(102,-9,o),
(142,-9,qs),
(182,-9,o),
(229,36,o),
(229,77,qs),
(229,117,o),
(183,165,o),
(142,165,qs),
(102,165,o)
);
},
{
closed = 1;
nodes = (
(55,476,o),
(55,436,qs),
(55,394,o),
(102,350,o),
(142,350,qs),
(182,350,o),
(229,395,o),
(229,436,qs),
(229,476,o),
(183,525,o),
(142,525,qs),
(102,525,o)
);
}
);
userData = {
assembly = "MPPEM[ ]	/* MeasurePixelPerEm */
PUSHB[ ]	/* 1 value pushed */
12 
LT[ ]	/* LessThan */
IF[ ]	/* If */
NPUSHB[ ]	/* 23 values pushed */
0 3 3 2 97 5 1 2 2 41 77 4 1 0 0 1 97 0 1 1 47 1 78 
ELSE[ ]	/* Else */
NPUSHB[ ]	/* 23 values pushed */
0 3 3 2 97 5 1 2 2 41 77 4 1 0 0 1 97 0 1 1 50 1 78 
EIF[ ]	/* EndIf */
NPUSHB[ ]	/* 19 values pushed */
13 12 1 0 19 17 12 23 13 23 7 5 0 11 1 11 6 8 22 
CALL[ ]	/* CallFunction */";
};
width = 284;
}
);
note = colon;
unicode = 58;
},
{
glyphname = semicolon;
kernLeft = colon;
layers = (
{
layerId = m01;
shapes = (
{
closed = 1;
nodes = (
(85,-104,o),
(55,-125,q),
(91,-175,l),
(123,-164,o),
(180,-119,o),
(222,-60,o),
(248,8,o),
(248,42,qs),
(248,65,o),
(237,108,o),
(214,141,o),
(177,161,o),
(150,161,qs),
(111,161,o),
(58,117,o),
(58,75,qs),
(58,38,o),
(101,-8,o),
(137,-10,q),
(129,-46,o)
);
},
{
closed = 1;
nodes = (
(64,476,o),
(64,436,qs),
(64,394,o),
(111,350,o),
(152,350,qs),
(191,350,o),
(238,395,o),
(238,436,qs),
(238,476,o),
(192,525,o),
(152,525,qs),
(111,525,o)
);
}
);
userData = {
assembly = "PUSHB[ ]	/* 5 values pushed */
17 16 2 0 73 
MPPEM[ ]	/* MeasurePixelPerEm */
PUSHB[ ]	/* 1 value pushed */
12 
LT[ ]	/* LessThan */
IF[ ]	/* If */
NPUSHB[ ]	/* 22 values pushed */
0 3 3 2 97 4 1 2 2 41 77 0 1 1 0 97 0 0 0 47 0 78 
ELSE[ ]	/* Else */
NPUSHB[ ]	/* 22 values pushed */
0 3 3 2 97 4 1 2 2 41 77 0 1 1 0 97 0 0 0 50 0 78 
EIF[ ]	/* EndIf */
NPUSHB[ ]	/* 13 values pushed */
21 20 27 25 20 31 21 31 36 16 5 8 24 
CALL[ ]	/* CallFunction */";
};
width = 303;
}
);
note = semicolon;
unicode = 59;
},
{
glyphname = less;
layers = (
{
layerId = m01;
shapes = (
{
closed = 1;
nodes = (
(27,392,l),
(27,325,l),
(428,81,l),
(428,220,l),
(193,363,l),
(428,503,l),
(428,640,l)
);
}
);
userData = {
assembly = "PUSHB[ ]	/* 4 values pushed */
6 3 1 50 
CALL[ ]	/* CallFunction */";
};
width = 485;
}
);
note = less;
unicode = 60;
},
{
glyphname = equal;
layers = (
{
layerId = m01;
shapes = (
{
closed = 1;
nodes = (
(506,546,l),
(57,546,l),
(57,428,l),
(506,428,l)
);
},
{
closed = 1;
nodes = (
(506,294,l),
(57,294,l),
(57,176,l),
(506,176,l)
);
}
);
userData = {
assembly = "MPPEM[ ]	/* MeasurePixelPerEm */
PUSHB[ ]	/* 1 value pushed */
25 
LT[ ]	/* LessThan */
IF[ ]	/* If */
NPUSHB[ ]	/* 20 values pushed */
0 2 5 1 3 2 3 99 4 1 1 1 0 95 0 0 0 41 1 78 
ELSE[ ]	/* Else */
NPUSHB[ ]	/* 26 values pushed */
0 0 4 1 1 2 0 1 103 0 2 3 3 2 87 0 2 2 3 95 5 1 3 2 3 79 
EIF[ ]	/* EndIf */
NPUSHB[ ]	/* 18 values pushed */
4 4 0 0 4 7 4 7 6 5 0 3 0 3 17 6 8 23 
CALL[ ]	/* CallFunction */";
};
width = 563;
}
);
note = equal;
unicode = 61;
},
{
glyphname = greater;
layers = (
{
layerId = m01;
shapes = (
{
closed = 1;
nodes = (
(458,330,l),
(458,397,l),
(57,640,l),
(57,501,l),
(292,359,l),
(57,218,l),
(57,81,l)
);
}
);
userData = {
assembly = "PUSHB[ ]	/* 4 values pushed */
6 3 1 50 
CALL[ ]	/* CallFunction */";
};
width = 485;
}
);
note = greater;
unicode = 62;
},
{
glyphname = at;
layers = (
{
layerId = m01;
shapes = (
{
closed = 1;
nodes = (
(407,356,o),
(436,392,o),
(479,412,o),
(508,411,qs),
(533,410,o),
(568,388,o),
(588,352,o),
(596,306,o),
(594,281,qs),
(592,258,o),
(578,211,o),
(551,173,o),
(512,150,o),
(485,150,qs),
(458,151,o),
(420,174,o),
(397,211,o),
(388,258,o),
(389,282,qs),
(391,308,o)
);
},
{
closed = 1;
nodes = (
(627,-152,q),
(612,-41,l),
(597,-44,o),
(571,-49,o),
(544,-52,o),
(512,-54,o),
(492,-54,qs),
(418,-54,o),
(298,-5,o),
(216,84,o),
(174,206,o),
(177,280,qs),
(180,352,o),
(226,478,o),
(269,523,qs),
(312,568,o),
(444,621,o),
(527,621,qs),
(594,621,o),
(706,580,o),
(747,537,qs),
(774,510,o),
(812,436,o),
(822,392,qs),
(827,368,o),
(831,295,o),
(827,259,qs),
(824,238,o),
(814,197,o),
(796,165,o),
(769,147,o),
(749,147,qs),
(726,148,o),
(702,172,o),
(693,207,o),
(695,246,o),
(697,262,qs),
(704,318,o),
(718,427,o),
(728,482,q),
(649,493,l),
(629,449,l),
(614,479,o),
(549,508,o),
(516,510,qs),
(471,512,o),
(399,492,o),
(369,468,qs),
(326,434,o),
(278,326,o),
(279,263,qs),
(280,219,o),
(306,142,o),
(354,84,o),
(425,50,o),
(470,50,qs),
(514,50,o),
(592,84,o),
(618,116,q),
(638,76,o),
(713,45,o),
(751,45,qs),
(796,45,o),
(863,82,o),
(885,112,qs),
(910,144,o),
(937,234,o),
(940,281,qs),
(948,392,o),
(876,572,o),
(807,632,qs),
(699,724,o),
(532,729,qs),
(432,731,o),
(250,671,o),
(182,597,qs),
(128,539,o),
(63,379,o),
(59,283,qs),
(55,184,o),
(112,18,o),
(224,-102,o),
(385,-168,o),
(485,-168,qs),
(563,-168,o)
);
}
);
userData = {
assembly = "MPPEM[ ]	/* MeasurePixelPerEm */
PUSHB[ ]	/* 1 value pushed */
46 
LT[ ]	/* LessThan */
IF[ ]	/* If */
NPUSHB[ ]	/* 25 values pushed */
64 63 62 3 1 6 36 0 2 0 1 45 1 4 0 102 1 9 4 103 1 2 9 5 76 
ELSE[ ]	/* Else */
NPUSHB[ ]	/* 25 values pushed */
64 63 62 3 1 6 36 0 2 0 1 45 1 5 0 102 1 9 4 103 1 2 9 5 76 
EIF[ ]	/* EndIf */
MPPEM[ ]	/* MeasurePixelPerEm */
PUSHB[ ]	/* 1 value pushed */
29 
LT[ ]	/* LessThan */
IF[ ]	/* If */
NPUSHB[ ]	/* 39 values pushed */
7 1 0 5 1 4 9 0 4 105 0 9 10 1 2 9 2 101 0 8 8 3 97 0 3 3 46 77 0 1 1 6 97 0 6 6 41 1 78 
ELSE[ ]	/* Else */
MPPEM[ ]	/* MeasurePixelPerEm */
PUSHB[ ]	/* 1 value pushed */
46 
LT[ ]	/* LessThan */
IF[ ]	/* If */
NPUSHB[ ]	/* 37 values pushed */
0 6 0 1 0 6 1 105 7 1 0 5 1 4 9 0 4 105 0 9 10 1 2 9 2 101 0 8 8 3 97 0 3 3 46 8 78 
ELSE[ ]	/* Else */
MPPEM[ ]	/* MeasurePixelPerEm */
PUSHB[ ]	/* 1 value pushed */
50 
LT[ ]	/* LessThan */
IF[ ]	/* If */
NPUSHB[ ]	/* 42 values pushed */
0 6 0 1 0 6 1 105 0 5 4 0 5 89 7 1 0 0 4 9 0 4 105 0 9 10 1 2 9 2 101 0 8 8 3 97 0 3 3 46 8 78 
ELSE[ ]	/* Else */
NPUSHB[ ]	/* 48 values pushed */
0 3 0 8 6 3 8 105 0 6 0 1 0 6 1 105 0 5 4 0 5 89 7 1 0 0 4 9 0 4 105 0 9 2 2 9 89 0 9 9 2 97 10 1 2 9 2 81 
EIF[ ]	/* EndIf */
EIF[ ]	/* EndIf */
EIF[ ]	/* EndIf */
NPUSHB[ ]	/* 25 values pushed */
21 20 99 96 87 85 73 71 60 58 49 47 43 41 32 30 20 104 21 104 40 36 11 8 24 
CALL[ ]	/* CallFunction */";
};
width = 999;
}
);
note = at;
unicode = 64;
},
{
glyphname = bracketleft;
layers = (
{
layerId = m01;
shapes = (
{
closed = 1;
nodes = (
(327,-171,l),
(327,-55,l),
(210,-55,l),
(210,668,l),
(327,668,l),
(327,784,l),
(75,784,l),
(75,-171,l)
);
}
);
userData = {
assembly = "NPUSHB[ ]	/* 31 values pushed */
0 0 0 1 2 0 1 103 0 2 3 3 2 87 0 2 2 3 95 0 3 2 3 79 17 17 17 16 4 8 26 
CALL[ ]	/* CallFunction */";
};
width = 350;
}
);
note = bracketleft;
unicode = 91;
},
{
glyphname = bracketright;
layers = (
{
layerId = m01;
shapes = (
{
closed = 1;
nodes = (
(23,784,l),
(23,668,l),
(140,668,l),
(140,-55,l),
(23,-55,l),
(23,-171,l),
(275,-171,l),
(275,784,l)
);
}
);
userData = {
assembly = "NPUSHB[ ]	/* 31 values pushed */
0 3 0 2 1 3 2 103 0 1 0 0 1 87 0 1 1 0 95 0 0 1 0 79 17 17 17 16 4 8 26 
CALL[ ]	/* CallFunction */";
};
width = 350;
}
);
note = bracketright;
unicode = 93;
},
{
glyphname = backslash;
layers = (
{
layerId = m01;
shapes = (
{
closed = 1;
nodes = (
(162,784,l),
(27,784,l),
(329,-171,l),
(464,-171,l)
);
}
);
userData = {
assembly = "NPUSHB[ ]	/* 20 values pushed */
0 0 1 0 133 2 1 1 1 118 0 0 0 3 0 3 17 3 8 23 
CALL[ ]	/* CallFunction */";
};
width = 491;
}
);
note = backslash;
unicode = 92;
},
{
glyphname = asciicircum;
layers = (
{
layerId = m01;
shapes = (
{
closed = 1;
nodes = (
(311,709,l),
(209,709,l),
(47,460,l),
(175,460,l),
(261,604,l),
(345,460,l),
(477,460,l)
);
}
);
userData = {
assembly = "PUSHB[ ]	/* 2 values pushed */
6 100 
WCVTP[ ]	/* WriteCVTInPixels */
NPUSHB[ ]	/* 28 values pushed */
1 1 0 1 1 76 0 1 0 1 133 3 2 2 0 0 118 0 0 0 6 0 6 17 18 4 8 24 
CALL[ ]	/* CallFunction */
PUSHB[ ]	/* 2 values pushed */
6 0 
WCVTP[ ]	/* WriteCVTInPixels */";
};
width = 524;
}
);
note = asciicircum;
unicode = 94;
},
{
glyphname = underscore;
layers = (
{
layerId = m01;
shapes = (
{
closed = 1;
nodes = (
(434,-27,l),
(-15,-27,l),
(-15,-145,l),
(434,-145,l)
);
}
);
userData = {
assembly = "PUSHB[ ]	/* 2 values pushed */
6 100 
WCVTP[ ]	/* WriteCVTInPixels */
NPUSHB[ ]	/* 27 values pushed */
0 0 1 1 0 87 0 0 0 1 95 2 1 1 0 1 79 0 0 0 3 0 3 17 3 8 23 
CALL[ ]	/* CallFunction */
PUSHB[ ]	/* 2 values pushed */
6 0 
WCVTP[ ]	/* WriteCVTInPixels */";
};
width = 419;
}
);
note = underscore;
unicode = 95;
},
{
glyphname = braceleft;
layers = (
{
layerId = m01;
shapes = (
{
closed = 1;
nodes = (
(239,341,o),
(252,377,o),
(257,415,o),
(257,430,qs),
(257,605,ls),
(257,622,o),
(263,649,o),
(271,656,qs),
(283,668,o),
(313,668,qs),
(374,668,l),
(374,784,l),
(259,784,ls),
(226,784,o),
(176,771,o),
(159,756,qs),
(142,741,o),
(124,692,o),
(124,658,qs),
(124,460,ls),
(124,449,o),
(122,416,o),
(110,386,o),
(83,365,o),
(58,365,qs),
(25,365,l),
(25,249,l),
(58,249,ls),
(83,249,o),
(110,227,o),
(122,197,o),
(124,164,o),
(124,154,qs),
(124,-44,ls),
(124,-78,o),
(142,-128,o),
(159,-143,qs),
(193,-171,o),
(259,-171,qs),
(374,-171,l),
(374,-55,l),
(313,-55,ls),
(283,-55,o),
(271,-43,qs),
(263,-35,o),
(257,-8,o),
(257,9,qs),
(257,183,ls),
(257,198,o),
(252,236,o),
(239,272,o),
(216,301,o),
(198,307,q),
(216,313,o)
);
}
);
userData = {
assembly = "NPUSHB[ ]	/* 41 values pushed */
0 4 0 5 3 4 5 105 0 3 0 2 0 3 2 105 0 0 1 1 0 89 0 0 0 1 95 0 1 0 1 79 33 42 33 41 33 42 6 8 28 
CALL[ ]	/* CallFunction */";
};
width = 421;
}
);
note = braceleft;
unicode = 123;
},
{
glyphname = bar;
layers = (
{
layerId = m01;
shapes = (
{
closed = 1;
nodes = (
(202,800,l),
(75,800,l),
(75,-174,l),
(202,-174,l)
);
}
);
userData = {
assembly = "NPUSHB[ ]	/* 27 values pushed */
0 0 1 1 0 87 0 0 0 1 95 2 1 1 0 1 79 0 0 0 3 0 3 17 3 8 23 
CALL[ ]	/* CallFunction */";
};
width = 277;
}
);
note = bar;
unicode = 124;
},
{
glyphname = braceright;
layers = (
{
layerId = m01;
shapes = (
{
closed = 1;
nodes = (
(182,272,o),
(170,236,o),
(165,198,o),
(165,183,qs),
(165,9,ls),
(165,-28,o),
(150,-43,qs),
(138,-55,o),
(108,-55,qs),
(47,-55,l),
(47,-171,l),
(162,-171,ls),
(228,-171,o),
(262,-143,qs),
(297,-111,o),
(297,-44,qs),
(297,154,ls),
(297,164,o),
(299,197,o),
(311,227,o),
(338,249,o),
(363,249,qs),
(396,249,l),
(396,365,l),
(363,365,ls),
(338,365,o),
(311,386,o),
(299,416,o),
(297,449,o),
(297,460,qs),
(297,658,ls),
(297,692,o),
(279,741,o),
(262,756,qs),
(245,771,o),
(195,784,o),
(162,784,qs),
(47,784,l),
(47,668,l),
(108,668,ls),
(138,668,o),
(150,656,qs),
(158,649,o),
(165,622,o),
(165,605,qs),
(165,430,ls),
(165,415,o),
(170,377,o),
(182,341,o),
(205,313,o),
(223,307,q),
(205,301,o)
);
}
);
userData = {
assembly = "NPUSHB[ ]	/* 41 values pushed */
0 1 0 0 2 1 0 105 0 2 0 3 5 2 3 105 0 5 4 4 5 89 0 5 5 4 95 0 4 5 4 79 33 40 33 42 33 42 6 8 28 
CALL[ ]	/* CallFunction */";
};
width = 421;
}
);
note = braceright;
unicode = 125;
},
{
glyphname = Euro;
layers = (
{
layerId = m01;
shapes = (
{
closed = 1;
nodes = (
(656,41,o),
(699,88,q),
(625,187,l),
(590,152,o),
(517,119,o),
(467,120,qs),
(432,120,o),
(367,143,o),
(342,169,q),
(331,178,o),
(315,204,o),
(307,218,q),
(513,218,l),
(532,325,l),
(280,325,l),
(278,354,o),
(280,382,q),
(543,382,l),
(562,490,l),
(306,490,l),
(311,501,o),
(322,519,o),
(330,527,q),
(356,559,o),
(425,587,o),
(463,587,qs),
(513,586,o),
(581,552,o),
(617,519,q),
(694,620,l),
(650,668,o),
(539,714,o),
(464,714,qs),
(404,714,o),
(299,683,o),
(257,651,qs),
(220,622,o),
(166,541,o),
(151,490,q),
(63,490,l),
(44,382,l),
(132,382,l),
(132,325,l),
(57,325,l),
(37,218,l),
(150,218,l),
(165,166,o),
(219,85,o),
(256,56,qs),
(297,25,o),
(404,-8,o),
(467,-8,qs),
(543,-8,o)
);
}
);
userData = {
assembly = "NPUSHB[ ]	/* 91 values pushed */
22 1 6 5 23 1 4 6 49 1 11 1 50 1 0 11 4 76 7 1 4 8 1 3 2 4 3 103 9 1 2 10 1 1 11 2 1 103 0 6 6 5 97 0 5 5 46 77 0 11 11 0 97 12 1 0 0 50 0 78 1 0 47 45 40 39 38 37 35 34 33 32 27 25 20 18 13 12 11 10 9 8 7 6 0 52 1 52 13 8 22 
CALL[ ]	/* CallFunction */";
};
width = 736;
}
);
note = Euro;
unicode = 8364;
},
{
glyphname = quotedblbase;
kernLeft = period;
kernRight = period;
layers = (
{
layerId = m01;
shapes = (
{
closed = 1;
nodes = (
(84,-89,o),
(55,-110,q),
(89,-156,l),
(119,-146,o),
(173,-103,o),
(214,-47,o),
(238,17,o),
(238,49,qs),
(238,70,o),
(227,111,o),
(205,142,o),
(170,161,o),
(145,161,qs),
(107,161,o),
(58,118,o),
(58,80,qs),
(58,45,o),
(98,1,o),
(133,-1,q),
(125,-36,o)
);
},
{
closed = 1;
nodes = (
(305,-89,o),
(276,-110,q),
(310,-156,l),
(340,-146,o),
(394,-103,o),
(435,-47,o),
(459,17,o),
(459,49,qs),
(459,70,o),
(449,111,o),
(427,142,o),
(392,161,o),
(367,161,qs),
(329,161,o),
(279,118,o),
(279,80,qs),
(279,45,o),
(319,1,o),
(354,-1,q),
(346,-36,o)
);
}
);
userData = {
assembly = "NPUSHB[ ]	/* 27 values pushed */
37 36 17 16 4 0 73 3 1 1 1 0 97 2 1 0 0 39 0 78 36 29 36 16 4 8 26 
CALL[ ]	/* CallFunction */";
};
width = 515;
}
);
note = quotedblbase;
unicode = 8222;
},
{
glyphname = quotesinglbase;
layers = (
{
layerId = m01;
shapes = (
{
closed = 1;
nodes = (
(84,-89,o),
(55,-110,q),
(89,-156,l),
(119,-146,o),
(172,-103,o),
(213,-47,o),
(237,17,o),
(237,49,qs),
(237,70,o),
(227,111,o),
(205,142,o),
(170,161,o),
(145,161,qs),
(107,161,o),
(58,118,o),
(58,80,qs),
(58,45,o),
(98,1,o),
(132,-1,q),
(125,-36,o)
);
}
);
userData = {
assembly = "NPUSHB[ ]	/* 21 values pushed */
17 16 2 0 73 0 1 1 0 97 0 0 0 39 0 78 36 16 2 8 24 
CALL[ ]	/* CallFunction */";
};
width = 293;
}
);
note = quotesinglbase;
unicode = 8218;
},
{
glyphname = quotedblright;
layers = (
{
layerId = m01;
shapes = (
{
closed = 1;
nodes = (
(84,481,o),
(55,461,q),
(89,414,l),
(119,424,o),
(173,466,o),
(214,522,o),
(238,586,o),
(238,618,qs),
(238,640,o),
(227,680,o),
(205,712,o),
(170,731,o),
(145,731,qs),
(107,731,o),
(58,688,o),
(58,649,qs),
(58,614,o),
(98,571,o),
(133,569,q),
(125,535,o)
);
},
{
closed = 1;
nodes = (
(305,481,o),
(276,461,q),
(310,414,l),
(340,424,o),
(394,466,o),
(435,522,o),
(459,586,o),
(459,618,qs),
(459,640,o),
(449,680,o),
(427,712,o),
(392,731,o),
(367,731,qs),
(329,731,o),
(279,688,o),
(279,649,qs),
(279,614,o),
(319,571,o),
(354,569,q),
(346,535,o)
);
}
);
userData = {
assembly = "PUSHB[ ]	/* 7 values pushed */
37 36 17 16 4 0 73 
MPPEM[ ]	/* MeasurePixelPerEm */
PUSHB[ ]	/* 1 value pushed */
35 
LT[ ]	/* LessThan */
IF[ ]	/* If */
NPUSHB[ ]	/* 13 values pushed */
2 1 0 0 1 97 3 1 1 1 46 0 78 
ELSE[ ]	/* Else */
NPUSHB[ ]	/* 19 values pushed */
3 1 1 0 0 1 89 3 1 1 1 0 97 2 1 0 1 0 81 
EIF[ ]	/* EndIf */
PUSHB[ ]	/* 7 values pushed */
36 29 36 16 4 8 26 
CALL[ ]	/* CallFunction */";
};
width = 515;
}
);
note = quotedblright;
unicode = 8221;
},
{
glyphname = quoteright;
layers = (
{
layerId = m01;
shapes = (
{
closed = 1;
nodes = (
(84,481,o),
(55,461,q),
(89,414,l),
(119,424,o),
(172,466,o),
(213,522,o),
(237,586,o),
(237,618,qs),
(237,640,o),
(227,680,o),
(205,712,o),
(170,731,o),
(145,731,qs),
(107,731,o),
(58,688,o),
(58,649,qs),
(58,614,o),
(98,571,o),
(132,569,q),
(125,535,o)
);
}
);
userData = {
assembly = "PUSHB[ ]	/* 5 values pushed */
17 16 2 0 73 
MPPEM[ ]	/* MeasurePixelPerEm */
PUSHB[ ]	/* 1 value pushed */
35 
LT[ ]	/* LessThan */
IF[ ]	/* If */
NPUSHB[ ]	/* 11 values pushed */
0 0 0 1 97 0 1 1 46 0 78 
ELSE[ ]	/* Else */
NPUSHB[ ]	/* 16 values pushed */
0 1 0 0 1 89 0 1 1 0 97 0 0 1 0 81 
EIF[ ]	/* EndIf */
PUSHB[ ]	/* 5 values pushed */
36 16 2 8 24 
CALL[ ]	/* CallFunction */";
};
width = 293;
}
);
note = quoteright;
unicode = 8217;
},
{
glyphname = quotedblleft;
layers = (
{
layerId = m01;
shapes = (
{
closed = 1;
nodes = (
(431,690,o),
(460,710,q),
(426,758,l),
(395,747,o),
(341,704,o),
(301,649,o),
(277,584,o),
(277,553,qs),
(277,532,o),
(287,491,o),
(310,459,o),
(345,439,o),
(370,439,qs),
(407,439,o),
(457,482,o),
(457,522,qs),
(457,556,o),
(416,599,o),
(381,601,q),
(389,636,o)
);
},
{
closed = 1;
nodes = (
(210,690,o),
(239,710,q),
(205,758,l),
(174,747,o),
(120,704,o),
(80,649,o),
(56,584,o),
(56,553,qs),
(56,532,o),
(66,491,o),
(88,459,o),
(123,439,o),
(148,439,qs),
(186,439,o),
(236,482,o),
(236,522,qs),
(236,556,o),
(195,599,o),
(160,601,q),
(168,636,o)
);
}
);
userData = {
assembly = "NPUSHB[ ]	/* 33 values pushed */
37 36 17 16 4 0 74 2 1 0 1 1 0 89 2 1 0 0 1 97 3 1 1 0 1 81 36 29 36 16 4 8 26 
CALL[ ]	/* CallFunction */";
};
width = 515;
}
);
note = quotedblleft;
unicode = 8220;
},
{
glyphname = quoteleft;
layers = (
{
layerId = m01;
shapes = (
{
closed = 1;
nodes = (
(209,690,o),
(238,710,q),
(204,758,l),
(174,747,o),
(120,704,o),
(80,649,o),
(56,584,o),
(56,553,qs),
(56,532,o),
(66,491,o),
(88,459,o),
(123,439,o),
(148,439,qs),
(185,439,o),
(235,482,o),
(235,522,qs),
(235,556,o),
(194,599,o),
(160,601,q),
(168,636,o)
);
}
);
userData = {
assembly = "NPUSHB[ ]	/* 26 values pushed */
17 16 2 0 74 0 0 1 1 0 89 0 0 0 1 97 0 1 0 1 81 36 16 2 8 24 
CALL[ ]	/* CallFunction */";
};
width = 293;
}
);
note = quoteleft;
unicode = 8216;
},
{
glyphname = minus;
layers = (
{
layerId = m01;
shapes = (
{
closed = 1;
nodes = (
(511,420,l),
(62,420,l),
(62,302,l),
(511,302,l)
);
}
);
userData = {
assembly = "NPUSHB[ ]	/* 27 values pushed */
0 0 1 1 0 87 0 0 0 1 95 2 1 1 0 1 79 0 0 0 3 0 3 17 3 6 23 
CALL[ ]	/* CallFunction */";
};
width = 573;
}
);
note = minus;
unicode = 8722;
},
{
glyphname = hyphen;
layers = (
{
layerId = m01;
shapes = (
{
closed = 1;
nodes = (
(62,350,l),
(62,232,l),
(391,232,l),
(391,350,l)
);
}
);
userData = {
assembly = "NPUSHB[ ]	/* 21 values pushed */
0 1 0 0 1 87 0 1 1 0 95 0 0 1 0 79 17 16 2 8 24 
CALL[ ]	/* CallFunction */";
};
width = 453;
}
);
note = hyphen;
unicode = 45;
},
{
glyphname = endash;
layers = (
{
layerId = m01;
shapes = (
{
closed = 1;
nodes = (
(62,350,l),
(62,232,l),
(561,232,l),
(561,350,l)
);
}
);
userData = {
assembly = "NPUSHB[ ]	/* 21 values pushed */
0 1 0 0 1 87 0 1 1 0 95 0 0 1 0 79 17 16 2 8 24 
CALL[ ]	/* CallFunction */";
};
width = 623;
}
);
note = endash;
unicode = 8211;
},
{
glyphname = emdash;
layers = (
{
layerId = m01;
shapes = (
{
closed = 1;
nodes = (
(62,350,l),
(62,232,l),
(785,232,l),
(785,350,l)
);
}
);
userData = {
assembly = "NPUSHB[ ]	/* 21 values pushed */
0 1 0 0 1 87 0 1 1 0 95 0 0 1 0 79 17 16 2 8 24 
CALL[ ]	/* CallFunction */";
};
width = 847;
}
);
note = emdash;
unicode = 8212;
},
{
glyphname = grave;
layers = (
{
layerId = m01;
shapes = (
{
closed = 1;
nodes = (
(49,769,l),
(185,599,l),
(297,599,l),
(189,769,l)
);
}
);
userData = {
assembly = "PUSHB[ ]	/* 2 values pushed */
6 100 
WCVTP[ ]	/* WriteCVTInPixels */
NPUSHB[ ]	/* 21 values pushed */
0 1 0 0 1 87 0 1 1 0 95 0 0 1 0 79 17 16 2 8 24 
CALL[ ]	/* CallFunction */
PUSHB[ ]	/* 2 values pushed */
6 0 
WCVTP[ ]	/* WriteCVTInPixels */";
};
width = 387;
}
);
note = grave;
unicode = 96;
},
{
glyphname = acute;
layers = (
{
layerId = m01;
shapes = (
{
closed = 1;
nodes = (
(202,599,l),
(338,769,l),
(198,769,l),
(90,599,l)
);
}
);
userData = {
assembly = "PUSHB[ ]	/* 2 values pushed */
6 100 
WCVTP[ ]	/* WriteCVTInPixels */
NPUSHB[ ]	/* 21 values pushed */
0 0 1 1 0 87 0 0 0 1 95 0 1 0 1 79 17 16 2 8 24 
CALL[ ]	/* CallFunction */
PUSHB[ ]	/* 2 values pushed */
6 0 
WCVTP[ ]	/* WriteCVTInPixels */";
};
width = 387;
}
);
note = acute;
unicode = 180;
},
{
glyphname = guillemotright;
layers = (
{
layerId = m01;
shapes = (
{
closed = 1;
nodes = (
(47,82,l),
(191,82,l),
(319,271,l),
(191,460,l),
(47,460,l),
(177,271,l)
);
},
{
closed = 1;
nodes = (
(270,82,l),
(414,82,l),
(543,271,l),
(414,460,l),
(270,460,l),
(401,271,l)
);
}
);
userData = {
assembly = "NPUSHB[ ]	/* 35 values pushed */
11 8 5 2 4 1 0 1 76 2 1 0 1 1 0 87 2 1 0 0 1 95 3 1 1 0 1 79 18 18 18 16 4 8 26 
CALL[ ]	/* CallFunction */";
};
width = 570;
}
);
note = guillemotright;
unicode = 187;
},
{
glyphname = guilsinglright;
layers = (
{
layerId = m01;
shapes = (
{
closed = 1;
nodes = (
(47,82,l),
(192,82,l),
(320,271,l),
(192,460,l),
(47,460,l),
(178,271,l)
);
}
);
userData = {
assembly = "NPUSHB[ ]	/* 28 values pushed */
5 2 2 1 0 1 76 0 0 1 1 0 87 0 0 0 1 95 0 1 0 1 79 18 16 2 8 24 
CALL[ ]	/* CallFunction */";
};
width = 347;
}
);
note = guilsinglright;
unicode = 8250;
},
{
glyphname = guillemotleft;
layers = (
{
layerId = m01;
shapes = (
{
closed = 1;
nodes = (
(378,460,l),
(250,271,l),
(378,82,l),
(523,82,l),
(392,271,l),
(523,460,l)
);
},
{
closed = 1;
nodes = (
(155,460,l),
(27,271,l),
(155,82,l),
(299,82,l),
(168,271,l),
(299,460,l)
);
}
);
userData = {
assembly = "NPUSHB[ ]	/* 33 values pushed */
9 3 2 0 1 1 76 3 1 1 0 0 1 87 3 1 1 1 0 95 2 1 0 1 0 79 18 18 18 17 4 8 26 
CALL[ ]	/* CallFunction */";
};
width = 570;
}
);
note = guillemotleft;
unicode = 171;
},
{
glyphname = guilsinglleft;
layers = (
{
layerId = m01;
shapes = (
{
closed = 1;
nodes = (
(155,460,l),
(27,271,l),
(155,82,l),
(300,82,l),
(169,271,l),
(300,460,l)
);
}
);
userData = {
assembly = "NPUSHB[ ]	/* 27 values pushed */
3 1 0 1 1 76 0 1 0 0 1 87 0 1 1 0 95 0 0 1 0 79 18 17 2 8 24 
CALL[ ]	/* CallFunction */";
};
width = 347;
}
);
note = guilsinglleft;
unicode = 8249;
},
{
glyphname = uni00AD;
layers = (
{
layerId = m01;
shapes = (
{
closed = 1;
nodes = (
(62,350,l),
(62,232,l),
(391,232,l),
(391,350,l)
);
}
);
userData = {
assembly = "NPUSHB[ ]	/* 21 values pushed */
0 1 0 0 1 87 0 1 1 0 95 0 0 1 0 79 17 16 2 8 24 
CALL[ ]	/* CallFunction */";
};
width = 453;
}
);
note = uni00AD;
unicode = 173;
},
{
glyphname = ellipsis;
layers = (
{
layerId = m01;
shapes = (
{
closed = 1;
nodes = (
(45,120,o),
(45,78,qs),
(45,36,o),
(94,-8,o),
(132,-8,qs),
(170,-8,o),
(218,36,o),
(218,78,qs),
(218,120,o),
(170,166,o),
(132,166,qs),
(94,166,o)
);
},
{
closed = 1;
nodes = (
(306,120,o),
(306,78,qs),
(306,36,o),
(355,-8,o),
(393,-8,qs),
(431,-8,o),
(479,36,o),
(479,78,qs),
(479,120,o),
(431,166,o),
(393,166,qs),
(355,166,o)
);
},
{
closed = 1;
nodes = (
(567,120,o),
(567,78,qs),
(567,36,o),
(616,-8,o),
(654,-8,qs),
(692,-8,o),
(740,36,o),
(740,78,qs),
(740,120,o),
(692,166,o),
(654,166,qs),
(616,166,o)
);
}
);
userData = {
assembly = "NPUSHB[ ]	/* 45 values pushed */
8 4 7 2 6 5 0 0 1 97 5 3 2 1 1 50 1 78 25 24 13 12 1 0 31 29 24 35 25 35 19 17 12 23 13 23 7 5 0 11 1 11 9 8 22 
CALL[ ]	/* CallFunction */";
};
width = 785;
}
);
note = ellipsis;
unicode = 8230;
},
{
glyphname = uni0445;
layers = (
{
layerId = m01;
shapes = (
{
closed = 1;
nodes = (
(173,527,l),
(11,527,l),
(176,268,l),
(2,0,l),
(160,0,l),
(265,175,l),
(374,0,l),
(533,0,l),
(355,266,l),
(524,527,l),
(364,527,l),
(270,356,l)
);
}
);
userData = {
assembly = "NPUSHB[ ]	/* 29 values pushed */
11 8 5 2 4 1 0 1 76 3 1 0 0 22 77 2 1 1 1 21 1 78 18 18 18 16 4 7 26 
CALL[ ]	/* CallFunction */";
};
width = 535;
}
);
note = uni0445;
unicode = 1093;
},
{
glyphname = uni0431;
layers = (
{
layerId = m01;
shapes = (
{
closed = 1;
nodes = (
(51,227,o),
(72,156,o),
(107,90,o),
(134,64,qs),
(167,31,o),
(260,-7,o),
(320,-8,qs),
(381,-9,o),
(480,28,o),
(516,63,qs),
(594,135,o),
(594,265,qs),
(594,319,o),
(558,410,o),
(524,441,qs),
(493,471,o),
(408,501,o),
(357,501,qs),
(306,501,o),
(212,468,o),
(177,429,q),
(177,463,o),
(198,526,o),
(218,547,qs),
(234,565,o),
(277,585,o),
(307,589,qs),
(341,594,o),
(412,599,o),
(447,602,qs),
(476,604,o),
(533,610,o),
(560,622,q),
(560,755,l),
(544,750,o),
(507,743,o),
(467,738,o),
(426,734,o),
(406,732,qs),
(365,728,o),
(279,720,o),
(236,707,qs),
(203,696,o),
(150,664,o),
(130,642,qs),
(103,614,o),
(69,544,o),
(49,466,o),
(42,381,o),
(42,338,qs),
(42,302,o)
);
},
{
closed = 1;
nodes = (
(239,140,o),
(208,178,o),
(193,225,o),
(194,250,qs),
(195,279,o),
(216,324,o),
(253,356,o),
(301,372,o),
(329,372,qs),
(386,371,o),
(455,302,o),
(453,244,qs),
(453,220,o),
(436,175,o),
(403,138,o),
(355,117,o),
(323,117,qs),
(290,117,o)
);
}
);
userData = {
assembly = "NPUSHB[ ]	/* 11 values pushed */
29 1 5 2 1 76 17 16 2 0 74 
MPPEM[ ]	/* MeasurePixelPerEm */
PUSHB[ ]	/* 1 value pushed */
33 
LT[ ]	/* LessThan */
IF[ ]	/* If */
NPUSHB[ ]	/* 26 values pushed */
1 1 0 2 0 133 0 2 0 5 4 2 5 105 6 1 4 4 3 97 0 3 3 30 3 78 
ELSE[ ]	/* Else */
NPUSHB[ ]	/* 30 values pushed */
0 0 1 0 133 0 1 2 1 133 0 2 0 5 4 2 5 105 6 1 4 4 3 97 0 3 3 30 3 78 
EIF[ ]	/* EndIf */
NPUSHB[ ]	/* 19 values pushed */
52 51 60 58 51 68 52 68 44 42 33 31 22 21 20 19 7 7 22 
CALL[ ]	/* CallFunction */";
};
width = 628;
}
);
note = uni0431;
unicode = 1073;
},
{
glyphname = uni0432;
kernLeft = uni0432;
layers = (
{
layerId = m01;
shapes = (
{
closed = 1;
nodes = (
(56,0,l),
(308,0,ls),
(354,-1,o),
(440,13,o),
(473,36,qs),
(496,54,o),
(530,111,o),
(532,152,qs),
(534,195,o),
(493,263,o),
(450,278,q),
(483,297,o),
(514,357,o),
(514,387,qs),
(514,422,o),
(490,475,o),
(470,491,qs),
(453,505,o),
(413,520,o),
(369,526,o),
(323,527,o),
(302,527,qs),
(56,527,l)
);
},
{
closed = 1;
nodes = (
(197,220,l),
(325,220,ls),
(337,220,o),
(362,216,o),
(380,206,o),
(391,186,o),
(391,171,qs),
(391,154,o),
(375,132,o),
(350,122,o),
(321,119,o),
(308,119,qs),
(197,119,l)
);
},
{
closed = 1;
nodes = (
(197,412,l),
(305,412,ls),
(317,412,o),
(342,409,o),
(364,400,o),
(378,383,o),
(378,367,qs),
(378,340,o),
(342,319,o),
(318,319,qs),
(197,319,l)
);
}
);
userData = {
assembly = "NPUSHB[ ]	/* 65 values pushed */
11 1 3 4 1 76 8 1 4 0 3 2 4 3 103 0 5 5 0 95 6 1 0 0 22 77 7 1 2 2 1 95 0 1 1 21 1 78 37 36 24 23 2 0 45 43 36 46 37 46 34 32 23 35 24 35 21 19 0 22 2 22 9 7 22 
CALL[ ]	/* CallFunction */";
};
width = 571;
}
);
note = uni0432;
unicode = 1074;
},
{
glyphname = uni0433;
kernLeft = uni0432;
kernRight = uni0433;
layers = (
{
layerId = m01;
shapes = (
{
closed = 1;
nodes = (
(56,0,l),
(197,0,l),
(197,405,l),
(453,405,l),
(453,527,l),
(56,527,l)
);
}
);
userData = {
assembly = "NPUSHB[ ]	/* 28 values pushed */
0 0 0 2 95 3 1 2 2 22 77 0 1 1 21 1 78 0 0 0 5 0 5 17 17 4 7 24 
CALL[ ]	/* CallFunction */";
};
width = 474;
}
);
note = uni0433;
unicode = 1075;
},
{
glyphname = uni0434;
kernRight = uni0434;
layers = (
{
layerId = m01;
shapes = (
{
closed = 1;
nodes = (
(120,460,o),
(119,333,o),
(112,266,qs),
(110,248,o),
(102,194,o),
(93,170,qs),
(85,149,o),
(59,122,o),
(34,122,qs),
(14,122,l),
(14,-145,l),
(156,-145,l),
(156,0,l),
(489,0,l),
(489,-145,l),
(630,-145,l),
(630,122,l),
(561,122,l),
(561,527,l),
(122,527,l)
);
},
{
closed = 1;
nodes = (
(234,155,o),
(246,240,o),
(248,278,qs),
(250,310,o),
(253,374,o),
(253,405,q),
(419,405,l),
(419,122,l),
(215,122,l)
);
}
);
userData = {
assembly = "NPUSHB[ ]	/* 53 values pushed */
3 1 1 0 1 83 0 6 6 5 95 8 1 5 5 22 77 9 7 4 3 0 0 2 95 0 2 2 21 2 78 20 20 0 0 20 28 20 28 22 21 0 19 0 19 33 17 17 17 17 10 7 27 
CALL[ ]	/* CallFunction */";
};
width = 644;
}
);
note = uni0434;
unicode = 1076;
},
{
glyphname = uni0436;
layers = (
{
layerId = m01;
shapes = (
{
closed = 1;
nodes = (
(679,0,l),
(846,0,l),
(684,277,l),
(834,527,l),
(672,527,l),
(564,322,l),
(495,322,l),
(495,527,l),
(354,527,l),
(354,322,l),
(285,322,l),
(177,527,l),
(14,527,l),
(164,277,l),
(2,0,l),
(170,0,l),
(279,200,l),
(354,200,l),
(354,0,l),
(495,0,l),
(495,200,l),
(570,200,l)
);
}
);
userData = {
assembly = "NPUSHB[ ]	/* 51 values pushed */
18 7 2 1 4 1 76 6 1 4 10 9 2 1 0 4 1 103 7 5 2 3 3 22 77 8 2 2 0 0 21 0 78 0 0 0 21 0 21 18 17 17 17 17 18 17 17 17 11 7 31 
CALL[ ]	/* CallFunction */";
};
width = 848;
}
);
note = uni0436;
unicode = 1078;
},
{
glyphname = uni043A;
kernLeft = uni0432;
layers = (
{
layerId = m01;
shapes = (
{
closed = 1;
nodes = (
(390,0,l),
(554,0,l),
(386,277,l),
(542,527,l),
(381,527,l),
(267,323,l),
(197,323,l),
(197,527,l),
(56,527,l),
(56,0,l),
(197,0,l),
(197,201,l),
(272,201,l)
);
}
);
userData = {
assembly = "NPUSHB[ ]	/* 42 values pushed */
9 1 5 2 1 76 0 2 6 1 5 0 2 5 103 3 1 1 1 22 77 4 1 0 0 21 0 78 0 0 0 12 0 12 18 17 17 17 17 7 7 27 
CALL[ ]	/* CallFunction */";
};
width = 554;
}
);
note = uni043A;
unicode = 1082;
},
{
glyphname = uni0438;
kernLeft = uni0432;
layers = (
{
layerId = m01;
shapes = (
{
closed = 1;
nodes = (
(56,527,l),
(56,0,l),
(183,0,l),
(420,305,l),
(420,0,l),
(562,0,l),
(562,527,l),
(441,527,l),
(197,212,l),
(197,527,l)
);
}
);
userData = {
assembly = "NPUSHB[ ]	/* 27 values pushed */
5 0 2 1 0 1 76 3 1 0 0 22 77 2 1 1 1 21 1 78 17 18 17 17 4 7 26 
CALL[ ]	/* CallFunction */";
};
width = 617;
}
);
note = uni0438;
unicode = 1080;
},
{
glyphname = uni0439;
layers = (
{
layerId = m01;
shapes = (
{
closed = 1;
nodes = (
(505,653,o),
(516,735,q),
(392,735,l),
(386,707,o),
(346,675,o),
(317,675,qs),
(288,675,o),
(248,707,o),
(241,735,q),
(118,735,l),
(128,653,o),
(235,572,o),
(317,572,qs),
(399,572,o)
);
},
{
closed = 1;
nodes = (
(56,527,l),
(56,0,l),
(183,0,l),
(420,305,l),
(420,0,l),
(562,0,l),
(562,527,l),
(441,527,l),
(197,212,l),
(197,527,l)
);
}
);
userData = {
assembly = "PUSHB[ ]	/* 7 values pushed */
19 14 2 5 4 1 76 
MPPEM[ ]	/* MeasurePixelPerEm */
PUSHB[ ]	/* 1 value pushed */
22 
LT[ ]	/* LessThan */
IF[ ]	/* If */
NPUSHB[ ]	/* 29 values pushed */
3 1 1 2 2 1 112 0 2 8 1 0 4 2 0 106 7 1 4 4 22 77 6 1 5 5 21 5 78 
ELSE[ ]	/* Else */
NPUSHB[ ]	/* 28 values pushed */
3 1 1 2 1 133 0 2 8 1 0 4 2 0 106 7 1 4 4 22 77 6 1 5 5 21 5 78 
EIF[ ]	/* EndIf */
NPUSHB[ ]	/* 23 values pushed */
1 0 23 22 21 20 18 17 16 15 11 10 8 6 4 3 0 13 1 13 9 7 22 
CALL[ ]	/* CallFunction */";
};
width = 617;
}
);
note = uni0439;
unicode = 1081;
},
{
glyphname = uni043B;
layers = (
{
layerId = m01;
shapes = (
{
closed = 1;
nodes = (
(116,453,o),
(113,321,o),
(108,258,qs),
(106,233,o),
(98,186,o),
(83,147,o),
(52,124,o),
(26,124,qs),
(12,124,l),
(12,0,l),
(59,0,ls),
(97,0,o),
(169,20,o),
(195,49,qs),
(209,66,o),
(226,108,o),
(235,156,o),
(239,202,o),
(241,223,qs),
(244,269,o),
(247,359,o),
(249,404,q),
(398,404,l),
(398,0,l),
(539,0,l),
(539,527,l),
(118,527,l)
);
}
);
userData = {
assembly = "NPUSHB[ ]	/* 42 values pushed */
7 1 3 1 1 76 0 1 1 4 95 5 1 4 4 22 77 0 3 3 0 97 2 1 0 0 21 0 78 0 0 0 26 0 26 33 42 17 17 6 7 26 
CALL[ ]	/* CallFunction */";
};
width = 595;
}
);
note = uni043B;
unicode = 1083;
},
{
glyphname = uni043C;
kernLeft = uni0432;
layers = (
{
layerId = m01;
shapes = (
{
closed = 1;
nodes = (
(527,318,l),
(527,0,l),
(669,0,l),
(669,527,l),
(524,527,l),
(364,291,l),
(202,527,l),
(56,527,l),
(56,0,l),
(197,0,l),
(197,318,l),
(347,100,l),
(381,100,l)
);
}
);
userData = {
assembly = "NPUSHB[ ]	/* 43 values pushed */
11 6 1 3 4 1 1 76 5 1 4 1 0 1 4 0 128 2 1 1 1 22 77 3 1 0 0 21 0 78 0 0 0 12 0 12 17 18 17 18 6 7 26 
CALL[ ]	/* CallFunction */";
};
width = 724;
}
);
note = uni043C;
unicode = 1084;
},
{
glyphname = uni043D;
kernLeft = uni0432;
layers = (
{
layerId = m01;
shapes = (
{
closed = 1;
nodes = (
(56,527,l),
(56,0,l),
(197,0,l),
(197,202,l),
(402,202,l),
(402,0,l),
(543,0,l),
(543,527,l),
(402,527,l),
(402,324,l),
(197,324,l),
(197,527,l)
);
}
);
userData = {
assembly = "NPUSHB[ ]	/* 30 values pushed */
0 0 0 3 2 0 3 103 5 1 1 1 22 77 4 1 2 2 21 2 78 17 17 17 17 17 16 6 7 28 
CALL[ ]	/* CallFunction */";
};
width = 599;
}
);
note = uni043D;
unicode = 1085;
},
{
glyphname = uni043F;
kernLeft = uni0432;
layers = (
{
layerId = m01;
shapes = (
{
closed = 1;
nodes = (
(56,0,l),
(197,0,l),
(197,405,l),
(399,405,l),
(399,0,l),
(540,0,l),
(540,527,l),
(56,527,l)
);
}
);
userData = {
assembly = "NPUSHB[ ]	/* 30 values pushed */
0 1 1 3 95 4 1 3 3 22 77 2 1 0 0 21 0 78 0 0 0 7 0 7 17 17 17 5 7 25 
CALL[ ]	/* CallFunction */";
};
width = 596;
}
);
note = uni043F;
unicode = 1087;
},
{
glyphname = uni0442;
layers = (
{
layerId = m01;
shapes = (
{
closed = 1;
nodes = (
(177,0,l),
(318,0,l),
(318,405,l),
(494,405,l),
(494,527,l),
(3,527,l),
(3,405,l),
(177,405,l)
);
}
);
userData = {
assembly = "NPUSHB[ ]	/* 30 values pushed */
4 3 2 1 1 0 95 0 0 0 22 77 0 2 2 21 2 78 0 0 0 7 0 7 17 17 17 5 7 25 
CALL[ ]	/* CallFunction */";
};
width = 497;
}
);
note = uni0442;
unicode = 1090;
},
{
glyphname = uni0444;
kernLeft = uni0444;
layers = (
{
layerId = m01;
shapes = (
{
closed = 1;
nodes = (
(323,538,l),
(258,538,o),
(149,502,o),
(72,432,o),
(30,328,o),
(32,261,qs),
(33,194,o),
(78,94,o),
(156,27,o),
(261,-7,o),
(323,-8,q),
(323,-220,l),
(467,-220,l),
(467,-8,l),
(528,-7,o),
(634,27,o),
(712,94,o),
(756,194,o),
(758,261,qs),
(759,329,o),
(715,433,o),
(636,502,o),
(529,537,o),
(467,538,q),
(467,713,l),
(323,713,l)
);
},
{
closed = 1;
nodes = (
(254,115,o),
(176,192,o),
(176,265,qs),
(176,338,o),
(254,415,o),
(323,415,q),
(323,114,l)
);
},
{
closed = 1;
nodes = (
(535,415,o),
(613,338,o),
(614,265,qs),
(614,192,o),
(536,115,o),
(467,114,q),
(467,415,l)
);
}
);
userData = {
assembly = "MPPEM[ ]	/* MeasurePixelPerEm */
PUSHB[ ]	/* 1 value pushed */
14 
LT[ ]	/* LessThan */
IF[ ]	/* If */
NPUSHB[ ]	/* 36 values pushed */
10 1 5 5 20 77 9 1 6 6 0 97 4 1 0 0 29 77 8 1 7 7 1 97 3 1 1 1 30 77 0 2 2 24 2 78 
ELSE[ ]	/* Else */
NPUSHB[ ]	/* 36 values pushed */
9 1 6 6 0 97 4 1 0 0 29 77 8 1 7 7 1 97 3 1 1 1 30 77 0 2 2 5 95 10 1 5 5 20 2 78 
EIF[ ]	/* EndIf */
NPUSHB[ ]	/* 22 values pushed */
0 0 39 38 34 33 32 31 27 26 0 25 0 25 24 17 17 24 17 11 7 27 
CALL[ ]	/* CallFunction */";
};
width = 790;
}
);
note = uni0444;
unicode = 1092;
},
{
glyphname = uni0446;
kernLeft = uni0432;
kernRight = uni0434;
layers = (
{
layerId = m01;
shapes = (
{
closed = 1;
nodes = (
(475,-145,l),
(616,-145,l),
(616,122,l),
(543,122,l),
(543,527,l),
(402,527,l),
(402,122,l),
(197,122,l),
(197,527,l),
(56,527,l),
(56,0,l),
(475,0,l)
);
}
);
userData = {
assembly = "NPUSHB[ ]	/* 38 values pushed */
0 4 1 4 84 2 1 0 0 22 77 3 1 1 1 5 96 6 1 5 5 21 5 78 0 0 0 11 0 11 17 17 17 17 17 7 7 27 
CALL[ ]	/* CallFunction */";
};
width = 630;
}
);
note = uni0446;
unicode = 1094;
},
{
glyphname = uni0447;
kernLeft = uni0432;
layers = (
{
layerId = m01;
shapes = (
{
closed = 1;
nodes = (
(32,330,o),
(54,253,o),
(79,226,qs),
(108,195,o),
(190,172,o),
(234,170,qs),
(267,169,o),
(330,173,o),
(358,178,q),
(358,0,l),
(499,0,l),
(499,527,l),
(358,527,l),
(358,301,l),
(343,299,o),
(291,292,o),
(268,293,qs),
(239,294,o),
(203,305,o),
(182,327,o),
(174,365,o),
(174,393,qs),
(174,527,l),
(32,527,l),
(32,388,ls)
);
}
);
userData = {
assembly = "NPUSHB[ ]	/* 38 values pushed */
10 1 1 0 15 1 4 1 2 76 0 1 0 4 3 1 4 105 2 1 0 0 22 77 0 3 3 21 3 78 50 17 19 37 16 5 7 27 
CALL[ ]	/* CallFunction */";
};
width = 554;
}
);
note = uni0447;
unicode = 1095;
},
{
glyphname = uni0448;
kernLeft = uni0432;
layers = (
{
layerId = m01;
shapes = (
{
closed = 1;
nodes = (
(789,527,l),
(647,527,l),
(647,122,l),
(493,122,l),
(493,527,l),
(351,527,l),
(351,122,l),
(197,122,l),
(197,527,l),
(56,527,l),
(56,0,l),
(789,0,l)
);
}
);
userData = {
assembly = "NPUSHB[ ]	/* 34 values pushed */
4 2 2 0 0 22 77 3 1 1 1 5 96 6 1 5 5 21 5 78 0 0 0 11 0 11 17 17 17 17 17 7 7 27 
CALL[ ]	/* CallFunction */";
};
width = 844;
}
);
note = uni0448;
unicode = 1096;
},
{
glyphname = uni0449;
kernLeft = uni0432;
kernRight = uni0434;
layers = (
{
layerId = m01;
shapes = (
{
closed = 1;
nodes = (
(720,-145,l),
(862,-145,l),
(862,122,l),
(789,122,l),
(789,527,l),
(647,527,l),
(647,122,l),
(493,122,l),
(493,527,l),
(351,527,l),
(351,122,l),
(197,122,l),
(197,527,l),
(56,527,l),
(56,0,l),
(720,0,l)
);
}
);
userData = {
assembly = "NPUSHB[ ]	/* 42 values pushed */
0 6 1 6 84 4 2 2 0 0 22 77 5 3 2 1 1 7 96 8 1 7 7 21 7 78 0 0 0 15 0 15 17 17 17 17 17 17 17 9 7 29 
CALL[ ]	/* CallFunction */";
};
width = 876;
}
);
note = uni0449;
unicode = 1097;
},
{
glyphname = uni044A;
layers = (
{
layerId = m01;
shapes = (
{
closed = 1;
nodes = (
(127,0,l),
(354,0,ls),
(399,0,o),
(491,17,o),
(529,49,qs),
(558,73,o),
(590,140,o),
(592,188,qs),
(594,241,o),
(558,315,o),
(526,336,qs),
(499,356,o),
(427,372,o),
(383,372,qs),
(269,372,l),
(269,527,l),
(2,527,l),
(2,405,l),
(127,405,l)
);
},
{
closed = 1;
nodes = (
(269,251,l),
(374,251,ls),
(387,251,o),
(414,247,o),
(436,233,o),
(451,209,o),
(451,190,qs),
(451,170,o),
(437,142,o),
(413,126,o),
(381,119,o),
(363,119,qs),
(269,119,l)
);
}
);
userData = {
assembly = "NPUSHB[ ]	/* 51 values pushed */
0 1 0 5 4 1 5 103 6 1 3 3 0 95 0 0 0 22 77 7 1 4 4 2 95 0 2 2 21 2 78 20 19 0 0 30 28 19 31 20 31 0 18 0 18 42 33 17 8 7 25 
CALL[ ]	/* CallFunction */";
};
width = 621;
}
);
note = uni044A;
unicode = 1098;
},
{
glyphname = uni044B;
kernLeft = uni0432;
layers = (
{
layerId = m01;
shapes = (
{
closed = 1;
nodes = (
(56,0,l),
(265,0,ls),
(310,0,o),
(402,17,o),
(440,49,qs),
(469,73,o),
(501,140,o),
(503,188,qs),
(505,241,o),
(469,316,o),
(437,337,qs),
(409,357,o),
(337,372,o),
(294,372,qs),
(197,372,l),
(197,527,l),
(56,527,l)
);
},
{
closed = 1;
nodes = (
(197,251,l),
(284,251,ls),
(297,251,o),
(324,247,o),
(346,233,o),
(362,209,o),
(362,190,qs),
(363,148,o),
(310,119,o),
(274,119,qs),
(197,119,l)
);
},
{
closed = 1;
nodes = (
(565,527,l),
(565,0,l),
(706,0,l),
(706,527,l)
);
}
);
userData = {
assembly = "NPUSHB[ ]	/* 51 values pushed */
0 0 0 4 3 0 4 103 6 7 2 2 2 22 77 8 1 3 3 1 96 5 1 1 1 21 1 78 18 17 0 0 31 30 29 28 26 24 17 27 18 27 0 16 0 16 42 33 9 7 24 
CALL[ ]	/* CallFunction */";
};
width = 762;
}
);
note = uni044B;
unicode = 1099;
},
{
glyphname = uni044C;
kernLeft = uni0432;
layers = (
{
layerId = m01;
shapes = (
{
closed = 1;
nodes = (
(56,0,l),
(287,0,ls),
(333,0,o),
(424,17,o),
(463,49,qs),
(491,73,o),
(524,140,o),
(526,188,qs),
(528,241,o),
(492,316,o),
(461,337,qs),
(433,357,o),
(361,372,o),
(317,372,qs),
(197,372,l),
(197,527,l),
(56,527,l)
);
},
{
closed = 1;
nodes = (
(197,251,l),
(307,251,ls),
(320,251,o),
(347,247,o),
(370,233,o),
(385,209,o),
(385,190,qs),
(385,170,o),
(371,142,o),
(346,126,o),
(314,119,o),
(296,119,qs),
(197,119,l)
);
}
);
userData = {
assembly = "NPUSHB[ ]	/* 45 values pushed */
0 0 0 4 3 0 4 103 5 1 2 2 22 77 6 1 3 3 1 96 0 1 1 21 1 78 18 17 0 0 28 26 17 29 18 29 0 16 0 16 42 33 7 7 24 
CALL[ ]	/* CallFunction */";
};
width = 560;
}
);
note = uni044C;
unicode = 1100;
},
{
glyphname = uni044E;
kernLeft = uni0432;
layers = (
{
layerId = m01;
shapes = (
{
closed = 1;
nodes = (
(584,387,o),
(613,347,o),
(626,292,o),
(626,261,qs),
(626,229,o),
(612,177,o),
(581,138,o),
(536,117,o),
(504,117,qs),
(441,117,o),
(381,198,o),
(381,261,qs),
(381,292,o),
(394,347,o),
(424,387,o),
(471,412,o),
(504,412,qs),
(537,412,o)
);
},
{
closed = 1;
nodes = (
(56,527,l),
(56,0,l),
(197,0,l),
(197,203,l),
(251,203,l),
(266,101,o),
(391,-8,o),
(504,-8,qs),
(632,-8,o),
(766,134,o),
(766,264,qs),
(766,326,o),
(730,428,o),
(664,500,o),
(566,538,o),
(504,538,qs),
(394,538,o),
(268,425,o),
(251,325,q),
(197,325,l),
(197,527,l)
);
}
);
userData = {
assembly = "MPPEM[ ]	/* MeasurePixelPerEm */
PUSHB[ ]	/* 1 value pushed */
22 
LT[ ]	/* LessThan */
IF[ ]	/* If */
NPUSHB[ ]	/* 32 values pushed */
0 2 0 5 1 2 5 103 8 1 0 0 3 97 7 1 3 3 29 77 0 1 1 4 97 6 1 4 4 30 4 78 
ELSE[ ]	/* Else */
MPPEM[ ]	/* MeasurePixelPerEm */
PUSHB[ ]	/* 1 value pushed */
29 
LT[ ]	/* LessThan */
IF[ ]	/* If */
NPUSHB[ ]	/* 36 values pushed */
0 2 0 5 1 2 5 103 0 7 7 22 77 8 1 0 0 3 97 0 3 3 29 77 0 1 1 4 97 6 1 4 4 30 4 78 
ELSE[ ]	/* Else */
NPUSHB[ ]	/* 40 values pushed */
0 2 0 5 1 2 5 103 0 7 7 22 77 8 1 0 0 3 97 0 3 3 29 77 0 6 6 21 77 0 1 1 4 97 0 4 4 30 4 78 
EIF[ ]	/* EndIf */
EIF[ ]	/* EndIf */
NPUSHB[ ]	/* 23 values pushed */
1 0 38 37 36 35 34 33 31 29 23 21 19 18 9 7 0 17 1 17 9 7 22 
CALL[ ]	/* CallFunction */";
};
width = 797;
}
);
note = uni044E;
unicode = 1102;
},
{
glyphname = uni044F;
kernLeft = uni0432;
layers = (
{
layerId = m01;
shapes = (
{
closed = 1;
nodes = (
(221,527,o),
(149,513,o),
(120,496,qs),
(89,476,o),
(47,408,o),
(45,356,qs),
(43,295,o),
(109,206,o),
(168,186,q),
(22,0,l),
(191,0,l),
(309,166,l),
(378,166,l),
(378,0,l),
(519,0,l),
(519,527,l),
(264,527,ls)
);
},
{
closed = 1;
nodes = (
(271,280,o),
(235,284,o),
(221,292,qs),
(208,300,o),
(188,327,o),
(188,346,qs),
(188,382,o),
(233,412,o),
(265,412,qs),
(378,412,l),
(378,280,l),
(288,280,ls)
);
}
);
userData = {
assembly = "NPUSHB[ ]	/* 53 values pushed */
7 1 1 5 1 76 7 1 5 0 1 0 5 1 103 0 4 4 3 95 6 1 3 3 22 77 2 1 0 0 21 0 78 17 17 0 0 17 28 17 27 20 18 0 16 0 15 17 17 17 8 7 25 
CALL[ ]	/* CallFunction */";
};
width = 575;
}
);
note = uni044F;
unicode = 1103;
},
{
glyphname = u_alt;
layers = (
{
layerId = m01;
shapes = (
{
closed = 1;
nodes = (
(554,0,l),
(554,527,l),
(413,527,l),
(413,275,ls),
(413,244,o),
(408,190,o),
(394,167,qs),
(380,142,o),
(329,116,o),
(300,117,qs),
(269,116,o),
(227,136,o),
(215,152,qs),
(201,172,o),
(192,221,o),
(192,249,qs),
(192,527,l),
(51,527,l),
(51,235,ls),
(51,183,o),
(67,99,o),
(90,65,qs),
(113,31,o),
(195,-8,o),
(255,-8,qs),
(303,-8,o),
(387,24,o),
(418,69,q),
(427,0,l)
);
}
);
userData = {
assembly = "MPPEM[ ]	/* MeasurePixelPerEm */
PUSHB[ ]	/* 1 value pushed */
29 
LT[ ]	/* LessThan */
IF[ ]	/* If */
NPUSHB[ ]	/* 18 values pushed */
3 1 1 1 22 77 0 2 2 0 97 4 1 0 0 30 0 78 
ELSE[ ]	/* Else */
NPUSHB[ ]	/* 22 values pushed */
3 1 1 1 22 77 0 4 4 21 77 0 2 2 0 97 0 0 0 30 0 78 
EIF[ ]	/* EndIf */
PUSHB[ ]	/* 8 values pushed */
17 22 38 22 34 5 7 27 
CALL[ ]	/* CallFunction */";
};
width = 610;
}
);
note = u_alt;
},
{
glyphname = uni0410;
kernLeft = A;
kernRight = A;
layers = (
{
layerId = m01;
shapes = (
{
closed = 1;
nodes = (
(457,263,l),
(251,263,l),
(355,554,l)
);
},
{
closed = 1;
nodes = (
(549,0,l),
(708,0,l),
(438,708,l),
(274,708,l),
(0,0,l),
(158,0,l),
(209,135,l),
(500,135,l)
);
}
);
userData = {
assembly = "NPUSHB[ ]	/* 40 values pushed */
2 1 0 2 1 76 0 0 5 1 4 1 0 4 104 0 2 2 20 77 3 1 1 1 21 1 78 3 3 3 10 3 10 17 17 19 16 6 7 26 
CALL[ ]	/* CallFunction */";
};
width = 708;
}
);
note = uni0410;
unicode = 1040;
},
{
glyphname = uni0415;
layers = (
{
layerId = m01;
shapes = (
{
closed = 1;
nodes = (
(75,0,l),
(581,0,l),
(581,128,l),
(220,128,l),
(220,285,l),
(535,285,l),
(535,414,l),
(220,414,l),
(220,579,l),
(581,579,l),
(581,708,l),
(75,708,l)
);
}
);
userData = {
assembly = "NPUSHB[ ]	/* 44 values pushed */
0 1 0 2 3 1 2 103 0 0 0 5 95 6 1 5 5 20 77 0 3 3 4 95 0 4 4 21 4 78 0 0 0 11 0 11 17 17 17 17 17 7 7 27 
CALL[ ]	/* CallFunction */";
};
width = 617;
}
);
note = uni0415;
unicode = 1045;
},
{
glyphname = uni041C;
layers = (
{
layerId = m01;
shapes = (
{
closed = 1;
nodes = (
(75,0,l),
(219,0,l),
(219,489,l),
(410,183,l),
(475,183,l),
(664,489,l),
(664,0,l),
(809,0,l),
(809,708,l),
(654,708,l),
(445,375,l),
(233,708,l),
(75,708,l)
);
}
);
userData = {
assembly = "NPUSHB[ ]	/* 43 values pushed */
9 6 1 3 2 0 1 76 0 2 0 1 0 2 1 128 5 4 2 0 0 20 77 3 1 1 1 21 1 78 0 0 0 12 0 12 18 18 17 18 6 7 26 
CALL[ ]	/* CallFunction */";
};
width = 884;
}
);
note = uni041C;
unicode = 1052;
},
{
glyphname = uni041D;
layers = (
{
layerId = m01;
shapes = (
{
closed = 1;
nodes = (
(75,708,l),
(75,0,l),
(220,0,l),
(220,285,l),
(519,285,l),
(519,0,l),
(664,0,l),
(664,708,l),
(519,708,l),
(519,414,l),
(220,414,l),
(220,708,l)
);
}
);
userData = {
assembly = "NPUSHB[ ]	/* 30 values pushed */
0 0 0 3 2 0 3 103 5 1 1 1 20 77 4 1 2 2 21 2 78 17 17 17 17 17 16 6 7 28 
CALL[ ]	/* CallFunction */";
};
width = 739;
}
);
note = uni041D;
unicode = 1053;
},
{
glyphname = uni0420;
layers = (
{
layerId = m01;
shapes = (
{
closed = 1;
nodes = (
(75,0,l),
(220,0,l),
(220,209,l),
(357,209,ls),
(415,209,o),
(514,242,o),
(585,305,o),
(625,398,o),
(626,458,qs),
(627,527,o),
(588,622,o),
(515,681,o),
(411,708,o),
(347,708,qs),
(75,708,l)
);
},
{
closed = 1;
nodes = (
(220,579,l),
(348,579,ls),
(409,579,o),
(485,523,o),
(483,455,qs),
(482,425,o),
(460,381,o),
(424,351,o),
(376,337,o),
(349,337,qs),
(220,337,l)
);
}
);
userData = {
assembly = "NPUSHB[ ]	/* 47 values pushed */
6 1 3 0 1 2 3 1 103 0 4 4 0 95 5 1 0 0 20 77 0 2 2 21 2 78 16 15 1 0 24 22 15 25 16 25 13 12 11 9 0 14 1 14 7 7 22 
CALL[ ]	/* CallFunction */";
};
width = 659;
}
);
note = uni0420;
unicode = 1056;
},
{
glyphname = uni0422;
kernLeft = uni0422;
kernRight = uni0422;
layers = (
{
layerId = m01;
shapes = (
{
closed = 1;
nodes = (
(228,0,l),
(373,0,l),
(373,579,l),
(595,579,l),
(595,708,l),
(6,708,l),
(6,579,l),
(228,579,l)
);
}
);
userData = {
assembly = "NPUSHB[ ]	/* 30 values pushed */
4 3 2 1 1 0 95 0 0 0 20 77 0 2 2 21 2 78 0 0 0 7 0 7 17 17 17 5 7 25 
CALL[ ]	/* CallFunction */";
};
width = 601;
}
);
note = uni0422;
unicode = 1058;
},
{
glyphname = uni0425;
layers = (
{
layerId = m01;
shapes = (
{
closed = 1;
nodes = (
(179,708,l),
(10,708,l),
(245,355,l),
(2,0,l),
(165,0,l),
(331,243,l),
(491,0,l),
(660,0,l),
(420,354,l),
(654,708,l),
(486,708,l),
(334,463,l)
);
}
);
userData = {
assembly = "NPUSHB[ ]	/* 29 values pushed */
11 8 5 2 4 1 0 1 76 3 1 0 0 20 77 2 1 1 1 21 1 78 18 18 18 16 4 7 26 
CALL[ ]	/* CallFunction */";
};
width = 662;
}
);
note = uni0425;
unicode = 1061;
},
{
glyphname = T;
kernLeft = uni0422;
kernRight = uni0422;
layers = (
{
layerId = m01;
shapes = (
{
closed = 1;
nodes = (
(228,0,l),
(373,0,l),
(373,579,l),
(595,579,l),
(595,708,l),
(6,708,l),
(6,579,l),
(228,579,l)
);
}
);
userData = {
assembly = "NPUSHB[ ]	/* 30 values pushed */
4 3 2 1 1 0 95 0 0 0 38 77 0 2 2 39 2 78 0 0 0 7 0 7 17 17 17 5 8 25 
CALL[ ]	/* CallFunction */";
};
width = 601;
}
);
note = T;
unicode = 84;
},
{
glyphname = uni0412;
layers = (
{
layerId = m01;
shapes = (
{
closed = 1;
nodes = (
(404,0,o),
(512,16,o),
(557,47,qs),
(595,72,o),
(642,153,o),
(644,201,qs),
(645,231,o),
(633,287,o),
(606,335,o),
(562,371,o),
(531,380,q),
(575,406,o),
(612,482,o),
(611,531,qs),
(611,577,o),
(576,642,o),
(551,662,qs),
(520,688,o),
(437,708,o),
(388,708,qs),
(74,708,l),
(74,0,l),
(351,0,ls)
);
},
{
closed = 1;
nodes = (
(219,579,l),
(361,579,ls),
(383,579,o),
(425,576,o),
(441,566,qs),
(454,558,o),
(472,528,o),
(471,504,qs),
(470,481,o),
(448,447,o),
(432,437,qs),
(413,426,o),
(369,421,o),
(347,421,qs),
(219,421,l)
);
},
{
closed = 1;
nodes = (
(382,299,ls),
(405,299,o),
(448,295,o),
(465,284,qs),
(480,276,o),
(500,244,o),
(500,221,qs),
(500,196,o),
(482,163,o),
(468,152,qs),
(445,135,o),
(380,128,o),
(351,128,qs),
(219,128,l),
(219,298,l)
);
}
);
userData = {
assembly = "NPUSHB[ ]	/* 59 values pushed */
11 1 5 2 1 76 7 1 2 0 5 4 2 5 103 0 3 3 0 95 0 0 0 20 77 0 4 4 1 95 6 1 1 1 21 1 78 24 23 0 0 52 50 40 38 36 34 23 37 24 37 0 22 0 21 33 8 7 23 
CALL[ ]	/* CallFunction */";
};
width = 682;
}
);
note = uni0412;
unicode = 1042;
},
{
glyphname = uni041F;
layers = (
{
layerId = m01;
shapes = (
{
closed = 1;
nodes = (
(75,0,l),
(220,0,l),
(220,579,l),
(521,579,l),
(521,0,l),
(666,0,l),
(666,708,l),
(75,708,l)
);
}
);
userData = {
assembly = "NPUSHB[ ]	/* 30 values pushed */
0 1 1 3 95 4 1 3 3 20 77 2 1 0 0 21 0 78 0 0 0 7 0 7 17 17 17 5 7 25 
CALL[ ]	/* CallFunction */";
};
width = 741;
}
);
note = uni041F;
unicode = 1055;
},
{
glyphname = uni0413;
kernRight = uni0413;
layers = (
{
layerId = m01;
shapes = (
{
closed = 1;
nodes = (
(220,579,l),
(565,579,l),
(565,708,l),
(75,708,l),
(75,0,l),
(220,0,l)
);
}
);
userData = {
assembly = "NPUSHB[ ]	/* 28 values pushed */
0 1 1 0 95 0 0 0 20 77 3 1 2 2 21 2 78 0 0 0 5 0 5 17 17 4 7 24 
CALL[ ]	/* CallFunction */";
};
width = 582;
}
);
note = uni0413;
unicode = 1043;
},
{
glyphname = uni041B;
layers = (
{
layerId = m01;
shapes = (
{
closed = 1;
nodes = (
(487,0,l),
(632,0,l),
(632,708,l),
(131,708,l),
(129,631,o),
(130,498,o),
(128,432,qs),
(127,408,o),
(125,348,o),
(123,285,o),
(117,226,o),
(111,203,qs),
(108,190,o),
(94,163,o),
(72,141,o),
(42,127,o),
(23,127,qs),
(10,127,l),
(10,-1,l),
(31,-1,ls),
(61,-1,o),
(119,8,o),
(170,30,o),
(213,66,o),
(228,93,qs),
(241,118,o),
(256,174,o),
(263,231,o),
(265,287,o),
(266,312,qs),
(269,378,o),
(269,513,o),
(271,579,q),
(487,579,l)
);
}
);
userData = {
assembly = "NPUSHB[ ]	/* 36 values pushed */
5 1 4 4 2 95 0 2 2 20 77 0 1 1 0 97 3 1 0 0 21 0 78 0 0 0 33 0 33 17 28 33 44 6 7 26 
CALL[ ]	/* CallFunction */";
};
width = 707;
}
);
note = uni041B;
unicode = 1051;
},
{
glyphname = uni0414;
kernRight = uni0414;
layers = (
{
layerId = m01;
shapes = (
{
closed = 1;
nodes = (
(250,149,o),
(260,207,o),
(266,269,o),
(268,329,o),
(268,352,qs),
(274,579,l),
(501,579,l),
(501,128,l),
(241,128,l)
);
},
{
closed = 1;
nodes = (
(646,128,l),
(646,708,l),
(136,708,l),
(136,606,o),
(133,507,qs),
(131,440,o),
(126,302,o),
(120,236,qs),
(119,225,o),
(115,200,o),
(109,174,o),
(98,150,o),
(91,143,qs),
(80,134,o),
(54,128,o),
(36,128,qs),
(10,128,l),
(10,-179,l),
(153,-179,l),
(153,0,l),
(589,0,l),
(589,-179,l),
(732,-179,l),
(732,128,l)
);
}
);
userData = {
assembly = "NPUSHB[ ]	/* 52 values pushed */
4 1 2 1 2 83 0 0 0 6 95 0 6 6 20 77 7 5 8 3 1 1 3 95 0 3 3 21 3 78 0 0 32 31 30 29 17 15 14 13 12 11 10 9 0 8 0 8 17 9 7 23 
CALL[ ]	/* CallFunction */";
};
width = 742;
}
);
note = uni0414;
unicode = 1044;
},
{
glyphname = uni0411;
layers = (
{
layerId = m01;
shapes = (
{
closed = 1;
nodes = (
(374,0,o),
(433,4,o),
(490,17,o),
(542,41,o),
(565,60,qs),
(602,92,o),
(636,176,o),
(637,227,qs),
(637,275,o),
(606,360,o),
(568,391,qs),
(535,417,o),
(442,438,o),
(382,438,qs),
(220,438,l),
(220,579,l),
(588,579,l),
(588,708,l),
(75,708,l),
(75,0,l),
(346,0,ls)
);
},
{
closed = 1;
nodes = (
(359,311,ls),
(384,311,o),
(432,307,o),
(470,290,o),
(494,256,o),
(494,226,qs),
(494,192,o),
(468,153,o),
(424,133,o),
(370,128,o),
(342,128,qs),
(220,128,l),
(220,310,l)
);
}
);
userData = {
assembly = "NPUSHB[ ]	/* 46 values pushed */
0 2 0 5 4 2 5 103 0 1 1 0 95 0 0 0 20 77 0 4 4 3 95 6 1 3 3 21 3 78 0 0 33 31 23 21 0 20 0 18 33 17 17 7 7 25 
CALL[ ]	/* CallFunction */";
};
width = 680;
}
);
note = uni0411;
unicode = 1041;
},
{
glyphname = uni0416;
layers = (
{
layerId = m01;
shapes = (
{
closed = 1;
nodes = (
(785,0,l),
(950,0,l),
(745,369,l),
(947,708,l),
(782,708,l),
(620,416,l),
(549,416,l),
(549,708,l),
(404,708,l),
(404,416,l),
(332,416,l),
(171,708,l),
(5,708,l),
(208,369,l),
(2,0,l),
(167,0,l),
(321,288,l),
(404,288,l),
(404,0,l),
(549,0,l),
(549,288,l),
(631,288,l)
);
}
);
userData = {
assembly = "NPUSHB[ ]	/* 51 values pushed */
18 7 2 1 4 1 76 6 1 4 10 9 2 1 0 4 1 103 7 5 2 3 3 20 77 8 2 2 0 0 21 0 78 0 0 0 21 0 21 18 17 17 17 17 18 17 17 17 11 7 31 
CALL[ ]	/* CallFunction */";
};
width = 952;
}
);
note = uni0416;
unicode = 1046;
},
{
glyphname = uni0417;
kernLeft = uni0417;
kernRight = uni0417;
layers = (
{
layerId = m01;
shapes = (
{
closed = 1;
nodes = (
(37,154,o),
(86,71,o),
(164,20,o),
(264,-4,o),
(321,-6,qs),
(375,-8,o),
(482,11,o),
(568,60,o),
(623,143,o),
(625,205,qs),
(627,267,o),
(574,361,o),
(513,381,q),
(555,404,o),
(598,487,o),
(598,530,qs),
(598,584,o),
(553,656,o),
(479,698,o),
(387,716,o),
(341,716,qs),
(281,717,o),
(170,693,o),
(132,667,qs),
(97,643,o),
(48,565,o),
(46,504,q),
(185,504,l),
(187,526,o),
(211,558,o),
(249,578,o),
(297,588,o),
(323,588,qs),
(344,588,o),
(391,582,o),
(431,564,o),
(456,532,o),
(456,506,qs),
(455,478,o),
(428,444,o),
(386,426,o),
(336,420,o),
(313,420,qs),
(250,420,l),
(250,301,l),
(343,301,ls),
(364,301,o),
(413,297,o),
(455,281,o),
(482,249,o),
(482,221,qs),
(482,189,o),
(452,150,o),
(405,130,o),
(349,124,o),
(324,125,qs),
(301,126,o),
(251,134,o),
(208,154,o),
(177,189,o),
(171,216,q),
(32,216,l)
);
}
);
userData = {
assembly = "NPUSHB[ ]	/* 68 values pushed */
48 1 1 2 1 76 0 4 3 2 3 4 2 128 8 1 7 1 0 1 7 0 128 0 2 0 1 7 2 1 103 0 3 3 5 97 0 5 5 27 77 0 0 0 6 97 0 6 6 28 6 78 0 0 0 61 0 61 46 37 20 40 33 40 36 9 7 29 
CALL[ ]	/* CallFunction */";
};
width = 663;
}
);
note = uni0417;
unicode = 1047;
},
{
glyphname = uni0418;
layers = (
{
layerId = m01;
shapes = (
{
closed = 1;
nodes = (
(75,708,l),
(75,0,l),
(192,0,l),
(538,453,l),
(538,0,l),
(683,0,l),
(683,708,l),
(566,708,l),
(220,251,l),
(220,708,l)
);
}
);
userData = {
assembly = "NPUSHB[ ]	/* 27 values pushed */
5 0 2 1 0 1 76 3 1 0 0 20 77 2 1 1 1 21 1 78 17 18 17 17 4 7 26 
CALL[ ]	/* CallFunction */";
};
width = 758;
}
);
note = uni0418;
unicode = 1048;
},
{
glyphname = uni0419;
layers = (
{
layerId = m01;
shapes = (
{
closed = 1;
nodes = (
(75,708,l),
(75,0,l),
(192,0,l),
(538,453,l),
(538,0,l),
(683,0,l),
(683,708,l),
(566,708,l),
(220,251,l),
(220,708,l)
);
},
{
closed = 1;
nodes = (
(575,835,o),
(586,916,q),
(462,916,l),
(457,888,o),
(418,858,o),
(389,858,qs),
(328,858,o),
(314,916,q),
(192,916,l),
(201,835,o),
(307,755,o),
(388,755,qs),
(468,755,o)
);
}
);
userData = {
assembly = "PUSHB[ ]	/* 7 values pushed */
5 0 2 1 0 1 76 
MPPEM[ ]	/* MeasurePixelPerEm */
PUSHB[ ]	/* 1 value pushed */
22 
LT[ ]	/* LessThan */
IF[ ]	/* If */
NPUSHB[ ]	/* 29 values pushed */
7 1 5 6 6 5 112 0 6 8 1 4 0 6 4 106 3 1 0 0 20 77 2 1 1 1 21 1 78 
ELSE[ ]	/* Else */
NPUSHB[ ]	/* 28 values pushed */
7 1 5 6 5 133 0 6 8 1 4 0 6 4 106 3 1 0 0 20 77 2 1 1 1 21 1 78 
EIF[ ]	/* EndIf */
NPUSHB[ ]	/* 19 values pushed */
11 10 20 19 17 15 14 13 10 22 11 22 17 18 17 17 9 7 26 
CALL[ ]	/* CallFunction */";
};
width = 758;
}
);
note = uni0419;
unicode = 1049;
},
{
glyphname = uni041A;
layers = (
{
layerId = m01;
shapes = (
{
closed = 1;
nodes = (
(503,0,l),
(672,0,l),
(419,372,l),
(669,708,l),
(501,708,l),
(295,416,l),
(220,416,l),
(220,708,l),
(75,708,l),
(75,0,l),
(220,0,l),
(220,288,l),
(309,288,l)
);
}
);
userData = {
assembly = "NPUSHB[ ]	/* 42 values pushed */
9 1 5 2 1 76 0 2 6 1 5 0 2 5 103 3 1 1 1 20 77 4 1 0 0 21 0 78 0 0 0 12 0 12 18 17 17 17 17 7 7 27 
CALL[ ]	/* CallFunction */";
};
width = 674;
}
);
note = uni041A;
unicode = 1050;
},
{
glyphname = uni0423;
layers = (
{
layerId = m01;
shapes = (
{
closed = 1;
nodes = (
(175,708,l),
(7,708,l),
(270,209,l),
(255,179,o),
(220,147,o),
(184,131,o),
(148,128,o),
(131,128,qs),
(108,128,l),
(108,0,l),
(155,0,ls),
(213,-2,o),
(298,27,o),
(333,59,qs),
(354,79,o),
(389,132,o),
(419,190,o),
(444,248,o),
(455,274,qs),
(640,708,l),
(477,708,l),
(344,362,l)
);
}
);
userData = {
assembly = "NPUSHB[ ]	/* 31 values pushed */
21 18 2 2 0 1 76 3 1 0 0 20 77 0 2 2 1 98 0 1 1 21 1 78 21 33 40 16 4 7 26 
CALL[ ]	/* CallFunction */";
};
width = 627;
}
);
note = uni0423;
unicode = 1059;
},
{
glyphname = uni0424;
kernLeft = uni0417;
kernRight = uni0417;
layers = (
{
layerId = m01;
shapes = (
{
closed = 1;
nodes = (
(185,636,o),
(37,497,o),
(36,363,qs),
(36,298,o),
(77,197,o),
(152,129,o),
(258,94,o),
(323,94,qs),
(359,94,l),
(359,-17,l),
(504,-17,l),
(504,94,l),
(545,94,ls),
(678,95,o),
(826,234,o),
(827,368,qs),
(827,433,o),
(786,534,o),
(711,602,o),
(604,637,o),
(540,637,qs),
(504,637,l),
(504,740,l),
(359,740,l),
(359,637,l),
(318,637,ls)
);
},
{
closed = 1;
nodes = (
(608,515,o),
(683,436,o),
(685,371,qs),
(687,301,o),
(619,217,o),
(546,217,qs),
(504,217,l),
(504,515,l),
(542,515,ls)
);
},
{
closed = 1;
nodes = (
(255,217,o),
(180,295,o),
(178,360,qs),
(176,430,o),
(244,515,o),
(317,515,qs),
(359,515,l),
(359,217,l),
(321,217,ls)
);
}
);
userData = {
assembly = "MPPEM[ ]	/* MeasurePixelPerEm */
PUSHB[ ]	/* 1 value pushed */
29 
LT[ ]	/* LessThan */
IF[ ]	/* If */
NPUSHB[ ]	/* 34 values pushed */
10 5 2 1 8 11 2 7 6 1 7 105 12 9 2 6 4 1 2 3 6 2 105 0 0 0 3 95 0 3 3 21 3 78 
ELSE[ ]	/* Else */
NPUSHB[ ]	/* 39 values pushed */
0 0 1 3 0 87 10 5 2 1 8 11 2 7 6 1 7 105 12 9 2 6 4 1 2 3 6 2 105 0 0 0 3 95 0 3 0 3 79 
EIF[ ]	/* EndIf */
NPUSHB[ ]	/* 30 values pushed */
35 35 26 26 0 0 35 43 35 42 38 36 26 34 26 33 29 27 0 25 0 24 33 17 38 33 17 13 7 27 
CALL[ ]	/* CallFunction */";
};
width = 863;
}
);
note = uni0424;
unicode = 1060;
},
{
glyphname = uni0426;
kernRight = uni0414;
layers = (
{
layerId = m01;
shapes = (
{
closed = 1;
nodes = (
(220,708,l),
(75,708,l),
(75,0,l),
(596,0,l),
(596,-179,l),
(739,-179,l),
(739,128,l),
(653,128,l),
(653,708,l),
(508,708,l),
(508,128,l),
(220,128,l)
);
}
);
userData = {
assembly = "NPUSHB[ ]	/* 38 values pushed */
0 2 1 2 84 4 1 0 0 20 77 6 5 2 1 1 3 96 0 3 3 21 3 78 0 0 0 11 0 11 17 17 17 17 17 7 7 27 
CALL[ ]	/* CallFunction */";
};
width = 749;
}
);
note = uni0426;
unicode = 1062;
},
{
glyphname = uni0427;
layers = (
{
layerId = m01;
shapes = (
{
closed = 1;
nodes = (
(52,400,o),
(88,310,o),
(123,281,qs),
(156,254,o),
(251,230,o),
(310,228,qs),
(354,226,o),
(436,235,o),
(471,241,q),
(471,0,l),
(616,0,l),
(616,708,l),
(471,708,l),
(471,372,l),
(436,366,o),
(373,359,o),
(338,360,qs),
(301,360,o),
(248,371,o),
(213,399,o),
(197,448,o),
(197,486,qs),
(197,708,l),
(52,708,l),
(52,466,ls)
);
}
);
userData = {
assembly = "NPUSHB[ ]	/* 38 values pushed */
10 1 1 0 15 1 4 1 2 76 0 1 0 4 3 1 4 105 2 1 0 0 20 77 0 3 3 21 3 78 35 17 19 37 16 5 7 27 
CALL[ ]	/* CallFunction */";
};
width = 691;
}
);
note = uni0427;
unicode = 1063;
},
{
glyphname = uni0428;
layers = (
{
layerId = m01;
shapes = (
{
closed = 1;
nodes = (
(936,708,l),
(791,708,l),
(791,128,l),
(578,128,l),
(578,708,l),
(433,708,l),
(433,128,l),
(220,128,l),
(220,708,l),
(75,708,l),
(75,0,l),
(936,0,l)
);
}
);
userData = {
assembly = "NPUSHB[ ]	/* 34 values pushed */
4 2 2 0 0 20 77 3 1 1 1 5 96 6 1 5 5 21 5 78 0 0 0 11 0 11 17 17 17 17 17 7 7 27 
CALL[ ]	/* CallFunction */";
};
width = 1011;
}
);
note = uni0428;
unicode = 1064;
},
{
glyphname = uni0429;
kernRight = uni0414;
layers = (
{
layerId = m01;
shapes = (
{
closed = 1;
nodes = (
(878,-179,l),
(1021,-179,l),
(1021,128,l),
(936,128,l),
(936,708,l),
(791,708,l),
(791,128,l),
(578,128,l),
(578,708,l),
(433,708,l),
(433,128,l),
(220,128,l),
(220,708,l),
(75,708,l),
(75,0,l),
(878,0,l)
);
}
);
userData = {
assembly = "NPUSHB[ ]	/* 42 values pushed */
0 6 1 6 84 4 2 2 0 0 20 77 5 3 2 1 1 7 96 8 1 7 7 21 7 78 0 0 0 15 0 15 17 17 17 17 17 17 17 9 7 29 
CALL[ ]	/* CallFunction */";
};
width = 1031;
}
);
note = uni0429;
unicode = 1065;
},
{
glyphname = uni042A;
layers = (
{
layerId = m01;
shapes = (
{
closed = 1;
nodes = (
(496,0,o),
(594,18,o),
(632,41,qs),
(677,67,o),
(729,161,o),
(730,232,qs),
(730,282,o),
(705,354,o),
(684,381,qs),
(652,419,o),
(546,453,o),
(476,453,qs),
(310,453,l),
(310,708,l),
(5,708,l),
(5,579,l),
(165,579,l),
(165,0,l),
(440,0,ls)
);
},
{
closed = 1;
nodes = (
(454,325,ls),
(479,325,o),
(528,319,o),
(566,299,o),
(589,263,o),
(589,233,qs),
(589,199,o),
(562,158,o),
(519,135,o),
(463,128,o),
(435,128,qs),
(310,128,l),
(310,324,l)
);
}
);
userData = {
assembly = "NPUSHB[ ]	/* 46 values pushed */
0 2 0 5 4 2 5 103 0 0 0 1 95 0 1 1 20 77 0 4 4 3 95 6 1 3 3 21 3 78 0 0 31 29 21 19 0 18 0 17 33 17 17 7 7 25 
CALL[ ]	/* CallFunction */";
};
width = 768;
}
);
note = uni042A;
unicode = 1066;
},
{
glyphname = uni042B;
layers = (
{
layerId = m01;
shapes = (
{
closed = 1;
nodes = (
(377,0,o),
(475,18,o),
(513,41,qs),
(558,67,o),
(610,161,o),
(611,232,qs),
(611,282,o),
(586,354,o),
(564,381,qs),
(532,419,o),
(426,453,o),
(356,453,qs),
(220,453,l),
(220,708,l),
(75,708,l),
(75,0,l),
(320,0,ls)
);
},
{
closed = 1;
nodes = (
(334,325,ls),
(360,325,o),
(409,319,o),
(446,300,o),
(469,263,o),
(469,233,qs),
(469,199,o),
(442,158,o),
(399,135,o),
(344,128,o),
(316,128,qs),
(220,128,l),
(220,324,l)
);
},
{
closed = 1;
nodes = (
(845,0,l),
(845,708,l),
(700,708,l),
(700,0,l)
);
}
);
userData = {
assembly = "NPUSHB[ ]	/* 46 values pushed */
0 1 0 4 3 1 4 103 5 1 0 0 20 77 0 3 3 2 96 6 7 2 2 2 21 2 78 0 0 33 32 31 30 29 27 19 17 0 16 0 15 33 17 8 7 24 
CALL[ ]	/* CallFunction */";
};
width = 920;
}
);
note = uni042B;
unicode = 1067;
},
{
glyphname = uni042C;
layers = (
{
layerId = m01;
shapes = (
{
closed = 1;
nodes = (
(403,0,o),
(502,18,o),
(540,41,qs),
(585,67,o),
(637,161,o),
(638,232,qs),
(638,282,o),
(612,355,o),
(590,382,qs),
(558,420,o),
(454,453,o),
(384,453,qs),
(219,453,l),
(219,708,l),
(74,708,l),
(74,0,l),
(348,0,ls)
);
},
{
closed = 1;
nodes = (
(361,325,ls),
(387,325,o),
(435,319,o),
(473,299,o),
(496,263,o),
(496,233,qs),
(496,199,o),
(470,158,o),
(426,135,o),
(372,128,o),
(344,128,qs),
(219,128,l),
(219,324,l)
);
}
);
userData = {
assembly = "NPUSHB[ ]	/* 40 values pushed */
0 1 0 4 3 1 4 103 0 0 0 20 77 0 3 3 2 96 5 1 2 2 21 2 78 0 0 29 27 19 17 0 16 0 15 33 17 6 7 24 
CALL[ ]	/* CallFunction */";
};
width = 676;
}
);
note = uni042C;
unicode = 1068;
},
{
glyphname = uni042D;
kernLeft = uni0417;
kernRight = uni0417;
layers = (
{
layerId = m01;
shapes = (
{
closed = 1;
nodes = (
(248,292,l),
(525,292,l),
(523,255,o),
(497,193,o),
(451,149,o),
(387,124,o),
(348,124,qs),
(326,124,o),
(274,131,o),
(225,155,o),
(185,197,o),
(176,232,q),
(36,232,l),
(42,171,o),
(96,82,o),
(134,54,qs),
(180,20,o),
(289,-7,o),
(345,-6,qs),
(428,-5,o),
(553,50,o),
(636,146,o),
(678,277,o),
(678,355,qs),
(678,431,o),
(640,562,o),
(560,659,o),
(439,715,o),
(355,717,qs),
(295,718,o),
(186,687,o),
(101,626,o),
(46,535,o),
(40,477,q),
(181,477,l),
(187,502,o),
(217,544,o),
(261,572,o),
(316,588,o),
(348,588,qs),
(390,588,o),
(454,561,o),
(498,514,o),
(522,452,o),
(525,416,q),
(248,416,l)
);
}
);
userData = {
assembly = "NPUSHB[ ]	/* 62 values pushed */
0 1 0 7 0 1 7 128 0 4 6 5 6 4 5 128 8 1 7 0 6 4 7 6 103 0 0 0 2 97 0 2 2 27 77 0 5 5 3 97 0 3 3 28 3 78 0 0 0 45 0 45 20 36 21 40 36 20 36 9 7 29 
CALL[ ]	/* CallFunction */";
};
width = 714;
}
);
note = uni042D;
unicode = 1069;
},
{
glyphname = uni042E;
kernRight = uni0417;
layers = (
{
layerId = m01;
shapes = (
{
closed = 1;
nodes = (
(473,484,o),
(519,548,o),
(591,587,o),
(642,587,qs),
(693,587,o),
(766,548,o),
(814,483,o),
(836,399,o),
(836,355,qs),
(836,310,o),
(813,226,o),
(765,162,o),
(692,123,o),
(642,123,qs),
(591,123,o),
(518,162,o),
(472,227,o),
(451,311,o),
(451,356,qs),
(451,401,o)
);
},
{
closed = 1;
nodes = (
(75,708,l),
(75,0,l),
(220,0,l),
(220,285,l),
(308,285,l),
(317,221,o),
(368,114,o),
(452,37,o),
(567,-6,o),
(640,-6,qs),
(723,-7,o),
(851,48,o),
(939,145,o),
(985,279,o),
(985,357,qs),
(985,436,o),
(940,568,o),
(853,663,o),
(726,716,o),
(643,716,qs),
(568,716,o),
(451,671,o),
(366,591,o),
(315,480,o),
(307,414,q),
(220,414,l),
(220,708,l)
);
}
);
userData = {
assembly = "MPPEM[ ]	/* MeasurePixelPerEm */
PUSHB[ ]	/* 1 value pushed */
29 
LT[ ]	/* LessThan */
IF[ ]	/* If */
NPUSHB[ ]	/* 31 values pushed */
0 2 0 5 0 2 5 103 0 1 1 3 97 7 1 3 3 27 77 0 0 0 4 97 6 1 4 4 28 4 78 
ELSE[ ]	/* Else */
MPPEM[ ]	/* MeasurePixelPerEm */
PUSHB[ ]	/* 1 value pushed */
33 
LT[ ]	/* LessThan */
IF[ ]	/* If */
NPUSHB[ ]	/* 35 values pushed */
0 2 0 5 0 2 5 103 0 7 7 20 77 0 1 1 3 97 0 3 3 27 77 0 0 0 4 97 6 1 4 4 28 4 78 
ELSE[ ]	/* Else */
NPUSHB[ ]	/* 39 values pushed */
0 2 0 5 0 2 5 103 0 7 7 20 77 0 1 1 3 97 0 3 3 27 77 0 6 6 21 77 0 0 0 4 97 0 4 4 28 4 78 
EIF[ ]	/* EndIf */
EIF[ ]	/* EndIf */
NPUSHB[ ]	/* 11 values pushed */
17 17 20 40 36 20 40 36 8 7 30 
CALL[ ]	/* CallFunction */";
};
width = 1021;
}
);
note = uni042E;
unicode = 1070;
},
{
glyphname = uni042F;
layers = (
{
layerId = m01;
shapes = (
{
closed = 1;
nodes = (
(284,708,o),
(183,688,o),
(145,661,qs),
(106,632,o),
(60,540,o),
(59,471,qs),
(58,386,o),
(145,273,o),
(230,255,q),
(43,0,l),
(211,0,l),
(378,239,l),
(473,239,l),
(473,0,l),
(618,0,l),
(618,708,l),
(344,708,ls)
);
},
{
closed = 1;
nodes = (
(327,365,o),
(269,373,o),
(247,387,qs),
(228,398,o),
(202,440,o),
(202,468,qs),
(202,504,o),
(227,551,o),
(250,564,qs),
(267,574,o),
(314,579,o),
(341,579,qs),
(473,579,l),
(473,365,l),
(356,365,ls)
);
}
);
userData = {
assembly = "NPUSHB[ ]	/* 53 values pushed */
7 1 1 5 1 76 7 1 5 0 1 0 5 1 103 0 4 4 3 95 6 1 3 3 20 77 2 1 0 0 21 0 78 17 17 0 0 17 31 17 30 20 18 0 16 0 15 17 17 17 8 7 25 
CALL[ ]	/* CallFunction */";
};
width = 693;
}
);
note = uni042F;
unicode = 1071;
},
{
glyphname = uni0440;
kernLeft = uni0432;
layers = (
{
layerId = m01;
shapes = (
{
closed = 1;
nodes = (
(56,527,l),
(56,-220,l),
(197,-220,l),
(197,59,l),
(216,37,o),
(259,11,o),
(303,-3,o),
(347,-8,o),
(369,-8,qs),
(414,-8,o),
(504,27,o),
(535,61,qs),
(572,99,o),
(603,204,o),
(603,269,qs),
(603,321,o),
(579,415,o),
(553,450,qs),
(521,498,o),
(425,539,o),
(369,538,qs),
(322,537,o),
(229,494,o),
(198,456,q),
(190,527,l)
);
},
{
closed = 1;
nodes = (
(412,390,o),
(445,350,o),
(462,296,o),
(462,265,qs),
(462,233,o),
(445,179,o),
(414,139,o),
(366,117,o),
(332,117,qs),
(269,119,o),
(196,200,o),
(197,267,qs),
(197,297,o),
(216,349,o),
(250,389,o),
(299,412,o),
(330,412,qs),
(364,412,o)
);
}
);
userData = {
assembly = "PUSHB[ ]	/* 6 values pushed */
20 1 1 5 1 76 
MPPEM[ ]	/* MeasurePixelPerEm */
PUSHB[ ]	/* 1 value pushed */
14 
LT[ ]	/* LessThan */
IF[ ]	/* If */
NPUSHB[ ]	/* 28 values pushed */
6 1 4 4 0 97 3 1 0 0 29 77 0 5 5 1 97 0 1 1 30 77 0 2 2 24 2 78 
ELSE[ ]	/* Else */
MPPEM[ ]	/* MeasurePixelPerEm */
PUSHB[ ]	/* 1 value pushed */
22 
LT[ ]	/* LessThan */
IF[ ]	/* If */
NPUSHB[ ]	/* 34 values pushed */
6 1 4 4 0 97 3 1 0 0 29 77 0 5 5 1 97 0 1 1 30 77 0 2 2 0 97 3 1 0 0 29 2 78 
ELSE[ ]	/* Else */
NPUSHB[ ]	/* 32 values pushed */
6 1 4 4 0 97 0 0 0 29 77 0 5 5 1 97 0 1 1 30 77 0 2 2 3 95 0 3 3 22 2 78 
EIF[ ]	/* EndIf */
EIF[ ]	/* EndIf */
NPUSHB[ ]	/* 15 values pushed */
26 25 34 32 25 42 26 42 17 21 42 34 7 7 26 
CALL[ ]	/* CallFunction */";
};
width = 634;
}
);
note = uni0440;
unicode = 1088;
},
{
glyphname = O;
kernLeft = O;
kernRight = D;
layers = (
{
layerId = m01;
shapes = (
{
closed = 1;
nodes = (
(210,486,o),
(260,550,o),
(336,588,o),
(386,588,qs),
(437,588,o),
(513,550,o),
(562,485,o),
(587,401,o),
(587,356,qs),
(587,310,o),
(561,225,o),
(511,160,o),
(435,123,o),
(386,124,qs),
(335,125,o),
(259,164,o),
(210,228,o),
(185,311,o),
(185,357,qs),
(185,403,o)
);
},
{
closed = 1;
nodes = (
(176,664,o),
(85,568,o),
(36,435,o),
(36,355,qs),
(36,277,o),
(83,145,o),
(172,49,o),
(301,-6,o),
(384,-6,qs),
(467,-7,o),
(598,48,o),
(688,146,o),
(736,280,o),
(736,358,qs),
(736,438,o),
(688,570,o),
(598,665,o),
(468,717,o),
(387,717,qs),
(306,717,o)
);
}
);
userData = {
assembly = "NPUSHB[ ]	/* 35 values pushed */
0 1 1 2 97 4 1 2 2 46 77 0 0 0 3 97 0 3 3 47 3 78 21 20 31 29 20 39 21 39 40 36 5 8 24 
CALL[ ]	/* CallFunction */";
};
width = 772;
}
);
note = O;
unicode = 79;
},
{
glyphname = be_alt;
layers = (
{
layerId = m01;
shapes = (
{
closed = 1;
nodes = (
(258,707,o),
(201,679,qs),
(155,655,o),
(92,591,o),
(72,551,qs),
(48,504,o),
(32,397,o),
(32,338,qs),
(32,302,o),
(40,227,o),
(61,156,o),
(96,91,o),
(124,64,qs),
(157,31,o),
(251,-7,o),
(312,-8,qs),
(373,-9,o),
(473,28,o),
(509,63,qs),
(587,135,o),
(587,265,qs),
(587,319,o),
(550,409,o),
(517,441,qs),
(486,470,o),
(403,502,o),
(351,501,qs),
(300,500,o),
(209,467,o),
(174,429,q),
(176,460,o),
(195,508,o),
(210,526,qs),
(237,562,o),
(292,577,q),
(346,596,o),
(466,623,o),
(518,644,qs),
(541,654,o),
(576,688,o),
(584,712,q),
(505,806,l),
(497,795,o),
(464,770,o),
(437,762,qs),
(379,741,o)
);
},
{
closed = 1;
nodes = (
(231,140,o),
(198,178,o),
(183,225,o),
(184,250,qs),
(187,311,o),
(265,373,o),
(321,372,qs),
(378,371,o),
(447,302,o),
(446,244,qs),
(446,220,o),
(428,175,o),
(395,138,o),
(346,117,o),
(315,117,qs),
(282,117,o)
);
}
);
userData = {
assembly = "NPUSHB[ ]	/* 46 values pushed */
15 1 3 0 1 76 4 3 2 0 74 0 0 0 3 2 0 3 105 4 1 2 2 1 97 0 1 1 30 1 78 47 46 55 53 46 61 47 61 30 28 19 17 5 7 22 
CALL[ ]	/* CallFunction */";
};
width = 618;
}
);
note = be_alt;
},
{
glyphname = a;
kernLeft = a;
layers = (
{
layerId = m01;
shapes = (
{
closed = 1;
nodes = (
(369,158,o),
(357,142,q),
(338,122,o),
(287,100,o),
(258,101,qs),
(243,101,o),
(213,110,o),
(192,126,o),
(179,150,o),
(179,166,qs),
(179,185,o),
(198,211,o),
(226,227,o),
(264,233,o),
(279,233,qs),
(305,233,o),
(357,233,o),
(382,233,q),
(382,199,o)
);
},
{
closed = 1;
nodes = (
(519,0,l),
(519,285,ls),
(520,333,o),
(503,434,o),
(469,473,qs),
(450,493,o),
(407,518,o),
(359,533,o),
(309,538,o),
(285,538,qs),
(242,538,o),
(161,521,o),
(95,481,o),
(52,416,o),
(47,368,q),
(192,368,l),
(195,383,o),
(214,404,o),
(241,416,o),
(273,420,o),
(288,420,qs),
(334,419,o),
(385,370,o),
(382,321,q),
(274,321,ls),
(226,321,o),
(145,307,o),
(113,290,qs),
(75,268,o),
(38,201,o),
(37,158,qs),
(37,116,o),
(66,55,o),
(92,33,qs),
(141,-6,o),
(214,-8,qs),
(271,-9,o),
(357,25,o),
(387,65,q),
(390,0,l)
);
}
);
userData = {
assembly = "MPPEM[ ]	/* MeasurePixelPerEm */
PUSHB[ ]	/* 1 value pushed */
29 
LT[ ]	/* LessThan */
IF[ ]	/* If */
PUSHB[ ]	/* 6 values pushed */
19 1 2 1 1 76 
ELSE[ ]	/* Else */
PUSHB[ ]	/* 6 values pushed */
19 1 7 1 1 76 
EIF[ ]	/* EndIf */
MPPEM[ ]	/* MeasurePixelPerEm */
PUSHB[ ]	/* 1 value pushed */
29 
LT[ ]	/* LessThan */
IF[ ]	/* If */
NPUSHB[ ]	/* 38 values pushed */
0 5 4 3 4 5 3 128 0 3 0 0 1 3 0 103 0 4 4 6 97 0 6 6 49 77 0 1 1 2 97 7 1 2 2 50 2 78 
ELSE[ ]	/* Else */
NPUSHB[ ]	/* 42 values pushed */
0 5 4 3 4 5 3 128 0 3 0 0 1 3 0 103 0 4 4 6 97 0 6 6 49 77 0 7 7 39 77 0 1 1 2 97 0 2 2 50 2 78 
EIF[ ]	/* EndIf */
NPUSHB[ ]	/* 11 values pushed */
24 36 20 34 41 39 40 64 8 8 30 
CALL[ ]	/* CallFunction */";
};
width = 573;
}
);
note = a;
unicode = 97;
},
{
glyphname = c;
kernLeft = d;
layers = (
{
layerId = m01;
shapes = (
{
closed = 1;
nodes = (
(217,138,o),
(189,177,o),
(175,230,o),
(175,262,qs),
(175,292,o),
(187,346,o),
(215,388,o),
(263,412,o),
(296,412,qs),
(335,412,o),
(384,374,o),
(389,350,q),
(537,350,l),
(530,399,o),
(489,470,o),
(426,516,o),
(345,538,o),
(299,538,qs),
(236,538,o),
(138,499,o),
(71,427,o),
(35,325,o),
(35,264,qs),
(35,201,o),
(68,100,o),
(132,29,o),
(229,-8,o),
(295,-8,qs),
(339,-8,o),
(421,12,o),
(486,58,o),
(530,128,o),
(537,179,q),
(389,179,l),
(384,155,o),
(337,117,o),
(297,117,qs),
(264,117,o)
);
}
);
userData = {
assembly = "NPUSHB[ ]	/* 56 values pushed */
0 4 5 1 5 4 1 128 0 1 0 5 1 0 126 0 5 5 3 97 0 3 3 49 77 6 1 0 0 2 97 0 2 2 50 2 78 1 0 29 27 25 24 20 18 10 8 4 3 0 37 1 37 7 8 22 
CALL[ ]	/* CallFunction */";
};
width = 567;
}
);
note = c;
unicode = 99;
},
{
glyphname = e;
kernLeft = d;
layers = (
{
layerId = m01;
shapes = (
{
closed = 1;
nodes = (
(180,172,o),
(176,219,q),
(536,219,l),
(547,285,o),
(526,401,o),
(465,488,o),
(361,538,o),
(290,538,qs),
(229,538,o),
(134,498,o),
(70,425,o),
(35,325,o),
(35,266,qs),
(35,136,o),
(166,-8,o),
(294,-8,qs),
(336,-8,o),
(412,9,o),
(475,47,o),
(520,107,o),
(531,148,q),
(383,148,l),
(369,126,o),
(326,107,o),
(296,107,qs),
(238,107,o)
);
},
{
closed = 1;
nodes = (
(182,361,o),
(241,416,o),
(294,417,qs),
(316,417,o),
(357,405,o),
(387,380,o),
(405,341,o),
(405,316,q),
(177,316,l)
);
}
);
userData = {
assembly = "NPUSHB[ ]	/* 64 values pushed */
0 1 4 0 4 1 0 128 8 1 6 0 4 1 6 4 103 0 5 5 3 97 0 3 3 49 77 7 1 0 0 2 97 0 2 2 50 2 78 26 26 1 0 26 34 26 34 32 30 23 22 18 16 10 8 4 3 0 25 1 25 9 8 22 
CALL[ ]	/* CallFunction */";
};
width = 577;
}
);
note = e;
unicode = 101;
},
{
glyphname = f;
layers = (
{
layerId = m01;
shapes = (
{
closed = 1;
nodes = (
(241,579,ls),
(241,645,o),
(306,645,qs),
(370,645,l),
(370,768,l),
(286,768,ls),
(193,768,o),
(100,684,o),
(100,595,qs),
(100,527,l),
(20,527,l),
(20,404,l),
(100,404,l),
(100,0,l),
(241,0,l),
(241,404,l),
(370,404,l),
(370,527,l),
(241,527,l)
);
}
);
userData = {
assembly = "NPUSHB[ ]	/* 42 values pushed */
0 4 0 5 3 4 5 105 2 1 0 0 3 95 7 6 2 3 3 41 77 0 1 1 39 1 78 0 0 0 18 0 18 33 35 17 17 17 17 8 8 28 
CALL[ ]	/* CallFunction */";
};
width = 384;
}
);
note = f;
unicode = 102;
},
{
glyphname = g;
kernLeft = d;
layers = (
{
layerId = m01;
shapes = (
{
closed = 1;
nodes = (
(434,-54,o),
(406,-110,o),
(351,-144,o),
(308,-144,qs),
(268,-144,o),
(212,-106,o),
(208,-82,q),
(58,-82,l),
(65,-132,o),
(110,-204,o),
(179,-251,o),
(263,-272,o),
(309,-272,qs),
(345,-272,o),
(415,-258,o),
(477,-227,o),
(528,-181,o),
(546,-148,qs),
(562,-121,o),
(578,-62,o),
(585,1,o),
(585,65,o),
(585,96,qs),
(585,527,l),
(463,527,l),
(448,473,l),
(417,508,o),
(331,538,o),
(294,536,q),
(237,537,o),
(138,499,o),
(107,465,qs),
(35,387,o),
(35,257,qs),
(35,202,o),
(65,98,o),
(103,58,qs),
(137,23,o),
(230,-8,o),
(279,-8,qs),
(328,-8,o),
(412,20,o),
(442,54,q),
(442,18,o)
);
},
{
closed = 1;
nodes = (
(228,138,o),
(194,177,o),
(177,230,o),
(177,263,qs),
(177,294,o),
(193,348,o),
(226,388,o),
(277,412,o),
(310,412,qs),
(374,411,o),
(443,330,o),
(443,268,qs),
(443,237,o),
(427,182,o),
(395,141,o),
(344,117,o),
(311,117,qs),
(278,117,o)
);
}
);
userData = {
assembly = "MPPEM[ ]	/* MeasurePixelPerEm */
PUSHB[ ]	/* 1 value pushed */
23 
LT[ ]	/* LessThan */
IF[ ]	/* If */
NPUSHB[ ]	/* 10 values pushed */
17 1 7 1 0 1 0 6 2 76 
ELSE[ ]	/* Else */
NPUSHB[ ]	/* 10 values pushed */
17 1 7 2 0 1 0 6 2 76 
EIF[ ]	/* EndIf */
MPPEM[ ]	/* MeasurePixelPerEm */
PUSHB[ ]	/* 1 value pushed */
14 
LT[ ]	/* LessThan */
IF[ ]	/* If */
NPUSHB[ ]	/* 41 values pushed */
0 4 0 5 0 4 5 128 0 7 7 1 97 2 1 1 1 49 77 8 1 6 6 0 97 0 0 0 50 77 0 5 5 3 97 0 3 3 51 3 78 
ELSE[ ]	/* Else */
MPPEM[ ]	/* MeasurePixelPerEm */
PUSHB[ ]	/* 1 value pushed */
23 
LT[ ]	/* LessThan */
IF[ ]	/* If */
NPUSHB[ ]	/* 38 values pushed */
0 4 0 5 0 4 5 128 0 5 0 3 5 3 101 0 7 7 1 97 2 1 1 1 49 77 8 1 6 6 0 97 0 0 0 50 0 78 
ELSE[ ]	/* Else */
NPUSHB[ ]	/* 42 values pushed */
0 4 0 5 0 4 5 128 0 5 0 3 5 3 101 0 2 2 41 77 0 7 7 1 97 0 1 1 49 77 8 1 6 6 0 97 0 0 0 50 0 78 
EIF[ ]	/* EndIf */
EIF[ ]	/* EndIf */
NPUSHB[ ]	/* 17 values pushed */
45 44 53 51 44 61 45 61 34 20 42 19 41 34 9 8 28 
CALL[ ]	/* CallFunction */";
};
width = 640;
}
);
note = g;
unicode = 103;
},
{
glyphname = j;
layers = (
{
layerId = m01;
shapes = (
{
closed = 1;
nodes = (
(61,727,o),
(61,688,qs),
(61,648,o),
(110,602,o),
(149,602,qs),
(188,602,o),
(237,648,o),
(237,688,qs),
(237,727,o),
(188,774,o),
(149,774,qs),
(110,774,o)
);
},
{
closed = 1;
nodes = (
(78,-81,o),
(40,-118,o),
(7,-118,qs),
(-43,-118,l),
(-43,-242,l),
(36,-242,ls),
(221,-241,o),
(219,-65,qs),
(219,527,l),
(78,527,l),
(78,-48,ls)
);
}
);
userData = {
assembly = "MPPEM[ ]	/* MeasurePixelPerEm */
PUSHB[ ]	/* 1 value pushed */
12 
LT[ ]	/* LessThan */
IF[ ]	/* If */
NPUSHB[ ]	/* 27 values pushed */
0 1 1 0 97 5 1 0 0 48 77 0 2 2 41 77 0 4 4 3 96 0 3 3 43 3 78 
ELSE[ ]	/* Else */
MPPEM[ ]	/* MeasurePixelPerEm */
PUSHB[ ]	/* 1 value pushed */
14 
LT[ ]	/* LessThan */
IF[ ]	/* If */
NPUSHB[ ]	/* 25 values pushed */
5 1 0 0 1 2 0 1 105 0 2 2 41 77 0 4 4 3 96 0 3 3 43 3 78 
ELSE[ ]	/* Else */
NPUSHB[ ]	/* 22 values pushed */
5 1 0 0 1 2 0 1 105 0 4 0 3 4 3 100 0 2 2 41 2 78 
EIF[ ]	/* EndIf */
EIF[ ]	/* EndIf */
NPUSHB[ ]	/* 17 values pushed */
1 0 20 18 17 15 13 12 7 5 0 11 1 11 6 8 22 
CALL[ ]	/* CallFunction */";
};
width = 285;
}
);
note = j;
unicode = 106;
},
{
glyphname = o;
kernLeft = d;
layers = (
{
layerId = m01;
shapes = (
{
closed = 1;
nodes = (
(426,328,o),
(426,265,qs),
(426,201,o),
(366,117,o),
(301,117,qs),
(236,117,o),
(174,201,o),
(174,265,qs),
(174,328,o),
(236,412,o),
(301,412,qs),
(366,412,o)
);
},
{
closed = 1;
nodes = (
(568,136,o),
(568,266,qs),
(568,328,o),
(531,429,o),
(462,501,o),
(363,538,o),
(301,538,qs),
(238,538,o),
(139,501,o),
(72,429,o),
(35,328,o),
(35,266,qs),
(35,137,o),
(173,-8,o),
(301,-8,qs),
(429,-8,o)
);
}
);
userData = {
assembly = "NPUSHB[ ]	/* 42 values pushed */
4 1 0 0 3 97 0 3 3 49 77 0 1 1 2 97 5 1 2 2 50 2 78 13 12 1 0 21 19 12 27 13 27 7 5 0 11 1 11 6 8 22 
CALL[ ]	/* CallFunction */";
};
width = 603;
}
);
note = o;
unicode = 111;
},
{
glyphname = r;
kernLeft = r;
kernRight = r;
layers = (
{
layerId = m01;
shapes = (
{
closed = 1;
nodes = (
(56,527,l),
(56,0,l),
(197,0,l),
(197,237,ls),
(197,275,o),
(208,335,o),
(231,361,qs),
(246,377,o),
(285,394,o),
(327,402,o),
(374,403,o),
(397,403,q),
(397,533,l),
(387,535,o),
(363,537,o),
(350,537,qs),
(299,537,o),
(226,499,o),
(194,461,q),
(186,527,l)
);
}
);
userData = {
assembly = "MPPEM[ ]	/* MeasurePixelPerEm */
PUSHB[ ]	/* 1 value pushed */
23 
LT[ ]	/* LessThan */
IF[ ]	/* If */
PUSHB[ ]	/* 6 values pushed */
6 1 1 0 1 76 
ELSE[ ]	/* Else */
PUSHB[ ]	/* 6 values pushed */
6 1 3 0 1 76 
EIF[ ]	/* EndIf */
MPPEM[ ]	/* MeasurePixelPerEm */
PUSHB[ ]	/* 1 value pushed */
23 
LT[ ]	/* LessThan */
IF[ ]	/* If */
NPUSHB[ ]	/* 17 values pushed */
0 1 1 0 97 3 1 0 0 49 77 0 2 2 39 2 78 
ELSE[ ]	/* Else */
NPUSHB[ ]	/* 21 values pushed */
0 3 3 41 77 0 1 1 0 97 0 0 0 49 77 0 2 2 39 2 78 
EIF[ ]	/* EndIf */
PUSHB[ ]	/* 7 values pushed */
17 23 35 34 4 8 26 
CALL[ ]	/* CallFunction */";
};
width = 412;
}
);
note = r;
unicode = 114;
},
{
glyphname = t;
kernLeft = t;
layers = (
{
layerId = m01;
shapes = (
{
closed = 1;
nodes = (
(364,527,l),
(238,527,l),
(238,670,l),
(97,670,l),
(97,527,l),
(17,527,l),
(17,404,l),
(97,404,l),
(97,173,ls),
(97,84,o),
(188,-4,o),
(293,0,qs),
(359,0,l),
(359,123,l),
(307,123,ls),
(238,123,o),
(238,191,qs),
(238,404,l),
(364,404,l)
);
}
);
userData = {
assembly = "NPUSHB[ ]	/* 44 values pushed */
0 4 3 4 133 7 6 2 2 2 3 95 5 1 3 3 41 77 0 0 0 1 98 0 1 1 39 1 78 0 0 0 18 0 18 17 17 17 19 33 34 8 8 28 
CALL[ ]	/* CallFunction */";
};
width = 384;
}
);
note = t;
unicode = 116;
},
{
glyphname = y_alt;
layers = (
{
layerId = m01;
shapes = (
{
closed = 1;
nodes = (
(209,-108,o),
(205,-85,q),
(56,-85,l),
(63,-135,o),
(106,-206,o),
(173,-253,o),
(257,-274,o),
(304,-274,qs),
(385,-274,o),
(487,-219,o),
(517,-177,qs),
(535,-152,o),
(558,-90,o),
(569,-21,o),
(572,55,o),
(572,95,qs),
(572,527,l),
(430,527,l),
(430,277,ls),
(430,245,o),
(425,191,o),
(411,168,qs),
(396,141,o),
(345,117,o),
(316,117,qs),
(254,117,o),
(228,150,qs),
(212,170,o),
(203,222,o),
(203,251,qs),
(203,527,l),
(62,527,l),
(62,233,ls),
(62,181,o),
(80,96,o),
(104,61,qs),
(128,27,o),
(215,-8,o),
(270,-8,qs),
(325,-8,o),
(404,24,o),
(430,61,q),
(430,24,o),
(424,-49,o),
(399,-108,o),
(346,-145,o),
(301,-145,qs),
(261,-145,o)
);
}
);
userData = {
assembly = "PUSHB[ ]	/* 6 values pushed */
5 1 1 3 1 76 
MPPEM[ ]	/* MeasurePixelPerEm */
PUSHB[ ]	/* 1 value pushed */
14 
LT[ ]	/* LessThan */
IF[ ]	/* If */
NPUSHB[ ]	/* 36 values pushed */
0 6 1 0 1 6 0 128 4 1 2 2 22 77 0 3 3 1 97 0 1 1 30 77 7 1 0 0 5 97 0 5 5 31 5 78 
ELSE[ ]	/* Else */
NPUSHB[ ]	/* 33 values pushed */
0 6 1 0 1 6 0 128 7 1 0 0 5 0 5 101 4 1 2 2 22 77 0 3 3 1 97 0 1 1 30 1 78 
EIF[ ]	/* EndIf */
NPUSHB[ ]	/* 21 values pushed */
1 0 45 44 40 38 30 29 23 21 16 15 9 7 0 47 1 47 8 7 22 
CALL[ ]	/* CallFunction */";
};
width = 627;
}
);
note = y_alt;
},
{
glyphname = y2_alt;
layers = (
{
layerId = m01;
shapes = (
{
closed = 1;
nodes = (
(178,527,l),
(10,527,l),
(247,-49,l),
(227,-101,o),
(164,-154,o),
(107,-154,qs),
(85,-154,l),
(85,-277,l),
(120,-277,ls),
(182,-277,o),
(264,-246,o),
(293,-220,qs),
(319,-196,o),
(360,-128,o),
(378,-81,qs),
(398,-26,o),
(433,78,o),
(451,134,qs),
(585,527,l),
(432,527,l),
(315,136,l),
(314,136,l)
);
}
);
userData = {
assembly = "PUSHB[ ]	/* 6 values pushed */
18 1 2 0 1 76 
MPPEM[ ]	/* MeasurePixelPerEm */
PUSHB[ ]	/* 1 value pushed */
14 
LT[ ]	/* LessThan */
IF[ ]	/* If */
NPUSHB[ ]	/* 17 values pushed */
3 1 0 0 22 77 0 2 2 1 98 0 1 1 31 1 78 
ELSE[ ]	/* Else */
NPUSHB[ ]	/* 14 values pushed */
0 2 0 1 2 1 102 3 1 0 0 22 0 78 
EIF[ ]	/* EndIf */
PUSHB[ ]	/* 7 values pushed */
19 33 41 17 4 7 26 
CALL[ ]	/* CallFunction */";
};
width = 585;
}
);
note = y2_alt;
},
{
glyphname = uni0443;
layers = (
{
layerId = m01;
shapes = (
{
closed = 1;
nodes = (
(178,527,l),
(10,527,l),
(247,-49,l),
(227,-101,o),
(164,-154,o),
(107,-154,qs),
(85,-154,l),
(85,-277,l),
(120,-277,ls),
(182,-277,o),
(264,-246,o),
(293,-220,qs),
(319,-196,o),
(360,-128,o),
(378,-81,qs),
(398,-26,o),
(433,78,o),
(451,134,qs),
(585,527,l),
(432,527,l),
(315,138,l),
(314,138,l)
);
}
);
userData = {
assembly = "PUSHB[ ]	/* 6 values pushed */
18 1 2 0 1 76 
MPPEM[ ]	/* MeasurePixelPerEm */
PUSHB[ ]	/* 1 value pushed */
14 
LT[ ]	/* LessThan */
IF[ ]	/* If */
NPUSHB[ ]	/* 17 values pushed */
3 1 0 0 22 77 0 2 2 1 98 0 1 1 31 1 78 
ELSE[ ]	/* Else */
NPUSHB[ ]	/* 14 values pushed */
0 2 0 1 2 1 102 3 1 0 0 22 0 78 
EIF[ ]	/* EndIf */
PUSHB[ ]	/* 7 values pushed */
19 33 41 17 4 7 26 
CALL[ ]	/* CallFunction */";
};
width = 585;
}
);
note = uni0443;
unicode = 1091;
},
{
glyphname = uni0451;
kernLeft = uni0444;
layers = (
{
layerId = m01;
shapes = (
{
closed = 1;
nodes = (
(87,701,o),
(87,663,qs),
(87,622,o),
(135,577,o),
(174,577,qs),
(212,577,o),
(262,622,o),
(262,663,qs),
(262,701,o),
(212,746,o),
(174,746,qs),
(135,746,o)
);
},
{
closed = 1;
nodes = (
(331,701,o),
(331,663,qs),
(331,622,o),
(380,577,o),
(418,577,qs),
(457,577,o),
(505,622,o),
(505,663,qs),
(505,701,o),
(457,746,o),
(418,746,qs),
(380,746,o)
);
},
{
closed = 1;
nodes = (
(180,172,o),
(176,219,q),
(536,219,l),
(547,285,o),
(526,401,o),
(465,488,o),
(361,538,o),
(290,538,qs),
(229,538,o),
(134,498,o),
(70,425,o),
(35,325,o),
(35,266,qs),
(35,136,o),
(166,-8,o),
(294,-8,qs),
(336,-8,o),
(412,9,o),
(475,47,o),
(520,107,o),
(531,148,q),
(383,148,l),
(369,126,o),
(326,107,o),
(296,107,qs),
(238,107,o)
);
},
{
closed = 1;
nodes = (
(182,361,o),
(241,416,o),
(294,417,qs),
(316,417,o),
(357,405,o),
(387,380,o),
(405,341,o),
(405,316,q),
(177,316,l)
);
}
);
userData = {
assembly = "NPUSHB[ ]	/* 92 values pushed */
0 5 8 4 8 5 4 128 12 2 11 3 0 3 1 1 7 0 1 105 14 1 10 0 8 5 10 8 103 0 9 9 7 97 0 7 7 29 77 13 1 4 4 6 97 0 6 6 30 6 78 50 50 25 24 13 12 1 0 50 58 50 58 56 54 47 46 42 40 34 32 28 27 24 49 25 49 19 17 12 23 13 23 7 5 0 11 1 11 15 7 22 
CALL[ ]	/* CallFunction */";
};
width = 577;
}
);
note = uni0451;
unicode = 1105;
},
{
glyphname = uni0437;
kernLeft = uni0444;
layers = (
{
layerId = m01;
shapes = (
{
closed = 1;
nodes = (
(493,348,o),
(491,387,qs),
(489,430,o),
(452,488,o),
(393,523,o),
(319,538,o),
(281,538,qs),
(241,538,o),
(162,525,o),
(95,488,o),
(48,420,o),
(42,366,q),
(175,366,l),
(177,384,o),
(197,406,o),
(226,419,o),
(260,424,o),
(275,424,qs),
(288,424,o),
(318,420,o),
(344,409,o),
(362,389,o),
(362,373,qs),
(362,354,o),
(344,331,o),
(319,320,o),
(288,317,o),
(274,317,qs),
(210,317,l),
(210,212,l),
(293,212,ls),
(330,212,o),
(375,189,o),
(374,160,qs),
(373,141,o),
(355,121,o),
(325,110,o),
(291,107,o),
(274,107,qs),
(257,107,o),
(221,111,o),
(190,124,o),
(166,148,o),
(162,169,q),
(25,169,l),
(27,118,o),
(73,51,o),
(142,9,o),
(226,-8,o),
(267,-8,qs),
(303,-8,o),
(378,2,o),
(411,16,qs),
(451,34,o),
(507,104,o),
(508,164,qs),
(509,200,o),
(473,268,o),
(438,281,q),
(460,295,o)
);
}
);
userData = {
assembly = "NPUSHB[ ]	/* 56 values pushed */
0 6 5 4 5 6 4 128 0 1 3 2 3 1 2 128 0 4 0 3 1 4 3 103 0 5 5 7 97 0 7 7 29 77 0 2 2 0 97 0 0 0 30 0 78 36 20 40 33 38 36 20 40 8 7 30 
CALL[ ]	/* CallFunction */";
};
width = 540;
}
);
note = uni0437;
unicode = 1079;
},
{
glyphname = uni044D;
kernLeft = uni0444;
layers = (
{
layerId = m01;
shapes = (
{
closed = 1;
nodes = (
(187,135,o),
(176,150,q),
(28,150,l),
(38,106,o),
(87,46,o),
(154,8,o),
(231,-8,o),
(270,-8,qs),
(327,-8,o),
(421,24,o),
(451,54,qs),
(525,126,o),
(525,265,qs),
(525,326,o),
(493,428,o),
(429,499,o),
(334,538,o),
(272,538,qs),
(227,538,o),
(147,518,o),
(83,477,o),
(37,413,o),
(27,369,q),
(176,369,l),
(180,379,o),
(200,396,o),
(227,408,o),
(260,414,o),
(276,414,qs),
(328,414,o),
(387,360,o),
(389,319,q),
(193,319,l),
(193,208,l),
(389,208,l),
(387,166,o),
(327,114,o),
(273,114,qs),
(240,114,o)
);
}
);
userData = {
assembly = "NPUSHB[ ]	/* 69 values pushed */
0 4 3 2 3 4 2 128 0 7 1 0 1 7 0 128 0 2 0 1 7 2 1 103 0 3 3 5 97 0 5 5 29 77 8 1 0 0 6 97 0 6 6 30 6 78 1 0 36 35 31 29 21 19 15 14 10 8 6 5 4 3 0 38 1 38 9 7 22 
CALL[ ]	/* CallFunction */";
};
width = 557;
}
);
note = uni044D;
unicode = 1101;
},
{
glyphname = C;
kernLeft = O;
kernRight = D;
layers = (
{
layerId = m01;
shapes = (
{
closed = 1;
nodes = (
(208,487,o),
(255,551,o),
(328,588,o),
(379,588,qs),
(443,588,o),
(525,528,o),
(536,477,q),
(676,477,l),
(670,540,o),
(619,631,o),
(539,689,o),
(437,717,o),
(379,717,qs),
(296,717,o),
(169,662,o),
(81,565,o),
(36,432,o),
(36,355,qs),
(36,276,o),
(80,144,o),
(167,48,o),
(294,-6,o),
(377,-6,qs),
(433,-6,o),
(537,24,o),
(619,84,o),
(671,173,o),
(676,232,q),
(536,232,l),
(526,181,o),
(443,124,o),
(379,124,qs),
(328,124,o),
(255,163,o),
(208,227,o),
(185,311,o),
(185,356,qs),
(185,402,o)
);
}
);
userData = {
assembly = "NPUSHB[ ]	/* 45 values pushed */
0 4 5 1 5 4 1 128 0 1 0 5 1 0 126 0 5 5 3 97 0 3 3 46 77 0 0 0 2 97 0 2 2 47 2 78 34 20 40 36 18 36 6 8 28 
CALL[ ]	/* CallFunction */";
};
width = 706;
}
);
note = C;
unicode = 67;
},
{
glyphname = S;
kernLeft = O;
kernRight = D;
layers = (
{
layerId = m01;
shapes = (
{
closed = 1;
nodes = (
(584,557,o),
(542,637,o),
(475,689,o),
(386,716,o),
(334,717,qs),
(287,718,o),
(193,700,o),
(115,654,o),
(65,575,o),
(62,515,qs),
(60,464,o),
(99,380,o),
(138,353,qs),
(170,330,o),
(251,305,o),
(289,295,qs),
(306,291,o),
(332,285,o),
(356,280,o),
(381,273,o),
(397,269,qs),
(420,263,o),
(459,233,o),
(459,201,qs),
(459,178,o),
(439,148,o),
(404,131,o),
(358,125,o),
(333,126,qs),
(309,127,o),
(262,137,o),
(224,159,o),
(196,193,o),
(190,219,q),
(42,219,l),
(45,162,o),
(91,78,o),
(168,22,o),
(268,-7,o),
(325,-8,qs),
(384,-10,o),
(482,13,o),
(519,39,qs),
(558,65,o),
(604,151,o),
(604,212,qs),
(603,268,o),
(565,338,o),
(503,380,o),
(423,404,o),
(380,413,qs),
(368,416,o),
(336,422,o),
(302,431,o),
(267,442,o),
(252,449,qs),
(231,459,o),
(206,491,o),
(207,514,qs),
(207,536,o),
(229,566,o),
(263,584,o),
(302,590,o),
(320,590,qs),
(371,588,o),
(439,549,o),
(445,504,q),
(589,504,l)
);
}
);
userData = {
assembly = "MPPEM[ ]	/* MeasurePixelPerEm */
PUSHB[ ]	/* 1 value pushed */
12 
LT[ ]	/* LessThan */
IF[ ]	/* If */
NPUSHB[ ]	/* 37 values pushed */
6 1 5 0 2 0 5 2 128 0 2 3 0 2 3 126 0 0 0 4 97 0 4 4 46 77 0 3 3 1 97 0 1 1 47 1 78 
ELSE[ ]	/* Else */
NPUSHB[ ]	/* 37 values pushed */
6 1 5 0 2 0 5 2 128 0 2 3 0 2 3 126 0 0 0 4 97 0 4 4 46 77 0 3 3 1 97 0 1 1 50 1 78 
EIF[ ]	/* EndIf */
NPUSHB[ ]	/* 18 values pushed */
0 0 0 67 0 67 63 61 39 37 33 32 28 26 34 7 8 23 
CALL[ ]	/* CallFunction */";
};
width = 646;
}
);
note = S;
unicode = 83;
},
{
glyphname = uni0421;
kernLeft = uni0417;
kernRight = uni0417;
layers = (
{
layerId = m01;
shapes = (
{
closed = 1;
nodes = (
(208,485,o),
(255,550,o),
(328,588,o),
(379,588,qs),
(443,588,o),
(525,528,o),
(536,477,q),
(676,477,l),
(670,540,o),
(619,631,o),
(539,689,o),
(437,717,o),
(379,717,qs),
(296,717,o),
(169,662,o),
(81,565,o),
(36,432,o),
(36,355,qs),
(36,276,o),
(80,144,o),
(167,48,o),
(294,-6,o),
(377,-6,qs),
(433,-6,o),
(537,24,o),
(619,84,o),
(671,173,o),
(676,232,q),
(536,232,l),
(526,181,o),
(443,124,o),
(379,124,qs),
(328,124,o),
(255,163,o),
(208,227,o),
(185,311,o),
(185,356,qs),
(185,401,o)
);
}
);
userData = {
assembly = "NPUSHB[ ]	/* 45 values pushed */
0 4 5 1 5 4 1 128 0 1 0 5 1 0 126 0 5 5 3 97 0 3 3 27 77 0 0 0 2 97 0 2 2 28 2 78 34 20 40 36 18 36 6 7 28 
CALL[ ]	/* CallFunction */";
};
width = 712;
}
);
note = uni0421;
unicode = 1057;
},
{
glyphname = G;
kernLeft = O;
kernRight = D;
layers = (
{
layerId = m01;
shapes = (
{
closed = 1;
nodes = (
(207,483,o),
(253,547,o),
(325,586,o),
(375,588,qs),
(438,590,o),
(529,528,o),
(539,477,q),
(679,477,l),
(674,537,o),
(622,627,o),
(542,687,o),
(438,717,o),
(381,717,qs),
(298,717,o),
(169,664,o),
(81,569,o),
(36,435,o),
(36,354,qs),
(36,275,o),
(81,143,o),
(168,47,o),
(297,-6,o),
(380,-6,qs),
(460,-6,o),
(574,43,o),
(612,83,qs),
(639,111,o),
(672,182,o),
(689,258,o),
(693,338,o),
(692,376,q),
(372,376,l),
(372,259,l),
(550,259,l),
(547,224,o),
(518,172,o),
(472,139,o),
(413,123,o),
(382,124,qs),
(331,125,o),
(257,163,o),
(209,226,o),
(186,309,o),
(186,355,qs),
(186,400,o)
);
}
);
userData = {
assembly = "NPUSHB[ ]	/* 47 values pushed */
0 5 6 2 6 5 2 128 0 2 0 1 0 2 1 103 0 6 6 4 97 0 4 4 46 77 0 0 0 3 97 0 3 3 47 3 78 34 20 40 39 17 20 36 7 8 29 
CALL[ ]	/* CallFunction */";
};
width = 729;
}
);
note = G;
unicode = 71;
},
{
glyphname = uni041E;
kernLeft = uni0417;
kernRight = uni0417;
layers = (
{
layerId = m01;
shapes = (
{
closed = 1;
nodes = (
(210,486,o),
(260,550,o),
(336,588,o),
(386,588,qs),
(437,588,o),
(513,550,o),
(562,485,o),
(587,401,o),
(587,356,qs),
(587,310,o),
(561,225,o),
(511,160,o),
(435,123,o),
(386,124,qs),
(335,125,o),
(259,164,o),
(210,228,o),
(185,311,o),
(185,357,qs),
(185,403,o)
);
},
{
closed = 1;
nodes = (
(176,664,o),
(85,568,o),
(36,435,o),
(36,355,qs),
(36,277,o),
(83,145,o),
(172,49,o),
(301,-6,o),
(384,-6,qs),
(467,-7,o),
(598,48,o),
(688,146,o),
(736,280,o),
(736,358,qs),
(736,438,o),
(688,570,o),
(598,665,o),
(468,717,o),
(387,717,qs),
(306,717,o)
);
}
);
userData = {
assembly = "NPUSHB[ ]	/* 35 values pushed */
0 1 1 2 97 4 1 2 2 27 77 0 0 0 3 97 0 3 3 28 3 78 21 20 31 29 20 39 21 39 40 36 5 7 24 
CALL[ ]	/* CallFunction */";
};
width = 772;
}
);
note = uni041E;
unicode = 1054;
},
{
glyphname = Q;
kernLeft = O;
kernRight = D;
layers = (
{
layerId = m01;
shapes = (
{
closed = 1;
nodes = (
(210,486,o),
(260,550,o),
(336,588,o),
(386,588,qs),
(437,588,o),
(513,550,o),
(562,485,o),
(587,401,o),
(587,356,qs),
(587,310,o),
(561,225,o),
(511,160,o),
(435,123,o),
(386,124,qs),
(335,125,o),
(259,164,o),
(210,228,o),
(185,311,o),
(185,357,qs),
(185,403,o)
);
},
{
closed = 1;
nodes = (
(728,-24,l),
(637,91,l),
(685,140,o),
(736,277,o),
(736,358,qs),
(736,438,o),
(688,570,o),
(598,665,o),
(468,717,o),
(387,717,qs),
(306,717,o),
(176,664,o),
(85,568,o),
(36,435,o),
(36,355,qs),
(36,277,o),
(83,145,o),
(172,49,o),
(301,-6,o),
(384,-6,qs),
(456,-6,o),
(516,15,q),
(617,-111,l)
);
}
);
userData = {
assembly = "NPUSHB[ ]	/* 39 values pushed */
40 1 2 0 1 76 42 41 2 2 73 0 1 1 3 97 0 3 3 46 77 0 0 0 2 97 0 2 2 47 2 78 40 37 40 36 4 8 26 
CALL[ ]	/* CallFunction */";
};
width = 772;
}
);
note = Q;
unicode = 81;
},
{
glyphname = J;
layers = (
{
layerId = m01;
shapes = (
{
closed = 1;
nodes = (
(377,708,l),
(377,237,ls),
(377,187,o),
(333,121,o),
(277,122,qs),
(220,123,o),
(177,188,o),
(177,238,q),
(31,238,l),
(29,180,o),
(63,90,o),
(94,58,qs),
(158,-5,o),
(275,-6,qs),
(337,-8,o),
(429,26,o),
(459,56,qs),
(493,90,o),
(522,188,o),
(522,254,qs),
(522,708,l)
);
}
);
userData = {
assembly = "MPPEM[ ]	/* MeasurePixelPerEm */
PUSHB[ ]	/* 1 value pushed */
10 
LT[ ]	/* LessThan */
IF[ ]	/* If */
NPUSHB[ ]	/* 23 values pushed */
0 1 3 2 2 1 114 0 3 3 38 77 0 2 2 0 98 0 0 0 47 0 78 
ELSE[ ]	/* Else */
NPUSHB[ ]	/* 24 values pushed */
0 1 3 2 3 1 2 128 0 3 3 38 77 0 2 2 0 98 0 0 0 47 0 78 
EIF[ ]	/* EndIf */
PUSHB[ ]	/* 7 values pushed */
19 34 20 37 4 8 26 
CALL[ ]	/* CallFunction */";
};
width = 592;
}
);
note = J;
unicode = 74;
},
{
glyphname = K_alt;
kernRight = K_alt;
layers = (
{
layerId = m01;
shapes = (
{
closed = 1;
nodes = (
(75,708,l),
(75,0,l),
(220,0,l),
(220,247,l),
(273,301,l),
(499,0,l),
(669,0,l),
(374,393,l),
(671,708,l),
(499,708,l),
(220,404,l),
(220,708,l)
);
}
);
userData = {
assembly = "NPUSHB[ ]	/* 29 values pushed */
7 6 3 0 4 1 0 1 76 3 1 0 0 20 77 2 1 1 1 21 1 78 17 19 18 17 4 7 26 
CALL[ ]	/* CallFunction */";
};
width = 673;
}
);
note = K_alt;
},
{
glyphname = K;
kernRight = K_alt;
layers = (
{
layerId = m01;
shapes = (
{
closed = 1;
nodes = (
(503,0,l),
(672,0,l),
(419,372,l),
(669,708,l),
(501,708,l),
(295,416,l),
(220,416,l),
(220,708,l),
(75,708,l),
(75,0,l),
(220,0,l),
(220,288,l),
(309,288,l)
);
}
);
userData = {
assembly = "NPUSHB[ ]	/* 42 values pushed */
9 1 5 2 1 76 0 2 6 1 5 0 2 5 103 3 1 1 1 38 77 4 1 0 0 39 0 78 0 0 0 12 0 12 18 17 17 17 17 7 8 27 
CALL[ ]	/* CallFunction */";
};
width = 674;
}
);
note = K;
unicode = 75;
},
{
glyphname = k_alt;
layers = (
{
layerId = m01;
shapes = (
{
closed = 1;
nodes = (
(197,708,l),
(56,708,l),
(56,0,l),
(197,0,l),
(197,168,l),
(243,215,l),
(403,0,l),
(563,0,l),
(342,303,l),
(553,527,l),
(384,527,l),
(197,319,l)
);
}
);
userData = {
assembly = "NPUSHB[ ]	/* 33 values pushed */
11 6 5 2 4 1 0 1 76 0 3 3 20 77 0 0 0 22 77 2 1 1 1 21 1 78 17 19 18 16 4 7 26 
CALL[ ]	/* CallFunction */";
};
width = 565;
}
);
note = k_alt;
},
{
glyphname = k;
layers = (
{
layerId = m01;
shapes = (
{
closed = 1;
nodes = (
(390,0,l),
(554,0,l),
(386,277,l),
(542,527,l),
(381,527,l),
(267,323,l),
(197,323,l),
(197,708,l),
(56,708,l),
(56,0,l),
(197,0,l),
(197,201,l),
(272,201,l)
);
}
);
userData = {
assembly = "NPUSHB[ ]	/* 46 values pushed */
9 1 5 2 1 76 0 2 6 1 5 0 2 5 103 0 1 1 38 77 0 3 3 41 77 4 1 0 0 39 0 78 0 0 0 12 0 12 18 17 17 17 17 7 8 27 
CALL[ ]	/* CallFunction */";
};
width = 554;
}
);
note = k;
unicode = 107;
},
{
glyphname = i_alt;
layers = (
{
layerId = m01;
shapes = (
{
closed = 1;
nodes = (
(64,726,o),
(64,688,qs),
(64,648,o),
(112,603,o),
(152,603,qs),
(190,603,o),
(238,648,o),
(238,688,qs),
(238,726,o),
(190,772,o),
(152,772,qs),
(112,772,o)
);
},
{
closed = 1;
nodes = (
(80,404,l),
(80,0,l),
(221,0,l),
(221,527,l),
(0,527,l),
(0,404,l)
);
}
);
userData = {
assembly = "NPUSHB[ ]	/* 42 values pushed */
5 1 0 0 1 2 0 1 105 0 4 4 2 95 0 2 2 22 77 0 3 3 21 3 78 1 0 17 16 15 14 13 12 7 5 0 11 1 11 6 7 22 
CALL[ ]	/* CallFunction */";
};
width = 286;
}
);
note = i_alt;
},
{
glyphname = j_alt;
layers = (
{
layerId = m01;
shapes = (
{
closed = 1;
nodes = (
(73,727,o),
(73,688,qs),
(73,648,o),
(122,602,o),
(163,602,qs),
(201,602,o),
(250,648,o),
(250,688,qs),
(250,727,o),
(201,774,o),
(163,774,qs),
(123,774,o)
);
},
{
closed = 1;
nodes = (
(91,404,l),
(91,-48,ls),
(91,-81,o),
(54,-118,o),
(20,-118,qs),
(-30,-118,l),
(-30,-242,l),
(49,-242,ls),
(232,-241,o),
(232,-65,qs),
(232,527,l),
(11,527,l),
(11,404,l)
);
}
);
userData = {
assembly = "MPPEM[ ]	/* MeasurePixelPerEm */
PUSHB[ ]	/* 1 value pushed */
14 
LT[ ]	/* LessThan */
IF[ ]	/* If */
NPUSHB[ ]	/* 30 values pushed */
6 1 0 0 1 2 0 1 105 0 5 5 2 95 0 2 2 22 77 0 4 4 3 95 0 3 3 24 3 78 
ELSE[ ]	/* Else */
NPUSHB[ ]	/* 27 values pushed */
6 1 0 0 1 2 0 1 105 0 4 0 3 4 3 99 0 5 5 2 95 0 2 2 22 5 78 
EIF[ ]	/* EndIf */
NPUSHB[ ]	/* 19 values pushed */
1 0 24 23 20 18 17 15 13 12 7 5 0 11 1 11 7 7 22 
CALL[ ]	/* CallFunction */";
};
width = 298;
}
);
note = j_alt;
},
{
glyphname = s_alt;
kernLeft = d;
layers = (
{
layerId = m01;
shapes = (
{
closed = 1;
nodes = (
(327,419,o),
(354,405,o),
(370,380,o),
(371,360,q),
(504,360,l),
(504,405,o),
(471,471,o),
(413,515,o),
(335,537,o),
(291,539,qs),
(249,540,o),
(167,526,o),
(98,489,o),
(53,426,o),
(49,381,qs),
(47,332,o),
(83,272,o),
(112,253,qs),
(140,236,o),
(207,221,o),
(243,213,qs),
(330,196,ls),
(354,191,o),
(381,170,o),
(379,152,qs),
(378,136,o),
(359,117,o),
(331,107,o),
(300,104,o),
(287,104,qs),
(269,105,o),
(229,113,o),
(196,130,o),
(172,159,o),
(169,180,q),
(31,180,l),
(31,124,o),
(84,41,o),
(135,16,qs),
(171,-1,o),
(246,-15,o),
(285,-15,qs),
(326,-15,o),
(409,1,o),
(444,22,qs),
(481,45,o),
(519,115,o),
(518,158,qs),
(518,194,o),
(492,254,o),
(460,276,qs),
(427,297,o),
(338,313,o),
(294,320,qs),
(283,322,o),
(250,328,o),
(235,333,qs),
(215,339,o),
(187,361,o),
(188,378,qs),
(188,393,o),
(205,412,o),
(231,421,o),
(261,424,o),
(273,424,qs),
(293,424,o)
);
}
);
userData = {
assembly = "NPUSHB[ ]	/* 66 values pushed */
50 1 5 0 40 1 3 2 2 76 0 5 0 2 0 5 2 128 0 2 3 0 2 3 126 6 1 0 0 4 97 0 4 4 29 77 0 3 3 1 97 0 1 1 30 1 78 1 0 61 60 56 54 36 34 30 29 24 22 0 65 1 65 7 7 22 
CALL[ ]	/* CallFunction */";
};
width = 551;
}
);
note = s_alt;
},
{
glyphname = s;
kernLeft = d;
layers = (
{
layerId = m01;
shapes = (
{
closed = 1;
nodes = (
(324,403,o),
(328,370,q),
(464,370,l),
(462,416,o),
(427,480,o),
(370,520,o),
(294,538,o),
(251,538,qs),
(212,538,o),
(137,522,o),
(78,485,o),
(39,424,o),
(37,381,qs),
(34,332,o),
(73,272,o),
(102,254,qs),
(121,241,o),
(167,226,o),
(214,216,o),
(262,206,o),
(283,201,qs),
(304,197,o),
(341,175,o),
(340,149,qs),
(340,138,o),
(325,119,o),
(304,110,o),
(279,107,o),
(268,107,qs),
(230,107,o),
(175,133,o),
(169,167,q),
(27,167,l),
(30,124,o),
(65,63,o),
(91,42,qs),
(127,14,o),
(214,-8,o),
(266,-8,qs),
(311,-8,o),
(399,15,o),
(428,41,qs),
(451,62,o),
(478,121,o),
(478,162,qs),
(479,204,o),
(445,262,o),
(419,278,qs),
(400,290,o),
(350,306,o),
(298,318,o),
(244,329,o),
(222,335,qs),
(199,341,o),
(174,361,o),
(173,378,qs),
(172,393,o),
(186,412,o),
(208,421,o),
(235,425,o),
(250,425,qs),
(281,425,o)
);
}
);
userData = {
assembly = "NPUSHB[ ]	/* 56 values pushed */
0 5 0 2 0 5 2 128 0 2 3 0 2 3 126 6 1 0 0 4 97 0 4 4 49 77 0 3 3 1 97 0 1 1 50 1 78 1 0 59 58 54 52 33 31 29 28 23 21 0 61 1 61 7 8 22 
CALL[ ]	/* CallFunction */";
};
width = 506;
}
);
note = s;
unicode = 115;
},
{
glyphname = c_alt;
kernLeft = d;
layers = (
{
layerId = m01;
shapes = (
{
closed = 1;
nodes = (
(213,139,o),
(183,179,o),
(170,232,o),
(170,265,qs),
(170,299,o),
(187,357,o),
(204,377,qs),
(219,394,o),
(261,412,o),
(291,412,qs),
(330,412,o),
(381,374,o),
(386,350,q),
(534,350,l),
(527,399,o),
(487,470,o),
(424,516,o),
(343,538,o),
(297,538,qs),
(234,538,o),
(135,499,o),
(68,428,o),
(31,326,o),
(31,265,qs),
(31,202,o),
(64,101,o),
(128,30,o),
(226,-8,o),
(292,-8,qs),
(334,-8,o),
(411,9,o),
(474,47,o),
(519,108,o),
(529,152,q),
(375,152,l),
(367,136,o),
(324,117,o),
(295,117,qs),
(261,117,o)
);
}
);
userData = {
assembly = "NPUSHB[ ]	/* 56 values pushed */
0 4 5 1 5 4 1 128 0 1 0 5 1 0 126 0 5 5 3 97 0 3 3 29 77 6 1 0 0 2 97 0 2 2 30 2 78 1 0 29 27 25 24 20 18 10 8 4 3 0 38 1 38 7 7 22 
CALL[ ]	/* CallFunction */";
};
width = 566;
}
);
note = c_alt;
},
{
glyphname = copyright;
layers = (
{
layerId = m01;
shapes = (
{
closed = 1;
nodes = (
(700,-32,o),
(806,74,o),
(863,225,o),
(863,320,qs),
(863,410,o),
(804,561,o),
(697,669,o),
(547,729,o),
(457,729,qs),
(365,729,o),
(214,671,o),
(106,565,o),
(47,413,o),
(47,320,qs),
(47,225,o),
(105,74,o),
(212,-32,o),
(364,-88,o),
(457,-88,qs),
(550,-88,o)
);
},
{
closed = 1;
nodes = (
(274,48,o),
(193,129,o),
(149,246,o),
(149,319,qs),
(149,391,o),
(194,507,o),
(276,589,o),
(391,633,o),
(461,633,qs),
(531,633,o),
(644,589,o),
(724,507,o),
(768,391,o),
(768,319,qs),
(768,246,o),
(726,129,o),
(646,48,o),
(533,5,o),
(461,5,qs),
(389,5,o)
);
},
{
closed = 1;
nodes = (
(374,272,o),
(374,321,qs),
(374,369,o),
(416,433,o),
(466,433,qs),
(495,433,o),
(532,403,o),
(536,386,q),
(647,386,l),
(636,459,o),
(539,529,o),
(468,529,qs),
(421,529,o),
(346,499,o),
(295,444,o),
(268,367,o),
(268,321,qs),
(268,273,o),
(292,196,o),
(341,140,o),
(415,110,o),
(464,110,qs),
(535,110,o),
(636,176,o),
(647,252,q),
(536,252,l),
(532,234,o),
(497,207,o),
(467,207,qs),
(415,207,o)
);
}
);
userData = {
assembly = "PUSHB[ ]	/* 2 values pushed */
6 100 
WCVTP[ ]	/* WriteCVTInPixels */
MPPEM[ ]	/* MeasurePixelPerEm */
PUSHB[ ]	/* 1 value pushed */
27 
LT[ ]	/* LessThan */
IF[ ]	/* If */
NPUSHB[ ]	/* 58 values pushed */
0 8 9 5 9 8 114 0 5 4 9 5 4 126 0 1 0 3 7 1 3 105 0 7 0 9 8 7 9 105 12 1 4 0 6 2 4 6 105 11 1 2 0 0 2 89 11 1 2 2 0 98 10 1 0 2 0 82 
ELSE[ ]	/* Else */
NPUSHB[ ]	/* 59 values pushed */
0 8 9 5 9 8 5 128 0 5 4 9 5 4 126 0 1 0 3 7 1 3 105 0 7 0 9 8 7 9 105 12 1 4 0 6 2 4 6 105 11 1 2 0 0 2 89 11 1 2 2 0 98 10 1 0 2 0 82 
EIF[ ]	/* EndIf */
NPUSHB[ ]	/* 35 values pushed */
41 40 21 20 1 0 65 63 61 60 58 56 48 46 44 43 40 69 41 69 31 29 20 39 21 39 11 9 0 19 1 19 13 8 22 
CALL[ ]	/* CallFunction */
PUSHB[ ]	/* 2 values pushed */
6 0 
WCVTP[ ]	/* WriteCVTInPixels */";
};
width = 910;
}
);
note = copyright;
unicode = 169;
},
{
glyphname = ampersand;
layers = (
{
layerId = m01;
shapes = (
{
closed = 1;
nodes = (
(565,141,l),
(597,190,o),
(627,290,o),
(630,332,q),
(506,332,l),
(503,286,o),
(481,230,q),
(370,354,l),
(396,370,o),
(446,409,o),
(484,457,o),
(508,513,o),
(508,546,qs),
(508,584,o),
(478,644,o),
(428,686,o),
(362,709,o),
(326,711,qs),
(282,712,o),
(203,690,o),
(144,642,o),
(109,571,o),
(109,523,qs),
(109,480,o),
(147,407,o),
(177,375,q),
(127,346,o),
(56,255,o),
(55,184,qs),
(55,139,o),
(85,68,o),
(113,42,qs),
(143,14,o),
(228,-16,o),
(276,-16,qs),
(341,-17,o),
(439,16,o),
(477,48,q),
(522,0,l),
(694,0,l)
);
},
{
closed = 1;
nodes = (
(379,119,o),
(322,99,o),
(287,101,qs),
(247,103,o),
(186,142,o),
(182,185,qs),
(179,220,o),
(222,272,o),
(254,291,q),
(400,132,l)
);
},
{
closed = 1;
nodes = (
(232,499,o),
(232,530,qs),
(233,564,o),
(277,598,o),
(308,599,qs),
(337,600,o),
(380,566,o),
(380,534,qs),
(380,518,o),
(361,488,o),
(333,462,o),
(301,440,o),
(289,433,q),
(269,455,o)
);
}
);
userData = {
assembly = "MPPEM[ ]	/* MeasurePixelPerEm */
PUSHB[ ]	/* 1 value pushed */
14 
LT[ ]	/* LessThan */
IF[ ]	/* If */
NPUSHB[ ]	/* 17 values pushed */
31 13 2 2 5 49 38 32 3 4 2 1 1 0 4 3 76 
ELSE[ ]	/* Else */
NPUSHB[ ]	/* 17 values pushed */
31 13 2 2 5 49 38 32 3 4 2 1 1 3 4 3 76 
EIF[ ]	/* EndIf */
MPPEM[ ]	/* MeasurePixelPerEm */
PUSHB[ ]	/* 1 value pushed */
14 
LT[ ]	/* LessThan */
IF[ ]	/* If */
NPUSHB[ ]	/* 35 values pushed */
0 5 5 1 97 0 1 1 38 77 0 2 2 0 97 6 3 2 0 0 50 77 0 4 4 0 97 6 3 2 0 0 50 0 78 
ELSE[ ]	/* Else */
NPUSHB[ ]	/* 32 values pushed */
0 5 5 1 97 0 1 1 38 77 0 2 2 3 95 6 1 3 3 39 77 0 4 4 0 97 0 0 0 50 0 78 
EIF[ ]	/* EndIf */
NPUSHB[ ]	/* 16 values pushed */
0 0 59 57 47 45 0 39 0 39 28 47 35 7 8 25 
CALL[ ]	/* CallFunction */";
};
width = 706;
}
);
note = ampersand;
unicode = 38;
},
{
glyphname = dollar;
layers = (
{
layerId = m01;
shapes = (
{
closed = 1;
nodes = (
(602,585,o),
(490,701,o),
(396,712,q),
(396,849,l),
(268,849,l),
(268,712,l),
(230,706,o),
(161,678,o),
(106,630,o),
(71,561,o),
(69,515,qs),
(67,464,o),
(102,383,o),
(139,356,qs),
(173,330,o),
(258,303,o),
(298,294,qs),
(330,286,o),
(394,277,o),
(425,269,qs),
(446,262,o),
(478,236,o),
(479,209,qs),
(479,182,o),
(454,149,o),
(415,131,o),
(367,126,o),
(344,126,qs),
(318,126,o),
(266,138,o),
(222,163,o),
(191,205,o),
(188,235,q),
(47,235,l),
(47,166,o),
(108,64,o),
(165,32,qs),
(211,8,o),
(265,-1,q),
(265,-136,l),
(393,-136,l),
(393,-6,l),
(434,-2,o),
(506,21,o),
(537,41,qs),
(573,66,o),
(621,151,o),
(620,212,qs),
(620,266,o),
(584,336,o),
(554,359,qs),
(522,382,o),
(438,403,o),
(394,411,qs),
(363,416,o),
(298,430,o),
(269,441,qs),
(246,451,o),
(210,483,o),
(212,514,qs),
(213,538,o),
(237,568,o),
(272,585,o),
(314,590,o),
(333,590,qs),
(358,589,o),
(406,580,o),
(443,557,o),
(468,519,o),
(471,489,q),
(607,489,l)
);
}
);
userData = {
assembly = "NPUSHB[ ]	/* 70 values pushed */
67 64 2 0 4 31 28 2 1 3 2 76 6 1 5 0 2 0 5 2 128 0 2 3 0 2 3 126 0 4 0 0 5 4 0 105 0 3 1 1 3 89 0 3 3 1 95 0 1 3 1 79 0 0 0 70 0 70 66 65 43 41 37 36 30 29 36 7 8 23 
CALL[ ]	/* CallFunction */";
};
width = 669;
}
);
note = dollar;
unicode = 36;
},
{
glyphname = parenleft;
layers = (
{
layerId = m01;
shapes = (
{
closed = 1;
nodes = (
(134,-86,o),
(215,-195,q),
(378,-195,l),
(328,-142,o),
(265,-21,o),
(220,108,o),
(196,242,o),
(196,307,qs),
(196,372,o),
(220,505,o),
(265,635,o),
(328,756,o),
(378,809,q),
(215,809,l),
(134,700,o),
(53,441,o),
(53,307,qs),
(53,173,o)
);
}
);
userData = {
assembly = "NPUSHB[ ]	/* 21 values pushed */
0 0 1 1 0 87 0 0 0 1 95 0 1 0 1 79 26 19 2 8 24 
CALL[ ]	/* CallFunction */";
};
width = 336;
}
);
note = parenleft;
unicode = 40;
},
{
glyphname = parenright;
layers = (
{
layerId = m01;
shapes = (
{
closed = 1;
nodes = (
(202,700,o),
(121,809,q),
(-42,809,l),
(8,756,o),
(71,635,o),
(116,505,o),
(140,372,o),
(140,307,qs),
(140,242,o),
(116,108,o),
(71,-21,o),
(8,-142,o),
(-42,-195,q),
(121,-195,l),
(202,-86,o),
(283,173,o),
(283,307,qs),
(283,441,o)
);
}
);
userData = {
assembly = "NPUSHB[ ]	/* 21 values pushed */
0 1 0 0 1 87 0 1 1 0 95 0 0 1 0 79 26 19 2 8 24 
CALL[ ]	/* CallFunction */";
};
width = 336;
}
);
note = parenright;
unicode = 41;
},
{
glyphname = cent;
layers = (
{
layerId = m01;
shapes = (
{
closed = 1;
nodes = (
(229,137,o),
(200,178,o),
(188,232,o),
(188,265,qs),
(188,296,o),
(200,350,o),
(229,391,o),
(276,413,o),
(309,413,qs),
(348,413,o),
(396,374,o),
(401,350,q),
(550,350,l),
(539,432,o),
(442,523,o),
(371,535,q),
(371,681,l),
(240,681,l),
(240,532,l),
(148,512,o),
(47,370,o),
(47,265,qs),
(47,155,o),
(142,10,o),
(240,-9,q),
(240,-149,l),
(371,-149,l),
(371,-10,l),
(406,-4,o),
(467,24,o),
(513,70,o),
(544,133,o),
(550,175,q),
(401,175,l),
(396,150,o),
(350,114,o),
(310,114,qs),
(276,114,o)
);
}
);
userData = {
assembly = "NPUSHB[ ]	/* 72 values pushed */
21 18 2 5 3 12 9 2 2 0 2 76 0 4 5 1 5 4 1 128 0 1 0 5 1 0 126 0 3 0 5 4 3 5 105 6 1 0 2 2 0 89 6 1 0 0 2 95 0 2 0 2 79 1 0 29 27 25 24 20 19 11 10 4 3 0 37 1 37 7 8 22 
CALL[ ]	/* CallFunction */";
};
width = 598;
}
);
note = cent;
unicode = 162;
},
{
glyphname = section;
layers = (
{
layerId = m01;
shapes = (
{
closed = 1;
nodes = (
(366,584,o),
(368,555,q),
(494,555,l),
(492,595,o),
(459,655,o),
(406,694,o),
(334,714,o),
(293,716,qs),
(255,717,o),
(177,703,o),
(112,667,o),
(69,608,o),
(67,564,qs),
(65,527,o),
(93,472,o),
(113,457,q),
(94,438,o),
(64,392,o),
(62,361,qs),
(59,315,o),
(96,255,o),
(124,238,qs),
(150,222,o),
(211,206,o),
(246,199,qs),
(327,181,ls),
(349,177,o),
(374,157,o),
(373,140,qs),
(372,125,o),
(355,107,o),
(330,97,o),
(297,94,o),
(281,94,qs),
(263,94,o),
(228,102,o),
(199,119,o),
(179,147,o),
(176,167,q),
(47,167,l),
(47,113,o),
(99,34,o),
(147,10,qs),
(180,-7,o),
(251,-19,o),
(287,-19,qs),
(325,-19,o),
(400,-6,o),
(433,16,qs),
(468,38,o),
(504,105,o),
(503,145,qs),
(503,174,o),
(481,228,o),
(461,248,q),
(505,292,o),
(505,353,qs),
(504,388,o),
(480,445,o),
(451,465,qs),
(420,485,o),
(339,500,o),
(297,507,qs),
(285,509,o),
(251,515,o),
(219,527,o),
(196,547,o),
(197,562,qs),
(197,577,o),
(214,595,o),
(238,605,o),
(265,608,o),
(277,608,qs),
(312,607,o)
);
},
{
closed = 1;
nodes = (
(285,402,o),
(306,397,qs),
(316,395,o),
(342,388,o),
(365,376,o),
(379,356,o),
(378,342,qs),
(377,325,o),
(360,299,o),
(346,291,q),
(320,296,o),
(263,304,o),
(238,312,qs),
(219,317,o),
(193,343,o),
(194,361,qs),
(194,377,o),
(209,406,o),
(224,414,q),
(244,409,o)
);
}
);
userData = {
assembly = "NPUSHB[ ]	/* 9 values pushed */
86 83 57 18 4 2 5 1 76 
MPPEM[ ]	/* MeasurePixelPerEm */
PUSHB[ ]	/* 1 value pushed */
10 
LT[ ]	/* LessThan */
IF[ ]	/* If */
NPUSHB[ ]	/* 37 values pushed */
0 5 0 2 0 5 2 128 0 2 3 0 2 3 126 6 1 0 0 4 97 0 4 4 46 77 0 3 3 1 97 0 1 1 47 1 78 
ELSE[ ]	/* Else */
MPPEM[ ]	/* MeasurePixelPerEm */
PUSHB[ ]	/* 1 value pushed */
46 
LT[ ]	/* LessThan */
IF[ ]	/* If */
NPUSHB[ ]	/* 37 values pushed */
0 5 0 2 0 5 2 128 0 2 3 0 2 3 126 6 1 0 0 4 97 0 4 4 46 77 0 3 3 1 97 0 1 1 50 1 78 
ELSE[ ]	/* Else */
NPUSHB[ ]	/* 34 values pushed */
0 5 0 2 0 5 2 128 0 2 3 0 2 3 126 0 3 0 1 3 1 101 6 1 0 0 4 97 0 4 4 46 0 78 
EIF[ ]	/* EndIf */
EIF[ ]	/* EndIf */
NPUSHB[ ]	/* 19 values pushed */
1 0 71 70 66 64 40 38 34 33 28 26 0 73 1 73 7 8 22 
CALL[ ]	/* CallFunction */";
};
width = 553;
}
);
note = section;
unicode = 167;
},
{
glyphname = uni04C1;
layers = (
{
layerId = m01;
shapes = (
{
closed = 1;
nodes = (
(781,0,l),
(950,0,l),
(719,369,l),
(947,708,l),
(779,708,l),
(595,416,l),
(549,416,l),
(549,708,l),
(404,708,l),
(404,416,l),
(357,416,l),
(174,708,l),
(5,708,l),
(234,369,l),
(2,0,l),
(171,0,l),
(350,288,l),
(404,288,l),
(404,0,l),
(549,0,l),
(549,288,l),
(602,288,l)
);
},
{
closed = 1;
nodes = (
(664,844,o),
(675,925,q),
(552,925,l),
(546,897,o),
(507,866,o),
(478,866,qs),
(449,866,o),
(410,897,o),
(403,925,q),
(281,925,l),
(291,844,o),
(396,768,o),
(477,768,qs),
(558,768,o)
);
}
);
userData = {
assembly = "PUSHB[ ]	/* 7 values pushed */
18 7 2 1 4 1 76 
MPPEM[ ]	/* MeasurePixelPerEm */
PUSHB[ ]	/* 1 value pushed */
22 
LT[ ]	/* LessThan */
IF[ ]	/* If */
NPUSHB[ ]	/* 42 values pushed */
13 1 11 12 12 11 112 0 12 15 1 10 3 12 10 106 6 1 4 14 9 2 1 0 4 1 103 7 5 2 3 3 20 77 8 2 2 0 0 21 0 78 
ELSE[ ]	/* Else */
NPUSHB[ ]	/* 41 values pushed */
13 1 11 12 11 133 0 12 15 1 10 3 12 10 106 6 1 4 14 9 2 1 0 4 1 103 7 5 2 3 3 20 77 8 2 2 0 0 21 0 78 
EIF[ ]	/* EndIf */
NPUSHB[ ]	/* 30 values pushed */
23 22 0 0 33 32 30 28 26 25 22 35 23 35 0 21 0 21 18 17 17 17 17 18 17 17 17 16 7 31 
CALL[ ]	/* CallFunction */";
};
width = 952;
}
);
note = uni04C1;
unicode = 1217;
},
{
glyphname = uni04C2;
layers = (
{
layerId = m01;
shapes = (
{
closed = 1;
nodes = (
(664,0,l),
(834,0,l),
(650,277,l),
(822,527,l),
(657,527,l),
(532,322,l),
(489,322,l),
(489,527,l),
(346,527,l),
(346,322,l),
(304,322,l),
(180,527,l),
(14,527,l),
(186,277,l),
(2,0,l),
(174,0,l),
(298,200,l),
(346,200,l),
(346,0,l),
(489,0,l),
(489,200,l),
(538,200,l)
);
},
{
closed = 1;
nodes = (
(607,655,o),
(618,737,q),
(494,737,l),
(488,709,o),
(448,677,o),
(419,677,qs),
(390,677,o),
(350,709,o),
(343,737,q),
(220,737,l),
(230,655,o),
(337,577,o),
(419,577,qs),
(501,577,o)
);
}
);
userData = {
assembly = "PUSHB[ ]	/* 7 values pushed */
18 7 2 1 4 1 76 
MPPEM[ ]	/* MeasurePixelPerEm */
PUSHB[ ]	/* 1 value pushed */
22 
LT[ ]	/* LessThan */
IF[ ]	/* If */
NPUSHB[ ]	/* 42 values pushed */
13 1 11 12 12 11 112 0 12 15 1 10 3 12 10 106 6 1 4 14 9 2 1 0 4 1 103 7 5 2 3 3 22 77 8 2 2 0 0 21 0 78 
ELSE[ ]	/* Else */
NPUSHB[ ]	/* 41 values pushed */
13 1 11 12 11 133 0 12 15 1 10 3 12 10 106 6 1 4 14 9 2 1 0 4 1 103 7 5 2 3 3 22 77 8 2 2 0 0 21 0 78 
EIF[ ]	/* EndIf */
NPUSHB[ ]	/* 30 values pushed */
23 22 0 0 33 32 30 28 26 25 22 35 23 35 0 21 0 21 18 17 17 17 17 18 17 17 17 16 7 31 
CALL[ ]	/* CallFunction */";
};
width = 836;
}
);
note = uni04C2;
unicode = 1218;
},
{
glyphname = w_alt;
kernLeft = w;
layers = (
{
layerId = m01;
shapes = (
{
closed = 1;
nodes = (
(401,265,l),
(477,0,l),
(635,0,l),
(797,527,l),
(650,527,l),
(553,161,l),
(475,419,l),
(332,419,l),
(254,161,l),
(158,527,l),
(2,527,l),
(165,0,l),
(328,0,l)
);
}
);
userData = {
assembly = "NPUSHB[ ]	/* 43 values pushed */
11 6 3 3 3 1 1 76 0 1 0 3 0 1 3 128 2 1 0 0 22 77 5 4 2 3 3 21 3 78 0 0 0 12 0 12 17 18 18 17 6 7 26 
CALL[ ]	/* CallFunction */";
};
width = 799;
}
);
note = w_alt;
},
{
glyphname = W_alt;
kernLeft = W;
kernRight = W;
layers = (
{
layerId = m01;
shapes = (
{
closed = 1;
nodes = (
(463,399,l),
(560,0,l),
(748,0,l),
(909,708,l),
(753,708,l),
(649,165,l),
(555,555,l),
(375,555,l),
(279,165,l),
(168,708,l),
(3,708,l),
(176,0,l),
(367,0,l)
);
}
);
userData = {
assembly = "NPUSHB[ ]	/* 43 values pushed */
11 6 3 3 3 1 1 76 0 1 0 3 0 1 3 128 2 1 0 0 20 77 5 4 2 3 3 21 3 78 0 0 0 12 0 12 17 18 18 17 6 7 26 
CALL[ ]	/* CallFunction */";
};
width = 912;
}
);
note = W_alt;
},
{
glyphname = zero;
layers = (
{
layerId = m01;
shapes = (
{
closed = 1;
nodes = (
(187,231,o),
(187,356,qs),
(187,480,o),
(258,589,o),
(323,589,qs),
(387,589,o),
(459,480,o),
(459,356,qs),
(459,231,o),
(387,123,o),
(323,123,qs),
(258,123,o)
);
},
{
closed = 1;
nodes = (
(159,675,o),
(85,586,o),
(45,450,o),
(45,356,qs),
(45,261,o),
(84,125,o),
(157,37,o),
(260,-5,o),
(323,-5,qs),
(386,-5,o),
(489,37,o),
(561,125,o),
(601,261,o),
(601,356,qs),
(601,450,o),
(560,586,o),
(487,675,o),
(384,717,o),
(323,717,qs),
(261,717,o)
);
}
);
userData = {
assembly = "NPUSHB[ ]	/* 42 values pushed */
0 1 1 2 97 5 1 2 2 46 77 4 1 0 0 3 97 0 3 3 47 3 78 13 12 1 0 23 21 12 31 13 31 7 5 0 11 1 11 6 8 22 
CALL[ ]	/* CallFunction */";
};
width = 645;
}
);
note = zero;
unicode = 48;
},
{
glyphname = one;
layers = (
{
layerId = m01;
shapes = (
{
closed = 1;
nodes = (
(194,708,l),
(183,688,o),
(145,655,o),
(124,644,qs),
(100,632,o),
(45,621,o),
(13,621,q),
(13,521,l),
(157,521,l),
(157,0,l),
(303,0,l),
(303,708,l)
);
}
);
userData = {
assembly = "NPUSHB[ ]	/* 26 values pushed */
0 2 0 1 0 2 1 103 0 3 3 38 77 0 0 0 39 0 78 21 17 17 16 4 8 26 
CALL[ ]	/* CallFunction */";
};
width = 398;
}
);
note = one;
unicode = 49;
},
{
glyphname = two;
layers = (
{
layerId = m01;
shapes = (
{
closed = 1;
nodes = (
(23,0,l),
(499,0,l),
(499,128,l),
(222,128,l),
(252,154,o),
(319,208,o),
(356,240,qs),
(375,257,o),
(406,285,o),
(433,313,o),
(460,346,o),
(472,366,qs),
(491,395,o),
(507,463,o),
(507,501,qs),
(507,553,o),
(473,630,o),
(445,656,qs),
(380,718,o),
(267,716,qs),
(225,716,o),
(149,699,o),
(117,680,qs),
(73,654,o),
(20,567,o),
(18,508,q),
(153,508,l),
(158,546,o),
(213,586,o),
(258,587,qs),
(308,588,o),
(368,536,o),
(366,483,qs),
(365,450,o),
(332,396,o),
(309,373,qs),
(286,348,o),
(237,302,o),
(213,282,qs),
(23,118,l)
);
}
);
userData = {
assembly = "NPUSHB[ ]	/* 43 values pushed */
39 1 4 3 1 76 0 1 0 3 0 1 3 128 0 0 0 2 97 0 2 2 46 77 0 3 3 4 95 0 4 4 39 4 78 17 31 37 18 40 5 8 27 
CALL[ ]	/* CallFunction */";
};
width = 545;
}
);
note = two;
unicode = 50;
},
{
glyphname = three;
layers = (
{
layerId = m01;
shapes = (
{
closed = 1;
nodes = (
(192,550,o),
(250,589,o),
(288,589,qs),
(309,589,o),
(347,581,o),
(375,562,o),
(391,529,o),
(391,505,qs),
(391,485,o),
(375,456,o),
(363,445,qs),
(346,431,o),
(304,418,o),
(278,418,qs),
(230,418,l),
(230,300,l),
(301,300,ls),
(324,300,o),
(367,293,o),
(385,281,qs),
(399,273,o),
(416,239,o),
(416,219,qs),
(416,192,o),
(396,155,o),
(362,133,o),
(318,123,o),
(294,123,qs),
(273,123,o),
(233,130,o),
(198,149,o),
(171,181,o),
(164,206,q),
(21,206,l),
(37,95,o),
(181,-7,o),
(294,-7,qs),
(345,-7,o),
(439,17,o),
(511,68,o),
(557,148,o),
(559,206,qs),
(561,269,o),
(507,363,o),
(446,383,q),
(488,406,o),
(532,486,o),
(532,530,qs),
(532,582,o),
(491,654,o),
(424,698,o),
(343,717,o),
(298,717,qs),
(242,717,o),
(153,692,o),
(86,638,o),
(46,562,o),
(41,508,q),
(183,508,l)
);
}
);
userData = {
assembly = "NPUSHB[ ]	/* 68 values pushed */
13 1 4 5 1 76 8 1 7 6 5 6 7 5 128 0 2 4 3 4 2 3 128 0 5 0 4 2 5 4 103 0 6 6 0 97 0 0 0 46 77 0 3 3 1 97 0 1 1 47 1 78 0 0 0 58 0 58 41 33 41 36 18 46 36 9 8 29 
CALL[ ]	/* CallFunction */";
};
width = 605;
}
);
note = three;
unicode = 51;
},
{
glyphname = four;
layers = (
{
layerId = m01;
shapes = (
{
closed = 1;
nodes = (
(346,708,l),
(30,233,l),
(30,132,l),
(376,132,l),
(376,0,l),
(518,0,l),
(518,132,l),
(598,132,l),
(598,257,l),
(518,257,l),
(518,708,l)
);
},
{
closed = 1;
nodes = (
(376,257,l),
(195,257,l),
(376,541,l)
);
}
);
userData = {
assembly = "NPUSHB[ ]	/* 40 values pushed */
13 1 0 4 8 1 1 0 2 76 5 1 0 3 1 1 2 0 1 104 0 4 4 38 77 0 2 2 39 2 78 17 18 17 17 17 16 6 8 28 
CALL[ ]	/* CallFunction */";
};
width = 623;
}
);
note = four;
unicode = 52;
},
{
glyphname = seven;
layers = (
{
layerId = m01;
shapes = (
{
closed = 1;
nodes = (
(493,600,l),
(493,708,l),
(0,708,l),
(0,579,l),
(328,579,l),
(68,0,l),
(230,0,l)
);
}
);
userData = {
assembly = "NPUSHB[ ]	/* 34 values pushed */
5 1 0 1 1 76 0 0 0 1 95 0 1 1 38 77 3 1 2 2 39 2 78 0 0 0 6 0 6 17 17 4 8 24 
CALL[ ]	/* CallFunction */";
};
width = 504;
}
);
note = seven;
unicode = 55;
},
{
glyphname = eight;
layers = (
{
layerId = m01;
shapes = (
{
closed = 1;
nodes = (
(521,357,o),
(459,380,q),
(501,402,o),
(546,482,o),
(546,525,qs),
(546,577,o),
(508,649,o),
(443,695,o),
(358,717,o),
(311,717,qs),
(264,717,o),
(177,697,o),
(111,650,o),
(72,577,o),
(72,525,qs),
(72,482,o),
(116,402,o),
(159,380,q),
(97,357,o),
(44,261,o),
(46,199,qs),
(48,143,o),
(94,65,o),
(167,15,o),
(260,-8,o),
(310,-8,qs),
(359,-8,o),
(452,15,o),
(525,65,o),
(570,144,o),
(572,199,qs),
(574,261,o)
);
},
{
closed = 1;
nodes = (
(364,583,o),
(390,562,o),
(405,529,o),
(405,507,qs),
(404,462,o),
(351,419,o),
(309,419,qs),
(267,419,o),
(213,462,o),
(212,507,qs),
(212,529,o),
(227,562,o),
(254,583,o),
(289,593,o),
(309,593,qs),
(328,593,o)
);
},
{
closed = 1;
nodes = (
(407,150,o),
(374,127,o),
(331,117,o),
(309,117,qs),
(287,117,o),
(244,127,o),
(210,150,o),
(189,187,o),
(189,214,qs),
(189,240,o),
(210,277,o),
(243,300,o),
(286,311,o),
(308,311,qs),
(331,311,o),
(374,300,o),
(408,277,o),
(428,241,o),
(428,214,qs),
(428,187,o)
);
}
);
userData = {
assembly = "NPUSHB[ ]	/* 54 values pushed */
29 13 2 4 3 1 76 0 3 0 4 5 3 4 105 6 1 2 2 1 97 0 1 1 46 77 0 5 5 0 97 0 0 0 50 0 78 33 32 64 62 54 52 41 39 32 47 33 47 46 36 7 8 24 
CALL[ ]	/* CallFunction */";
};
width = 618;
}
);
note = eight;
unicode = 56;
},
{
glyphname = nine;
layers = (
{
layerId = m01;
shapes = (
{
closed = 1;
nodes = (
(368,566,o),
(396,533,o),
(409,490,o),
(408,468,qs),
(405,423,o),
(343,371,o),
(298,371,qs),
(273,371,o),
(231,386,o),
(201,415,o),
(184,457,o),
(185,484,qs),
(187,535,o),
(251,589,o),
(300,587,qs),
(327,587,o)
);
},
{
closed = 1;
nodes = (
(52,141,o),
(93,71,o),
(122,47,qs),
(156,20,o),
(246,-8,o),
(297,-7,qs),
(385,-5,o),
(496,73,o),
(527,135,qs),
(553,186,o),
(572,306,o),
(570,368,qs),
(568,440,o),
(535,570,o),
(496,620,qs),
(464,662,o),
(367,713,o),
(301,714,qs),
(248,714,o),
(155,683,o),
(85,623,o),
(44,536,o),
(43,481,qs),
(42,427,o),
(74,341,o),
(134,281,o),
(221,248,o),
(274,247,qs),
(319,247,o),
(403,278,o),
(434,311,q),
(436,284,o),
(420,208,o),
(400,180,qs),
(383,154,o),
(332,122,o),
(294,121,qs),
(259,120,o),
(197,153,o),
(188,189,q),
(46,189,l)
);
}
);
userData = {
assembly = "NPUSHB[ ]	/* 70 values pushed */
25 1 3 1 1 76 8 1 6 3 2 3 6 2 128 0 1 0 3 6 1 3 105 7 1 0 0 4 97 0 4 4 46 77 0 2 2 5 97 0 5 5 47 5 78 16 16 1 0 16 56 16 56 51 49 39 37 29 27 20 18 9 7 0 15 1 15 9 8 22 
CALL[ ]	/* CallFunction */";
};
width = 615;
}
);
note = nine;
unicode = 57;
},
{
glyphname = uni0430;
kernLeft = a;
layers = (
{
layerId = m01;
shapes = (
{
closed = 1;
nodes = (
(369,158,o),
(357,142,q),
(338,122,o),
(287,100,o),
(258,101,qs),
(243,101,o),
(213,110,o),
(192,126,o),
(179,150,o),
(179,166,qs),
(179,185,o),
(198,211,o),
(226,227,o),
(264,233,o),
(279,233,qs),
(305,233,o),
(357,233,o),
(382,233,q),
(382,199,o)
);
},
{
closed = 1;
nodes = (
(519,0,l),
(519,285,ls),
(520,333,o),
(503,434,o),
(469,473,qs),
(450,493,o),
(407,518,o),
(359,533,o),
(309,538,o),
(285,538,qs),
(242,538,o),
(161,521,o),
(95,481,o),
(52,416,o),
(47,368,q),
(192,368,l),
(195,383,o),
(214,404,o),
(241,416,o),
(273,420,o),
(288,420,qs),
(334,419,o),
(385,370,o),
(382,321,q),
(274,321,ls),
(226,321,o),
(145,307,o),
(113,290,qs),
(75,268,o),
(38,201,o),
(37,158,qs),
(37,116,o),
(66,55,o),
(92,33,qs),
(141,-6,o),
(214,-8,qs),
(270,-9,o),
(357,25,o),
(387,65,q),
(390,0,l)
);
}
);
userData = {
assembly = "MPPEM[ ]	/* MeasurePixelPerEm */
PUSHB[ ]	/* 1 value pushed */
29 
LT[ ]	/* LessThan */
IF[ ]	/* If */
PUSHB[ ]	/* 6 values pushed */
19 1 2 1 1 76 
ELSE[ ]	/* Else */
PUSHB[ ]	/* 6 values pushed */
19 1 7 1 1 76 
EIF[ ]	/* EndIf */
MPPEM[ ]	/* MeasurePixelPerEm */
PUSHB[ ]	/* 1 value pushed */
29 
LT[ ]	/* LessThan */
IF[ ]	/* If */
NPUSHB[ ]	/* 38 values pushed */
0 5 4 3 4 5 3 128 0 3 0 0 1 3 0 103 0 4 4 6 97 0 6 6 29 77 0 1 1 2 97 7 1 2 2 30 2 78 
ELSE[ ]	/* Else */
NPUSHB[ ]	/* 42 values pushed */
0 5 4 3 4 5 3 128 0 3 0 0 1 3 0 103 0 4 4 6 97 0 6 6 29 77 0 7 7 21 77 0 1 1 2 97 0 2 2 30 2 78 
EIF[ ]	/* EndIf */
NPUSHB[ ]	/* 11 values pushed */
24 36 20 34 41 39 40 64 8 7 30 
CALL[ ]	/* CallFunction */";
};
width = 573;
}
);
note = uni0430;
unicode = 1072;
},
{
glyphname = uni0435;
kernLeft = uni0444;
layers = (
{
layerId = m01;
shapes = (
{
closed = 1;
nodes = (
(180,172,o),
(176,219,q),
(536,219,l),
(547,285,o),
(526,401,o),
(465,488,o),
(361,538,o),
(290,538,qs),
(229,538,o),
(134,498,o),
(70,425,o),
(35,325,o),
(35,266,qs),
(35,136,o),
(166,-8,o),
(294,-8,qs),
(336,-8,o),
(412,9,o),
(475,47,o),
(520,107,o),
(531,148,q),
(383,148,l),
(369,126,o),
(326,107,o),
(296,107,qs),
(238,107,o)
);
},
{
closed = 1;
nodes = (
(182,361,o),
(241,416,o),
(294,417,qs),
(316,417,o),
(357,405,o),
(387,380,o),
(405,341,o),
(405,316,q),
(177,316,l)
);
}
);
userData = {
assembly = "NPUSHB[ ]	/* 64 values pushed */
0 1 4 0 4 1 0 128 8 1 6 0 4 1 6 4 103 0 5 5 3 97 0 3 3 29 77 7 1 0 0 2 97 0 2 2 30 2 78 26 26 1 0 26 34 26 34 32 30 23 22 18 16 10 8 4 3 0 25 1 25 9 7 22 
CALL[ ]	/* CallFunction */";
};
width = 577;
}
);
note = uni0435;
unicode = 1077;
},
{
glyphname = uni043E;
kernLeft = uni0444;
layers = (
{
layerId = m01;
shapes = (
{
closed = 1;
nodes = (
(426,328,o),
(426,265,qs),
(426,201,o),
(365,117,o),
(301,117,qs),
(237,117,o),
(174,201,o),
(174,265,qs),
(174,328,o),
(237,412,o),
(301,412,qs),
(365,412,o)
);
},
{
closed = 1;
nodes = (
(568,136,o),
(568,266,qs),
(568,328,o),
(531,429,o),
(462,501,o),
(363,538,o),
(301,538,qs),
(238,538,o),
(139,501,o),
(72,429,o),
(35,328,o),
(35,266,qs),
(35,137,o),
(173,-8,o),
(301,-8,qs),
(429,-8,o)
);
}
);
userData = {
assembly = "NPUSHB[ ]	/* 42 values pushed */
4 1 0 0 3 97 0 3 3 29 77 0 1 1 2 97 5 1 2 2 30 2 78 13 12 1 0 21 19 12 27 13 27 7 5 0 11 1 11 6 7 22 
CALL[ ]	/* CallFunction */";
};
width = 603;
}
);
note = uni043E;
unicode = 1086;
},
{
glyphname = uni0441;
kernLeft = uni0444;
layers = (
{
layerId = m01;
shapes = (
{
closed = 1;
nodes = (
(175,198,o),
(175,262,qs),
(175,292,o),
(187,346,o),
(216,388,o),
(263,412,o),
(296,412,qs),
(335,412,o),
(384,374,o),
(389,350,q),
(537,350,l),
(530,399,o),
(489,470,o),
(426,516,o),
(345,538,o),
(299,538,qs),
(236,538,o),
(138,499,o),
(71,427,o),
(35,325,o),
(35,264,qs),
(35,201,o),
(68,100,o),
(132,29,o),
(229,-8,o),
(295,-8,qs),
(339,-8,o),
(421,12,o),
(486,58,o),
(530,128,o),
(537,179,q),
(389,179,l),
(384,155,o),
(337,117,o),
(297,117,qs),
(230,117,o)
);
}
);
userData = {
assembly = "NPUSHB[ ]	/* 56 values pushed */
0 4 5 1 5 4 1 128 0 1 0 5 1 0 126 0 5 5 3 97 0 3 3 29 77 6 1 0 0 2 97 0 2 2 30 2 78 1 0 29 27 25 24 20 18 10 8 4 3 0 35 1 35 7 7 22 
CALL[ ]	/* CallFunction */";
};
width = 567;
}
);
note = uni0441;
unicode = 1089;
},
{
glyphname = uni0218;
layers = (
{
layerId = m01;
shapes = (
{
closed = 1;
nodes = (
(578,557,o),
(536,637,o),
(469,689,o),
(380,716,o),
(328,717,qs),
(281,718,o),
(187,700,o),
(109,654,o),
(59,575,o),
(56,515,qs),
(54,464,o),
(93,380,o),
(132,353,qs),
(164,330,o),
(245,305,o),
(282,296,qs),
(300,292,o),
(326,285,o),
(350,279,o),
(375,273,o),
(391,269,qs),
(414,263,o),
(453,233,o),
(453,201,qs),
(453,178,o),
(433,148,o),
(398,131,o),
(352,125,o),
(327,126,qs),
(303,127,o),
(256,137,o),
(218,159,o),
(190,193,o),
(184,219,q),
(36,219,l),
(39,162,o),
(85,78,o),
(162,22,o),
(262,-7,o),
(319,-8,qs),
(378,-10,o),
(476,13,o),
(513,39,qs),
(552,65,o),
(598,151,o),
(598,212,qs),
(597,268,o),
(559,338,o),
(497,380,o),
(417,404,o),
(378,412,qs),
(362,415,o),
(330,422,o),
(296,431,o),
(261,442,o),
(246,449,qs),
(225,459,o),
(200,491,o),
(201,514,qs),
(201,536,o),
(223,566,o),
(257,583,o),
(296,590,o),
(314,590,qs),
(365,589,o),
(433,549,o),
(439,504,q),
(583,504,l)
);
},
{
closed = 1;
nodes = (
(269,-253,o),
(250,-267,q),
(275,-303,l),
(296,-296,o),
(338,-264,o),
(369,-220,o),
(386,-171,o),
(386,-146,qs),
(386,-130,o),
(379,-100,o),
(361,-76,o),
(333,-62,o),
(315,-62,qs),
(285,-62,o),
(250,-95,o),
(250,-124,qs),
(250,-151,o),
(281,-183,o),
(308,-185,q),
(302,-211,o)
);
}
);
userData = {
assembly = "PUSHB[ ]	/* 5 values pushed */
85 84 2 6 73 
MPPEM[ ]	/* MeasurePixelPerEm */
PUSHB[ ]	/* 1 value pushed */
12 
LT[ ]	/* LessThan */
IF[ ]	/* If */
NPUSHB[ ]	/* 42 values pushed */
7 1 5 0 2 0 5 2 128 0 2 3 0 2 3 126 0 6 1 6 134 0 0 0 4 97 0 4 4 46 77 0 3 3 1 97 0 1 1 47 1 78 
ELSE[ ]	/* Else */
NPUSHB[ ]	/* 42 values pushed */
7 1 5 0 2 0 5 2 128 0 2 3 0 2 3 126 0 6 1 6 134 0 0 0 4 97 0 4 4 46 77 0 3 3 1 97 0 1 1 50 1 78 
EIF[ ]	/* EndIf */
NPUSHB[ ]	/* 20 values pushed */
0 0 75 73 0 67 0 67 63 61 39 37 33 32 28 26 34 8 8 23 
CALL[ ]	/* CallFunction */";
};
width = 635;
}
);
note = uni0218;
unicode = 536;
},
{
glyphname = uni0219;
kernLeft = d;
layers = (
{
layerId = m01;
shapes = (
{
closed = 1;
nodes = (
(333,403,o),
(336,370,q),
(472,370,l),
(470,416,o),
(435,480,o),
(378,520,o),
(302,538,o),
(260,538,qs),
(220,538,o),
(145,522,o),
(86,485,o),
(47,424,o),
(45,381,qs),
(42,332,o),
(81,272,o),
(110,254,qs),
(131,241,o),
(175,226,o),
(222,216,o),
(270,206,o),
(292,201,qs),
(313,197,o),
(348,176,o),
(348,153,qs),
(348,137,o),
(333,119,o),
(312,110,o),
(287,107,o),
(276,107,qs),
(238,107,o),
(183,133,o),
(177,167,q),
(31,167,l),
(34,124,o),
(73,63,o),
(99,42,qs),
(135,14,o),
(229,-8,o),
(281,-8,qs),
(326,-8,o),
(407,15,o),
(436,41,qs),
(460,62,o),
(487,121,o),
(486,162,qs),
(485,207,o),
(453,262,o),
(427,278,qs),
(408,290,o),
(359,306,o),
(306,318,o),
(253,329,o),
(230,335,qs),
(207,341,o),
(182,361,o),
(181,378,qs),
(181,392,o),
(194,412,o),
(218,423,o),
(243,426,o),
(261,426,qs),
(291,425,o)
);
},
{
closed = 1;
nodes = (
(220,-254,o),
(201,-268,q),
(226,-304,l),
(247,-297,o),
(289,-265,o),
(320,-221,o),
(337,-172,o),
(337,-147,qs),
(337,-131,o),
(330,-101,o),
(312,-77,o),
(284,-63,o),
(266,-63,qs),
(236,-63,o),
(201,-96,o),
(201,-125,qs),
(201,-152,o),
(232,-184,o),
(259,-186,q),
(253,-212,o)
);
}
);
userData = {
assembly = "NPUSHB[ ]	/* 68 values pushed */
79 78 2 6 73 0 5 0 2 0 5 2 128 0 2 3 0 2 3 126 0 6 1 6 134 7 1 0 0 4 97 0 4 4 49 77 0 3 3 1 97 0 1 1 50 1 78 1 0 69 67 59 58 54 52 33 31 29 28 23 21 0 61 1 61 8 8 22 
CALL[ ]	/* CallFunction */";
};
width = 519;
}
);
note = uni0219;
unicode = 537;
},
{
glyphname = uni021A;
kernLeft = uni0422;
kernRight = uni0422;
layers = (
{
layerId = m01;
shapes = (
{
closed = 1;
nodes = (
(223,0,l),
(368,0,l),
(368,579,l),
(585,579,l),
(585,708,l),
(6,708,l),
(6,579,l),
(223,579,l)
);
},
{
closed = 1;
nodes = (
(248,-251,o),
(229,-265,q),
(254,-301,l),
(275,-294,o),
(316,-264,o),
(347,-220,o),
(364,-171,o),
(364,-146,qs),
(364,-130,o),
(357,-100,o),
(339,-76,o),
(311,-62,o),
(293,-62,qs),
(264,-62,o),
(228,-96,o),
(228,-124,qs),
(228,-151,o),
(259,-183,o),
(286,-185,q),
(280,-211,o)
);
}
);
userData = {
assembly = "NPUSHB[ ]	/* 42 values pushed */
25 24 2 4 73 0 4 2 4 134 5 3 2 1 1 0 95 0 0 0 38 77 0 2 2 39 2 78 0 0 15 13 0 7 0 7 17 17 17 6 8 25 
CALL[ ]	/* CallFunction */";
};
width = 591;
}
);
note = uni021A;
unicode = 538;
},
{
glyphname = uni021B;
kernLeft = t;
layers = (
{
layerId = m01;
shapes = (
{
closed = 1;
nodes = (
(364,527,l),
(238,527,l),
(238,670,l),
(97,670,l),
(97,527,l),
(17,527,l),
(17,404,l),
(97,404,l),
(97,173,ls),
(97,84,o),
(188,-4,o),
(293,0,qs),
(359,0,l),
(359,123,l),
(307,123,ls),
(238,123,o),
(238,191,qs),
(238,404,l),
(364,404,l)
);
},
{
closed = 1;
nodes = (
(171,-254,o),
(152,-268,q),
(177,-304,l),
(198,-297,o),
(240,-265,o),
(271,-221,o),
(288,-172,o),
(288,-147,qs),
(288,-131,o),
(281,-101,o),
(263,-77,o),
(235,-63,o),
(217,-63,qs),
(187,-63,o),
(152,-97,o),
(152,-125,qs),
(152,-152,o),
(183,-184,o),
(210,-186,q),
(204,-212,o)
);
}
);
userData = {
assembly = "NPUSHB[ ]	/* 56 values pushed */
36 35 2 7 73 0 4 3 4 133 0 7 1 7 134 8 6 2 2 2 3 95 5 1 3 3 41 77 0 0 0 1 98 0 1 1 39 1 78 0 0 26 24 0 18 0 18 17 17 17 19 33 34 9 8 28 
CALL[ ]	/* CallFunction */";
};
width = 391;
}
);
note = uni021B;
unicode = 539;
},
{
glyphname = question;
layers = (
{
layerId = m01;
shapes = (
{
closed = 1;
nodes = (
(167,114,o),
(167,75,qs),
(167,35,o),
(214,-9,o),
(255,-9,qs),
(296,-9,o),
(342,36,o),
(342,75,qs),
(342,114,o),
(296,162,o),
(255,162,qs),
(214,162,o)
);
},
{
closed = 1;
nodes = (
(315,253,o),
(336,299,o),
(369,340,o),
(409,377,o),
(429,398,qs),
(456,428,o),
(485,490,o),
(485,531,qs),
(486,586,o),
(445,661,o),
(411,683,qs),
(381,703,o),
(304,717,o),
(262,717,qs),
(202,716,o),
(126,689,o),
(99,669,qs),
(63,642,o),
(25,558,o),
(26,513,q),
(162,513,l),
(163,537,o),
(181,567,o),
(208,584,o),
(243,590,o),
(262,589,qs),
(298,588,o),
(345,554,o),
(344,518,qs),
(343,497,o),
(322,460,o),
(290,426,o),
(255,394,o),
(240,378,qs),
(226,363,o),
(202,334,o),
(187,298,o),
(182,253,o),
(187,223,q),
(316,223,l)
);
}
);
userData = {
assembly = "MPPEM[ ]	/* MeasurePixelPerEm */
PUSHB[ ]	/* 1 value pushed */
12 
LT[ ]	/* LessThan */
IF[ ]	/* If */
NPUSHB[ ]	/* 38 values pushed */
0 3 2 5 2 3 5 128 7 1 5 0 2 5 0 126 0 2 2 4 97 0 4 4 46 77 6 1 0 0 1 97 0 1 1 47 1 78 
ELSE[ ]	/* Else */
NPUSHB[ ]	/* 38 values pushed */
0 3 2 5 2 3 5 128 7 1 5 0 2 5 0 126 0 2 2 4 97 0 4 4 46 77 6 1 0 0 1 97 0 1 1 50 1 78 
EIF[ ]	/* EndIf */
NPUSHB[ ]	/* 23 values pushed */
12 12 1 0 12 51 12 51 38 36 31 30 26 24 7 5 0 11 1 11 8 8 22 
CALL[ ]	/* CallFunction */";
};
width = 529;
}
);
note = question;
unicode = 63;
},
{
glyphname = uni2116;
layers = (
{
layerId = m01;
shapes = (
{
closed = 1;
nodes = (
(47,0,l),
(190,0,l),
(190,466,l),
(469,0,l),
(610,0,l),
(610,708,l),
(467,708,l),
(467,240,l),
(188,708,l),
(47,708,l)
);
},
{
closed = 1;
nodes = (
(1005,247,l),
(1005,346,l),
(699,346,l),
(699,247,l)
);
},
{
closed = 1;
nodes = (
(959,409,o),
(1002,455,o),
(1024,517,o),
(1024,553,qs),
(1024,628,o),
(937,723,o),
(854,723,qs),
(770,723,o),
(682,629,o),
(682,553,qs),
(682,517,o),
(704,455,o),
(748,409,o),
(812,383,o),
(854,383,qs),
(895,383,o)
);
},
{
closed = 1;
nodes = (
(916,581,o),
(916,553,qs),
(916,524,o),
(888,486,o),
(854,486,qs),
(819,486,o),
(790,524,o),
(790,553,qs),
(790,581,o),
(819,620,o),
(854,620,qs),
(888,620,o)
);
}
);
userData = {
assembly = "NPUSHB[ ]	/* 92 values pushed */
6 1 6 9 1 1 1 5 2 76 10 3 2 0 7 8 7 0 8 128 2 1 1 5 1 134 0 7 12 1 8 9 7 8 105 0 9 11 1 6 4 9 6 105 0 4 5 5 4 87 0 4 4 5 95 0 5 4 5 79 31 30 15 14 0 0 37 35 30 41 31 41 23 21 14 29 15 29 13 12 11 10 0 9 0 9 18 17 18 13 6 25 
CALL[ ]	/* CallFunction */";
};
width = 1071;
}
);
note = uni2116;
unicode = 8470;
},
{
glyphname = uni0401;
layers = (
{
layerId = m01;
shapes = (
{
closed = 1;
nodes = (
(75,0,l),
(581,0,l),
(581,128,l),
(220,128,l),
(220,285,l),
(535,285,l),
(535,414,l),
(220,414,l),
(220,579,l),
(581,579,l),
(581,708,l),
(75,708,l)
);
},
{
closed = 1;
nodes = (
(126,887,o),
(126,849,qs),
(126,811,o),
(174,766,o),
(212,766,qs),
(250,766,o),
(298,811,o),
(298,849,qs),
(298,887,o),
(250,931,o),
(212,931,qs),
(174,931,o)
);
},
{
closed = 1;
nodes = (
(367,887,o),
(367,849,qs),
(367,811,o),
(415,766,o),
(454,766,qs),
(492,766,o),
(540,811,o),
(540,849,qs),
(540,887,o),
(492,931,o),
(454,931,qs),
(415,931,o)
);
}
);
userData = {
assembly = "NPUSHB[ ]	/* 72 values pushed */
12 8 11 3 6 9 1 7 5 6 7 105 0 1 0 2 3 1 2 103 0 0 0 5 95 10 1 5 5 20 77 0 3 3 4 95 0 4 4 21 4 78 25 24 13 12 0 0 31 29 24 35 25 35 19 17 12 23 13 23 0 11 0 11 17 17 17 17 17 13 7 27 
CALL[ ]	/* CallFunction */";
};
width = 617;
}
);
note = uni0401;
unicode = 1025;
},
{
glyphname = asciitilde;
layers = (
{
layerId = m01;
shapes = (
{
closed = 1;
nodes = (
(212,252,o),
(210,287,o),
(214,322,o),
(227,349,o),
(241,349,qs),
(257,350,o),
(293,315,o),
(340,273,o),
(402,238,o),
(443,239,qs),
(496,240,o),
(561,281,o),
(597,346,o),
(607,425,o),
(606,466,q),
(470,466,l),
(470,457,o),
(472,422,o),
(468,387,o),
(455,360,o),
(441,360,qs),
(426,359,o),
(390,394,o),
(342,436,o),
(279,471,o),
(237,470,qs),
(184,469,o),
(119,428,o),
(85,364,o),
(74,284,o),
(76,244,q),
(212,244,l)
);
}
);
userData = {
assembly = "PUSHB[ ]	/* 2 values pushed */
6 100 
WCVTP[ ]	/* WriteCVTInPixels */
MPPEM[ ]	/* MeasurePixelPerEm */
PUSHB[ ]	/* 1 value pushed */
27 
LT[ ]	/* LessThan */
IF[ ]	/* If */
NPUSHB[ ]	/* 27 values pushed */
0 1 4 3 1 89 2 1 0 0 4 3 0 4 105 0 1 1 3 98 6 5 2 3 1 3 82 
ELSE[ ]	/* Else */
NPUSHB[ ]	/* 34 values pushed */
6 1 5 4 3 4 5 3 128 0 1 4 3 1 89 2 1 0 0 4 5 0 4 105 0 1 1 3 98 0 3 1 3 82 
EIF[ ]	/* EndIf */
NPUSHB[ ]	/* 14 values pushed */
0 0 0 31 0 30 35 36 20 35 36 7 8 27 
CALL[ ]	/* CallFunction */
PUSHB[ ]	/* 2 values pushed */
6 0 
WCVTP[ ]	/* WriteCVTInPixels */";
};
width = 682;
}
);
note = asciitilde;
unicode = 126;
},
{
glyphname = trademark;
layers = (
{
layerId = m01;
shapes = (
{
closed = 1;
nodes = (
(241,397,l),
(241,620,l),
(342,620,l),
(342,708,l),
(47,708,l),
(47,620,l),
(147,620,l),
(147,397,l)
);
},
{
closed = 1;
nodes = (
(559,456,l),
(625,561,l),
(625,397,l),
(718,397,l),
(718,708,l),
(625,708,l),
(544,578,l),
(463,708,l),
(369,708,l),
(369,397,l),
(463,397,l),
(463,561,l),
(530,456,l)
);
}
);
userData = {
assembly = "NPUSHB[ ]	/* 55 values pushed */
18 13 8 3 8 0 1 76 0 8 0 3 0 8 3 128 7 4 2 3 3 132 6 5 2 1 0 0 1 87 6 5 2 1 1 0 95 2 1 0 1 0 79 18 17 18 17 18 17 17 17 16 9 6 31 
CALL[ ]	/* CallFunction */";
};
width = 765;
}
);
note = trademark;
unicode = 8482;
},
{
glyphname = registered;
layers = (
{
layerId = m01;
shapes = (
{
closed = 1;
nodes = (
(120,707,o),
(69,657,o),
(40,584,o),
(40,538,qs),
(40,492,o),
(68,421,o),
(119,373,o),
(190,348,o),
(233,348,qs),
(275,348,o),
(346,373,o),
(397,421,o),
(425,492,o),
(425,538,qs),
(425,584,o),
(397,657,o),
(346,707,o),
(275,733,o),
(233,733,qs),
(191,733,o)
);
},
{
closed = 1;
nodes = (
(372,607,o),
(372,538,qs),
(372,470,o),
(295,399,o),
(233,399,qs),
(170,399,o),
(93,470,o),
(93,538,qs),
(93,607,o),
(171,683,o),
(233,683,qs),
(295,683,o)
);
},
{
closed = 1;
nodes = (
(294,528,o),
(312,559,o),
(312,579,qs),
(312,608,o),
(299,622,qs),
(290,633,o),
(261,643,o),
(240,643,qs),
(158,643,l),
(158,446,l),
(204,446,l),
(204,514,l),
(224,514,l),
(271,446,l),
(326,446,l),
(275,520,l)
);
},
{
closed = 1;
nodes = (
(249,600,o),
(267,593,o),
(266,578,qs),
(266,564,o),
(248,555,o),
(236,555,qs),
(204,555,l),
(204,600,l),
(237,600,ls)
);
}
);
userData = {
assembly = "PUSHB[ ]	/* 2 values pushed */
6 100 
WCVTP[ ]	/* WriteCVTInPixels */
PUSHB[ ]	/* 6 values pushed */
47 1 5 8 1 76 
MPPEM[ ]	/* MeasurePixelPerEm */
PUSHB[ ]	/* 1 value pushed */
14 
LT[ ]	/* LessThan */
IF[ ]	/* If */
NPUSHB[ ]	/* 57 values pushed */
0 8 9 5 9 8 5 128 0 5 4 9 5 112 6 1 4 3 9 4 3 126 10 1 0 11 1 2 7 0 2 105 0 7 12 1 9 8 7 9 105 0 3 1 1 3 89 0 3 3 1 97 0 1 3 1 81 
ELSE[ ]	/* Else */
NPUSHB[ ]	/* 58 values pushed */
0 8 9 5 9 8 5 128 0 5 4 9 5 4 126 6 1 4 3 9 4 3 126 10 1 0 11 1 2 7 0 2 105 0 7 12 1 9 8 7 9 105 0 3 1 1 3 89 0 3 3 1 97 0 1 3 1 81 
EIF[ ]	/* EndIf */
NPUSHB[ ]	/* 35 values pushed */
48 48 21 20 1 0 48 56 48 55 51 49 40 38 37 36 35 34 33 32 27 25 20 31 21 31 11 9 0 19 1 19 13 8 22 
CALL[ ]	/* CallFunction */
PUSHB[ ]	/* 2 values pushed */
6 0 
WCVTP[ ]	/* WriteCVTInPixels */";
};
width = 465;
}
);
note = registered;
unicode = 174;
},
{
glyphname = degree;
layers = (
{
layerId = m01;
shapes = (
{
closed = 1;
nodes = (
(112,735,o),
(70,694,o),
(47,635,o),
(47,598,qs),
(47,523,o),
(134,445,o),
(203,445,qs),
(272,445,o),
(358,523,o),
(358,598,qs),
(358,673,o),
(272,757,o),
(203,757,qs),
(169,757,o)
);
},
{
closed = 1;
nodes = (
(269,633,o),
(269,599,qs),
(269,566,o),
(232,531,o),
(203,531,qs),
(173,531,o),
(136,566,o),
(136,599,qs),
(136,633,o),
(174,670,o),
(203,670,qs),
(232,670,o)
);
}
);
userData = {
assembly = "PUSHB[ ]	/* 2 values pushed */
6 100 
WCVTP[ ]	/* WriteCVTInPixels */
NPUSHB[ ]	/* 45 values pushed */
4 1 0 5 1 2 3 0 2 105 0 3 1 1 3 89 0 3 3 1 97 0 1 3 1 81 15 14 1 0 21 19 14 25 15 25 7 5 0 13 1 13 6 8 22 
CALL[ ]	/* CallFunction */
PUSHB[ ]	/* 2 values pushed */
6 0 
WCVTP[ ]	/* WriteCVTInPixels */";
};
width = 405;
}
);
note = degree;
unicode = 176;
},
{
glyphname = bullet;
layers = (
{
layerId = m01;
shapes = (
{
closed = 1;
nodes = (
(47,432,o),
(47,363,qs),
(47,294,o),
(128,222,o),
(191,222,qs),
(253,222,o),
(333,294,o),
(333,363,qs),
(333,432,o),
(253,507,o),
(191,507,qs),
(128,507,o)
);
}
);
userData = {
assembly = "MPPEM[ ]	/* MeasurePixelPerEm */
PUSHB[ ]	/* 1 value pushed */
25 
LT[ ]	/* LessThan */
IF[ ]	/* If */
NPUSHB[ ]	/* 12 values pushed */
0 1 1 0 97 2 1 0 0 41 1 78 
ELSE[ ]	/* Else */
NPUSHB[ ]	/* 18 values pushed */
2 1 0 1 1 0 89 2 1 0 0 1 97 0 1 0 1 81 
EIF[ ]	/* EndIf */
NPUSHB[ ]	/* 11 values pushed */
1 0 7 5 0 11 1 11 3 8 22 
CALL[ ]	/* CallFunction */";
};
width = 380;
}
);
note = bullet;
unicode = 8226;
},
{
glyphname = uni27F5;
layers = (
{
layerId = m01;
shapes = (
{
closed = 1;
nodes = (
(47,271,l),
(406,-55,l),
(481,39,l),
(283,211,l),
(1350,211,l),
(1350,330,l),
(283,330,l),
(481,501,l),
(406,597,l)
);
}
);
userData = {
assembly = "NPUSHB[ ]	/* 36 values pushed */
7 1 1 0 1 76 8 1 0 74 6 5 2 1 73 0 0 1 1 0 87 0 0 0 1 95 0 1 0 1 79 17 17 2 6 24 
CALL[ ]	/* CallFunction */";
};
width = 1397;
}
);
note = uni27F5;
unicode = 10229;
},
{
glyphname = uni27F6;
layers = (
{
layerId = m01;
shapes = (
{
closed = 1;
nodes = (
(1113,330,l),
(47,330,l),
(47,211,l),
(1113,211,l),
(915,39,l),
(990,-55,l),
(1350,271,l),
(990,597,l),
(915,501,l)
);
}
);
userData = {
assembly = "NPUSHB[ ]	/* 36 values pushed */
1 1 0 1 1 76 8 1 1 74 3 2 2 0 73 0 1 0 0 1 87 0 1 1 0 95 0 0 1 0 79 17 20 2 6 24 
CALL[ ]	/* CallFunction */";
};
width = 1397;
}
);
note = uni27F6;
unicode = 10230;
},
{
glyphname = arrowup;
layers = (
{
layerId = m01;
shapes = (
{
closed = 1;
nodes = (
(314,434,l),
(314,0,l),
(432,0,l),
(432,434,l),
(604,235,l),
(699,310,l),
(373,670,l),
(47,310,l),
(142,235,l)
);
}
);
userData = {
assembly = "NPUSHB[ ]	/* 17 values pushed */
8 7 4 3 2 1 6 0 74 0 0 0 118 21 1 6 23 
CALL[ ]	/* CallFunction */";
};
width = 746;
}
);
note = arrowup;
unicode = 8593;
},
{
glyphname = arrowdown;
layers = (
{
layerId = m01;
shapes = (
{
closed = 1;
nodes = (
(373,0,l),
(699,359,l),
(604,435,l),
(432,236,l),
(432,670,l),
(314,670,l),
(314,236,l),
(142,435,l),
(47,359,l)
);
}
);
userData = {
assembly = "NPUSHB[ ]	/* 17 values pushed */
8 7 6 5 4 1 6 0 73 0 0 0 118 18 1 6 23 
CALL[ ]	/* CallFunction */";
};
width = 746;
}
);
note = arrowdown;
unicode = 8595;
},
{
glyphname = uni21BA;
layers = (
{
layerId = m01;
shapes = (
{
closed = 1;
nodes = (
(923,719,l),
(513,766,l),
(513,369,l),
(625,369,l),
(622,560,l),
(653,534,o),
(697,462,o),
(708,420,qs),
(726,354,o),
(701,236,o),
(631,144,o),
(523,89,o),
(458,86,qs),
(394,84,o),
(293,127,o),
(222,201,o),
(184,298,o),
(184,351,qs),
(183,414,o),
(238,536,o),
(297,581,q),
(212,677,l),
(131,617,o),
(47,449,o),
(49,356,qs),
(50,266,o),
(114,116,o),
(226,11,o),
(380,-44,o),
(472,-39,qs),
(570,-34,o),
(728,45,o),
(829,177,o),
(862,352,o),
(835,452,qs),
(821,504,o),
(759,600,o),
(721,634,q),
(905,607,l)
);
}
);
userData = {
assembly = "NPUSHB[ ]	/* 36 values pushed */
38 37 36 33 17 16 6 2 74 0 2 1 2 133 0 1 0 0 1 89 0 1 1 0 97 0 0 1 0 81 24 47 39 3 6 25 
CALL[ ]	/* CallFunction */";
};
width = 970;
}
);
note = uni21BA;
unicode = 8634;
},
{
glyphname = uni21BB;
layers = (
{
layerId = m01;
shapes = (
{
closed = 1;
nodes = (
(211,600,o),
(149,504,o),
(135,452,qs),
(108,352,o),
(141,177,o),
(242,45,o),
(401,-34,o),
(499,-39,qs),
(590,-44,o),
(744,11,o),
(856,116,o),
(920,266,o),
(921,356,qs),
(922,449,o),
(839,617,o),
(758,677,q),
(673,581,l),
(732,536,o),
(787,414,o),
(787,351,qs),
(787,298,o),
(748,201,o),
(678,127,o),
(576,84,o),
(513,86,qs),
(447,89,o),
(339,144,o),
(269,236,o),
(244,354,o),
(262,420,qs),
(273,462,o),
(317,534,o),
(348,560,q),
(345,369,l),
(457,369,l),
(457,766,l),
(47,719,l),
(66,607,l),
(249,634,l)
);
}
);
userData = {
assembly = "NPUSHB[ ]	/* 36 values pushed */
38 22 21 5 2 1 6 0 74 0 0 1 0 133 0 1 2 2 1 89 0 1 1 2 97 0 2 1 2 81 47 40 19 3 6 25 
CALL[ ]	/* CallFunction */";
};
width = 970;
}
);
note = uni21BB;
unicode = 8635;
},
{
glyphname = uni21B7;
layers = (
{
layerId = m01;
shapes = (
{
closed = 1;
nodes = (
(811,192,o),
(841,294,o),
(841,348,qs),
(841,432,o),
(784,574,o),
(681,677,o),
(535,734,o),
(445,734,qs),
(357,734,o),
(213,677,o),
(108,575,o),
(49,436,o),
(47,354,q),
(178,354,l),
(180,409,o),
(222,502,o),
(293,570,o),
(389,608,o),
(445,608,qs),
(502,608,o),
(600,569,o),
(670,499,o),
(710,402,o),
(710,345,qs),
(710,301,o),
(686,221,o),
(663,188,q),
(614,377,l),
(506,354,l),
(616,-39,l),
(998,113,l),
(951,216,l),
(783,146,l)
);
}
);
userData = {
assembly = "NPUSHB[ ]	/* 41 values pushed */
4 1 1 0 1 76 32 5 3 2 1 5 1 73 0 1 0 1 134 0 2 0 0 2 89 0 2 2 0 97 0 0 2 0 81 36 20 44 3 6 25 
CALL[ ]	/* CallFunction */";
};
width = 1045;
}
);
note = uni21B7;
unicode = 8631;
},
{
glyphname = uni21B6;
layers = (
{
layerId = m01;
shapes = (
{
closed = 1;
nodes = (
(47,113,l),
(430,-39,l),
(540,354,l),
(431,377,l),
(382,188,l),
(359,221,o),
(335,301,o),
(335,345,qs),
(335,402,o),
(375,499,o),
(446,569,o),
(543,608,o),
(601,608,qs),
(656,608,o),
(752,570,o),
(823,502,o),
(865,409,o),
(867,354,q),
(998,354,l),
(996,436,o),
(937,575,o),
(833,677,o),
(688,734,o),
(601,734,qs),
(511,734,o),
(365,677,o),
(261,574,o),
(204,432,o),
(204,348,qs),
(204,294,o),
(234,192,o),
(262,146,q),
(94,216,l)
);
}
);
userData = {
assembly = "NPUSHB[ ]	/* 41 values pushed */
28 1 1 2 1 76 32 31 30 29 27 5 1 73 0 1 2 1 134 0 0 2 2 0 89 0 0 0 2 97 0 2 0 2 81 36 20 39 3 6 25 
CALL[ ]	/* CallFunction */";
};
width = 1045;
}
);
note = uni21B6;
unicode = 8630;
},
{
glyphname = five;
layers = (
{
layerId = m01;
shapes = (
{
closed = 1;
nodes = (
(217,323,o),
(270,345,o),
(301,346,qs),
(353,348,o),
(421,290,o),
(420,233,qs),
(419,175,o),
(351,121,o),
(298,123,qs),
(261,125,o),
(202,163,o),
(193,206,q),
(50,206,l),
(62,93,o),
(192,-7,o),
(301,-7,qs),
(361,-7,o),
(454,25,o),
(491,57,qs),
(526,89,o),
(566,181,o),
(566,239,qs),
(566,291,o),
(534,374,o),
(474,434,o),
(389,466,o),
(337,467,qs),
(297,468,o),
(236,453,o),
(202,436,q),
(222,582,l),
(535,582,l),
(535,708,l),
(105,708,l),
(60,304,l),
(197,304,l)
);
}
);
userData = {
assembly = "NPUSHB[ ]	/* 67 values pushed */
5 1 6 2 1 76 8 1 7 6 4 6 7 4 128 0 4 5 6 4 5 126 0 2 0 6 7 2 6 105 0 1 1 0 95 0 0 0 38 77 0 5 5 3 97 0 3 3 47 3 78 0 0 0 35 0 35 36 34 18 41 35 17 17 9 8 29 
CALL[ ]	/* CallFunction */";
};
width = 608;
}
);
note = five;
unicode = 53;
},
{
glyphname = six;
layers = (
{
layerId = m01;
shapes = (
{
closed = 1;
nodes = (
(246,143,o),
(218,176,o),
(205,218,o),
(207,241,qs),
(211,286,o),
(272,337,o),
(317,338,qs),
(369,339,o),
(431,278,o),
(429,224,qs),
(428,201,o),
(410,162,o),
(380,135,o),
(338,121,o),
(314,122,qs),
(287,123,o)
);
},
{
closed = 1;
nodes = (
(568,569,o),
(529,641,o),
(499,665,qs),
(467,692,o),
(381,717,o),
(330,716,qs),
(263,715,o),
(164,665,o),
(131,623,qs),
(85,569,o),
(46,415,o),
(47,338,qs),
(47,274,o),
(74,152,o),
(137,56,o),
(239,-4,o),
(313,-5,qs),
(367,-7,o),
(459,25,o),
(494,56,qs),
(528,86,o),
(572,178,o),
(572,232,qs),
(571,339,o),
(452,461,o),
(343,462,qs),
(298,462,o),
(215,430,o),
(183,398,q),
(182,432,o),
(201,499,o),
(238,553,o),
(294,587,o),
(330,588,qs),
(365,589,o),
(423,557,o),
(432,520,q),
(573,520,l)
);
}
);
userData = {
assembly = "NPUSHB[ ]	/* 70 values pushed */
24 1 1 3 1 76 8 1 6 2 3 2 6 3 128 0 3 0 1 0 3 1 105 0 2 2 5 97 0 5 5 46 77 7 1 0 0 4 97 0 4 4 47 4 78 16 16 1 0 16 53 16 53 48 46 37 35 28 26 20 18 9 7 0 15 1 15 9 8 22 
CALL[ ]	/* CallFunction */";
};
width = 615;
}
);
note = six;
unicode = 54;
},
{
glyphname = dieresis;
layers = (
{
layerId = m01;
shapes = (
{
closed = 1;
nodes = (
(95,714,o),
(95,676,qs),
(95,636,o),
(143,591,o),
(182,591,qs),
(220,591,o),
(268,636,o),
(268,676,qs),
(268,714,o),
(220,759,o),
(182,759,qs),
(143,759,o)
);
},
{
closed = 1;
nodes = (
(357,714,o),
(357,676,qs),
(357,636,o),
(405,591,o),
(443,591,qs),
(481,591,o),
(530,636,o),
(530,676,qs),
(530,714,o),
(481,759,o),
(443,759,qs),
(405,759,o)
);
}
);
userData = {
assembly = "PUSHB[ ]	/* 2 values pushed */
6 100 
WCVTP[ ]	/* WriteCVTInPixels */
NPUSHB[ ]	/* 42 values pushed */
5 2 4 3 0 1 1 0 89 5 2 4 3 0 0 1 97 3 1 1 0 1 81 13 12 1 0 19 17 12 23 13 23 7 5 0 11 1 11 6 8 22 
CALL[ ]	/* CallFunction */
PUSHB[ ]	/* 2 values pushed */
6 0 
WCVTP[ ]	/* WriteCVTInPixels */";
};
width = 625;
}
);
note = dieresis;
unicode = 168;
},
{
glyphname = cedilla;
layers = (
{
layerId = m01;
shapes = (
{
closed = 1;
nodes = (
(207,-106,l),
(218,-105,o),
(249,-104,o),
(264,-105,qs),
(287,-106,o),
(316,-122,o),
(316,-141,qs),
(316,-151,o),
(306,-167,o),
(282,-177,o),
(240,-179,o),
(206,-175,q),
(205,-255,l),
(252,-260,o),
(322,-255,o),
(347,-243,qs),
(376,-230,o),
(417,-175,o),
(419,-137,qs),
(421,-86,o),
(359,-35,o),
(310,-42,q),
(330,18,l),
(244,18,l)
);
}
);
userData = {
assembly = "PUSHB[ ]	/* 2 values pushed */
6 100 
WCVTP[ ]	/* WriteCVTInPixels */
NPUSHB[ ]	/* 49 values pushed */
1 1 1 2 22 11 2 0 1 2 76 10 1 0 73 0 0 1 0 134 3 1 2 1 1 2 87 3 1 2 2 1 97 0 1 2 1 81 0 0 0 23 0 23 53 28 4 8 24 
CALL[ ]	/* CallFunction */
PUSHB[ ]	/* 2 values pushed */
6 0 
WCVTP[ ]	/* WriteCVTInPixels */";
};
width = 609;
}
);
note = cedilla;
unicode = 184;
},
{
glyphname = dotlessi;
layers = (
{
layerId = m01;
shapes = (
{
closed = 1;
nodes = (
(56,527,l),
(56,0,l),
(197,0,l),
(197,527,l)
);
}
);
userData = {
assembly = "NPUSHB[ ]	/* 16 values pushed */
0 1 1 41 77 0 0 0 39 0 78 17 16 2 8 24 
CALL[ ]	/* CallFunction */";
};
width = 253;
}
);
note = dotlessi;
unicode = 305;
},
{
glyphname = ccedilla;
kernLeft = d;
layers = (
{
layerId = m01;
shapes = (
{
closed = 1;
nodes = (
(214,138,o),
(186,177,o),
(172,230,o),
(172,262,qs),
(172,292,o),
(184,346,o),
(212,388,o),
(260,412,o),
(293,412,qs),
(332,412,o),
(381,374,o),
(386,350,q),
(534,350,l),
(527,399,o),
(486,470,o),
(423,516,o),
(342,538,o),
(296,538,qs),
(233,538,o),
(135,499,o),
(68,427,o),
(32,325,o),
(32,264,qs),
(32,150,o),
(135,9,o),
(240,-5,q),
(212,-109,l),
(223,-109,o),
(253,-108,o),
(268,-109,qs),
(290,-109,o),
(323,-125,o),
(322,-145,qs),
(322,-156,o),
(312,-172,o),
(288,-182,o),
(245,-185,o),
(211,-181,q),
(210,-263,l),
(265,-268,o),
(328,-263,o),
(355,-249,qs),
(384,-237,o),
(425,-181,o),
(427,-141,qs),
(429,-88,o),
(366,-36,o),
(316,-43,q),
(327,-6,l),
(366,-3,o),
(435,21,o),
(491,67,o),
(528,133,o),
(534,179,q),
(386,179,l),
(381,155,o),
(334,117,o),
(294,117,qs),
(261,117,o)
);
}
);
userData = {
assembly = "NPUSHB[ ]	/* 76 values pushed */
32 10 2 3 0 20 1 2 3 2 76 19 1 2 73 0 5 6 1 6 5 1 128 0 1 0 6 1 0 126 0 2 3 2 134 7 1 0 0 3 2 0 3 105 0 6 6 4 97 0 4 4 49 6 78 1 0 50 48 46 45 41 39 31 27 22 21 4 3 0 58 1 58 8 8 22 
CALL[ ]	/* CallFunction */";
};
width = 564;
}
);
note = ccedilla;
unicode = 231;
},
{
glyphname = uni0162;
kernLeft = uni0422;
kernRight = uni0422;
layers = (
{
layerId = m01;
shapes = (
{
closed = 1;
nodes = (
(228,0,l),
(257,0,l),
(227,-106,l),
(238,-105,o),
(264,-104,o),
(280,-104,qs),
(308,-105,o),
(336,-121,o),
(336,-141,qs),
(336,-151,o),
(327,-167,o),
(303,-178,o),
(260,-179,o),
(226,-175,q),
(225,-255,l),
(279,-260,o),
(342,-255,o),
(368,-243,qs),
(397,-230,o),
(438,-175,o),
(440,-137,qs),
(441,-86,o),
(379,-35,o),
(330,-42,q),
(343,0,l),
(373,0,l),
(373,579,l),
(595,579,l),
(595,708,l),
(6,708,l),
(6,579,l),
(228,579,l)
);
}
);
userData = {
assembly = "NPUSHB[ ]	/* 61 values pushed */
7 1 4 2 28 17 2 3 4 2 76 16 1 3 73 0 4 2 3 2 4 3 128 0 3 3 132 7 6 2 1 1 0 95 0 0 0 38 77 5 1 2 2 39 2 78 0 0 0 31 0 31 18 53 28 17 17 17 8 8 28 
CALL[ ]	/* CallFunction */";
};
width = 601;
}
);
note = uni0162;
unicode = 354;
},
{
glyphname = uni0163;
kernLeft = t;
layers = (
{
layerId = m01;
shapes = (
{
closed = 1;
nodes = (
(364,527,l),
(238,527,l),
(238,670,l),
(97,670,l),
(97,527,l),
(17,527,l),
(17,404,l),
(97,404,l),
(97,173,ls),
(97,111,o),
(138,31,o),
(187,14,q),
(153,-109,l),
(164,-108,o),
(193,-107,o),
(209,-108,qs),
(231,-109,o),
(263,-126,o),
(263,-145,qs),
(263,-156,o),
(254,-172,o),
(229,-182,o),
(186,-185,o),
(152,-181,q),
(152,-263,l),
(179,-266,o),
(220,-267,o),
(255,-264,o),
(283,-257,o),
(295,-251,qs),
(324,-237,o),
(366,-181,o),
(368,-141,qs),
(370,-88,o),
(306,-36,o),
(257,-43,q),
(270,0,l),
(293,0,l),
(359,0,l),
(359,123,l),
(307,123,ls),
(238,123,o),
(238,191,qs),
(238,404,l),
(364,404,l)
);
}
);
userData = {
assembly = "NPUSHB[ ]	/* 19 values pushed */
32 1 1 0 8 1 4 1 31 20 2 3 4 19 1 2 3 4 76 
MPPEM[ ]	/* MeasurePixelPerEm */
PUSHB[ ]	/* 1 value pushed */
14 
LT[ ]	/* LessThan */
IF[ ]	/* If */
NPUSHB[ ]	/* 42 values pushed */
0 7 0 4 3 7 4 105 10 9 2 5 5 6 95 8 1 6 6 41 77 0 0 0 1 95 0 1 1 39 77 0 3 3 2 97 0 2 2 51 2 78 
ELSE[ ]	/* Else */
NPUSHB[ ]	/* 39 values pushed */
0 7 0 4 3 7 4 105 0 3 0 2 3 2 101 10 9 2 5 5 6 95 8 1 6 6 41 77 0 0 0 1 95 0 1 1 39 1 78 
EIF[ ]	/* EndIf */
NPUSHB[ ]	/* 18 values pushed */
0 0 0 44 0 44 17 17 17 22 53 19 26 33 34 11 8 31 
CALL[ ]	/* CallFunction */";
};
width = 396;
}
);
note = uni0163;
unicode = 355;
},
{
glyphname = Ccedilla;
kernLeft = O;
kernRight = D;
layers = (
{
layerId = m01;
shapes = (
{
closed = 1;
nodes = (
(208,485,o),
(255,550,o),
(328,588,o),
(379,588,qs),
(443,588,o),
(525,528,o),
(536,477,q),
(676,477,l),
(670,540,o),
(619,631,o),
(539,689,o),
(437,717,o),
(379,717,qs),
(296,717,o),
(169,663,o),
(81,565,o),
(36,432,o),
(36,355,qs),
(36,283,o),
(73,159,o),
(146,65,o),
(254,5,o),
(324,-3,q),
(296,-104,l),
(306,-104,o),
(338,-102,o),
(351,-103,qs),
(379,-104,o),
(405,-120,o),
(405,-139,qs),
(405,-149,o),
(395,-165,o),
(371,-175,o),
(329,-177,o),
(295,-174,q),
(294,-253,l),
(348,-258,o),
(411,-253,o),
(437,-240,qs),
(465,-228,o),
(506,-173,o),
(508,-135,qs),
(510,-84,o),
(448,-33,o),
(399,-40,q),
(409,-4,l),
(460,0,o),
(553,34,o),
(625,93,o),
(671,177,o),
(676,232,q),
(536,232,l),
(526,181,o),
(443,124,o),
(379,124,qs),
(328,124,o),
(255,163,o),
(208,227,o),
(185,311,o),
(185,356,qs),
(185,401,o)
);
}
);
userData = {
assembly = "NPUSHB[ ]	/* 72 values pushed */
37 15 2 3 0 25 1 2 3 2 76 24 1 2 73 0 6 7 1 7 6 1 128 0 1 0 7 1 0 126 0 2 3 2 134 0 0 4 1 3 2 0 3 105 0 7 7 5 97 0 5 5 46 7 78 57 55 53 52 48 46 36 34 33 32 27 26 18 36 8 8 24 
CALL[ ]	/* CallFunction */";
};
width = 712;
}
);
note = Ccedilla;
unicode = 199;
},
{
glyphname = scedilla;
kernLeft = d;
layers = (
{
layerId = m01;
shapes = (
{
closed = 1;
nodes = (
(333,404,o),
(336,370,q),
(472,370,l),
(470,416,o),
(435,480,o),
(378,520,o),
(302,538,o),
(260,538,qs),
(220,538,o),
(145,522,o),
(86,485,o),
(47,424,o),
(45,381,qs),
(42,332,o),
(81,272,o),
(110,254,qs),
(129,241,o),
(175,226,o),
(222,216,o),
(270,207,o),
(292,201,qs),
(312,196,o),
(348,176,o),
(348,153,qs),
(348,137,o),
(333,119,o),
(312,110,o),
(287,107,o),
(276,107,qs),
(238,107,o),
(183,133,o),
(177,167,q),
(31,167,l),
(34,124,o),
(73,63,o),
(99,42,qs),
(122,24,o),
(179,2,o),
(210,-3,q),
(180,-111,l),
(194,-110,o),
(216,-110,o),
(234,-110,qs),
(261,-111,o),
(290,-127,o),
(290,-146,qs),
(290,-157,o),
(280,-173,o),
(256,-183,o),
(213,-185,o),
(179,-181,q),
(178,-262,l),
(232,-267,o),
(296,-262,o),
(322,-250,qs),
(350,-236,o),
(392,-181,o),
(394,-142,qs),
(396,-91,o),
(333,-39,o),
(284,-46,q),
(295,-8,l),
(337,-6,o),
(410,17,o),
(436,41,qs),
(460,62,o),
(487,121,o),
(486,162,qs),
(485,207,o),
(453,262,o),
(427,278,qs),
(408,290,o),
(359,306,o),
(306,318,o),
(253,329,o),
(230,335,qs),
(207,341,o),
(182,361,o),
(181,378,qs),
(180,393,o),
(194,412,o),
(216,422,o),
(243,425,o),
(259,425,qs),
(287,425,o)
);
}
);
userData = {
assembly = "NPUSHB[ ]	/* 91 values pushed */
45 1 1 5 23 1 3 1 33 1 2 3 3 76 44 1 3 1 75 32 1 2 73 0 7 0 4 0 7 4 128 0 4 5 0 4 5 126 0 2 3 2 134 0 5 0 3 2 5 3 105 8 1 0 0 6 97 0 6 6 49 77 0 1 1 47 1 78 1 0 82 81 77 75 56 54 52 51 43 40 35 34 22 21 0 84 1 84 9 8 22 
CALL[ ]	/* CallFunction */";
};
width = 519;
}
);
note = scedilla;
unicode = 351;
},
{
glyphname = uni21A9;
layers = (
{
layerId = m01;
shapes = (
{
closed = 1;
nodes = (
(839,555,o),
(916,521,o),
(973,462,o),
(1006,383,o),
(1006,338,qs),
(1006,292,o),
(974,212,o),
(917,152,o),
(839,118,o),
(794,118,qs),
(282,118,l),
(480,290,l),
(406,385,l),
(47,59,l),
(406,-267,l),
(480,-173,l),
(282,0,l),
(805,0,ls),
(874,0,o),
(993,53,o),
(1080,144,o),
(1129,266,o),
(1129,336,qs),
(1129,406,o),
(1080,528,o),
(994,620,o),
(875,673,o),
(805,673,qs),
(164,673,l),
(164,555,l),
(794,555,ls)
);
}
);
userData = {
assembly = "NPUSHB[ ]	/* 53 values pushed */
18 17 2 2 3 16 1 1 2 2 76 15 14 2 1 73 0 0 4 1 3 2 0 3 103 0 2 1 1 2 87 0 2 2 1 95 0 1 2 1 79 0 0 0 30 0 29 38 40 33 5 6 25 
CALL[ ]	/* CallFunction */";
};
width = 1176;
}
);
note = uni21A9;
unicode = 8617;
},
{
glyphname = uni2713;
layers = (
{
layerId = m01;
shapes = (
{
closed = 1;
nodes = (
(47,372,l),
(392,-13,l),
(1026,731,l),
(933,825,l),
(392,189,l),
(140,466,l)
);
}
);
userData = {
assembly = "PUSHB[ ]	/* 4 values pushed */
3 1 1 50 
CALL[ ]	/* CallFunction */";
};
width = 1073;
}
);
note = uni2713;
unicode = 10003;
},
{
glyphname = divide;
layers = (
{
layerId = m01;
shapes = (
{
closed = 1;
nodes = (
(197,196,o),
(197,159,qs),
(197,122,o),
(240,81,o),
(276,81,qs),
(314,81,o),
(356,123,o),
(356,159,qs),
(356,196,o),
(314,240,o),
(276,240,qs),
(240,240,o)
);
},
{
closed = 1;
nodes = (
(197,595,o),
(197,559,qs),
(197,521,o),
(240,481,o),
(276,481,qs),
(314,481,o),
(356,522,o),
(356,559,qs),
(356,595,o),
(314,640,o),
(276,640,qs),
(240,640,o)
);
},
{
closed = 1;
nodes = (
(507,418,l),
(47,418,l),
(47,304,l),
(507,304,l)
);
}
);
userData = {
assembly = "NPUSHB[ ]	/* 63 values pushed */
7 1 2 0 3 4 2 3 105 0 4 8 1 5 0 4 5 103 6 1 0 1 1 0 89 6 1 0 0 1 97 0 1 0 1 81 24 24 13 12 1 0 24 27 24 27 26 25 19 17 12 23 13 23 7 5 0 11 1 11 9 8 22 
CALL[ ]	/* CallFunction */";
};
width = 554;
}
);
note = divide;
unicode = 247;
},
{
glyphname = multiply;
layers = (
{
layerId = m01;
shapes = (
{
closed = 1;
nodes = (
(521,209,l),
(368,361,l),
(521,514,l),
(438,596,l),
(286,444,l),
(133,596,l),
(50,513,l),
(202,361,l),
(50,208,l),
(132,124,l),
(285,277,l),
(437,124,l)
);
}
);
userData = {
assembly = "PUSHB[ ]	/* 4 values pushed */
5 1 1 50 
CALL[ ]	/* CallFunction */";
};
width = 571;
}
);
note = multiply;
unicode = 215;
},
{
glyphname = yen;
layers = (
{
layerId = m01;
shapes = (
{
closed = 1;
nodes = (
(194,708,l),
(27,708,l),
(241,351,l),
(137,351,l),
(137,255,l),
(292,255,l),
(292,179,l),
(137,179,l),
(137,83,l),
(292,83,l),
(292,0,l),
(437,0,l),
(437,83,l),
(591,83,l),
(591,179,l),
(437,179,l),
(437,255,l),
(591,255,l),
(591,351,l),
(486,351,l),
(699,708,l),
(535,708,l),
(366,402,l)
);
}
);
userData = {
assembly = "NPUSHB[ ]	/* 54 values pushed */
22 1 1 0 1 76 9 1 1 8 1 2 3 1 2 104 7 1 3 6 1 4 5 3 4 103 10 1 0 0 38 77 0 5 5 39 5 78 21 20 19 18 17 17 17 17 17 17 17 17 16 11 8 31 
CALL[ ]	/* CallFunction */";
};
width = 726;
}
);
note = yen;
unicode = 165;
},
{
glyphname = uni20BD;
layers = (
{
layerId = m01;
shapes = (
{
closed = 1;
nodes = (
(129,369,l),
(47,369,l),
(47,252,l),
(129,252,l),
(129,178,l),
(47,178,l),
(47,73,l),
(129,73,l),
(129,0,l),
(274,0,l),
(274,73,l),
(435,73,l),
(435,178,l),
(274,178,l),
(274,252,l),
(399,252,ls),
(455,252,o),
(546,276,o),
(581,301,qs),
(621,329,o),
(669,420,o),
(669,483,qs),
(669,549,o),
(629,636,o),
(557,687,o),
(457,708,o),
(397,708,qs),
(129,708,l)
);
},
{
closed = 1;
nodes = (
(274,579,l),
(386,579,ls),
(417,579,o),
(469,572,o),
(506,550,o),
(527,509,o),
(526,475,qs),
(525,445,o),
(503,405,o),
(466,380,o),
(417,369,o),
(389,369,qs),
(274,369,l)
);
}
);
userData = {
assembly = "NPUSHB[ ]	/* 71 values pushed */
12 9 2 8 7 1 1 2 8 1 103 6 1 2 5 1 3 4 2 3 103 0 10 10 0 95 11 1 0 0 38 77 0 4 4 39 4 78 29 28 1 0 39 37 28 40 29 40 26 25 24 23 22 21 20 19 18 17 16 15 14 13 12 10 0 27 1 27 13 8 22 
CALL[ ]	/* CallFunction */";
};
width = 706;
}
);
note = uni20BD;
unicode = 8381;
},
{
glyphname = uni20B4;
layers = (
{
layerId = m01;
shapes = (
{
closed = 1;
nodes = (
(162,692,o),
(92,645,o),
(51,570,o),
(52,515,q),
(189,515,l),
(190,539,o),
(211,567,o),
(244,582,o),
(283,585,o),
(302,585,qs),
(337,584,o),
(387,550,o),
(385,515,qs),
(384,500,o),
(365,468,o),
(351,460,q),
(35,460,l),
(35,377,l),
(234,377,l),
(141,319,l),
(35,319,l),
(35,238,l),
(76,238,l),
(63,226,o),
(50,180,o),
(50,161,qs),
(50,117,o),
(88,53,o),
(117,31,qs),
(150,8,o),
(233,-13,o),
(276,-13,qs),
(325,-13,o),
(417,8,o),
(486,56,o),
(527,132,o),
(526,186,q),
(389,186,l),
(388,162,o),
(367,135,o),
(334,120,o),
(294,117,o),
(275,117,qs),
(240,118,o),
(192,151,o),
(193,186,qs),
(193,200,o),
(208,230,o),
(223,238,q),
(533,238,l),
(533,319,l),
(338,319,l),
(430,377,l),
(533,377,l),
(533,460,l),
(495,460,l),
(510,475,o),
(523,517,o),
(525,537,qs),
(527,585,o),
(489,652,o),
(426,694,o),
(344,713,o),
(302,713,qs),
(253,713,o)
);
}
);
userData = {
assembly = "PUSHB[ ]	/* 6 values pushed */
5 1 13 12 1 76 
MPPEM[ ]	/* MeasurePixelPerEm */
PUSHB[ ]	/* 1 value pushed */
10 
LT[ ]	/* LessThan */
IF[ ]	/* If */
NPUSHB[ ]	/* 58 values pushed */
0 13 12 1 12 13 1 128 0 6 4 5 4 6 5 128 11 1 1 10 1 2 3 1 2 103 9 1 3 8 1 4 6 3 4 103 0 12 12 0 97 14 1 0 0 46 77 0 5 5 7 97 0 7 7 50 7 78 
ELSE[ ]	/* Else */
MPPEM[ ]	/* MeasurePixelPerEm */
PUSHB[ ]	/* 1 value pushed */
12 
LT[ ]	/* LessThan */
IF[ ]	/* If */
NPUSHB[ ]	/* 58 values pushed */
0 13 12 1 12 13 1 128 0 6 4 5 4 6 5 128 11 1 1 10 1 2 3 1 2 103 9 1 3 8 1 4 6 3 4 103 0 12 12 0 97 14 1 0 0 46 77 0 5 5 7 97 0 7 7 47 7 78 
ELSE[ ]	/* Else */
NPUSHB[ ]	/* 58 values pushed */
0 13 12 1 12 13 1 128 0 6 4 5 4 6 5 128 11 1 1 10 1 2 3 1 2 103 9 1 3 8 1 4 6 3 4 103 0 12 12 0 97 14 1 0 0 46 77 0 5 5 7 97 0 7 7 50 7 78 
EIF[ ]	/* EndIf */
EIF[ ]	/* EndIf */
NPUSHB[ ]	/* 35 values pushed */
1 0 60 59 55 53 48 47 46 45 44 43 42 41 33 31 27 26 22 20 15 14 13 12 11 10 9 8 0 64 1 64 15 8 22 
CALL[ ]	/* CallFunction */";
};
width = 568;
}
);
note = uni20B4;
unicode = 8372;
},
{
glyphname = sterling;
layers = (
{
layerId = m01;
shapes = (
{
closed = 1;
nodes = (
(271,510,ls),
(271,555,o),
(308,604,o),
(350,607,qs),
(392,609,o),
(431,567,o),
(434,529,q),
(567,529,l),
(564,624,o),
(460,720,o),
(354,718,qs),
(252,717,o),
(131,610,o),
(131,507,qs),
(131,396,l),
(47,396,l),
(47,276,l),
(131,276,l),
(131,128,l),
(48,128,l),
(48,0,l),
(575,0,l),
(575,128,l),
(271,128,l),
(271,276,l),
(483,276,l),
(483,396,l),
(271,396,l)
);
}
);
userData = {
assembly = "MPPEM[ ]	/* MeasurePixelPerEm */
PUSHB[ ]	/* 1 value pushed */
16 
LT[ ]	/* LessThan */
IF[ ]	/* If */
NPUSHB[ ]	/* 40 values pushed */
0 7 8 5 8 7 114 10 9 2 5 4 1 0 1 5 0 103 0 8 8 6 97 0 6 6 46 77 3 1 1 1 2 95 0 2 2 39 2 78 
ELSE[ ]	/* Else */
NPUSHB[ ]	/* 41 values pushed */
0 7 8 5 8 7 5 128 10 9 2 5 4 1 0 1 5 0 103 0 8 8 6 97 0 6 6 46 77 3 1 1 1 2 95 0 2 2 39 2 78 
EIF[ ]	/* EndIf */
NPUSHB[ ]	/* 18 values pushed */
0 0 0 27 0 27 18 18 35 17 17 17 17 17 17 11 8 31 
CALL[ ]	/* CallFunction */";
};
width = 622;
}
);
note = sterling;
unicode = 163;
},
{
glyphname = Scedilla;
kernLeft = O;
kernRight = D;
layers = (
{
layerId = m01;
shapes = (
{
closed = 1;
nodes = (
(578,557,o),
(536,637,o),
(469,689,o),
(380,716,o),
(328,717,qs),
(281,718,o),
(187,700,o),
(109,654,o),
(59,575,o),
(56,515,qs),
(54,464,o),
(93,380,o),
(132,353,qs),
(164,330,o),
(245,305,o),
(283,296,qs),
(300,291,o),
(326,285,o),
(350,279,o),
(375,273,o),
(392,268,qs),
(415,262,o),
(453,233,o),
(453,201,qs),
(453,178,o),
(433,148,o),
(398,131,o),
(352,125,o),
(327,126,qs),
(303,127,o),
(256,137,o),
(218,159,o),
(190,193,o),
(184,219,q),
(36,219,l),
(39,168,o),
(76,91,o),
(138,36,o),
(222,2,o),
(270,-4,q),
(242,-109,l),
(261,-108,o),
(276,-108,o),
(288,-108,qs),
(319,-108,o),
(351,-124,o),
(351,-144,qs),
(351,-154,o),
(341,-170,o),
(317,-180,o),
(275,-182,o),
(241,-178,q),
(240,-258,l),
(294,-263,o),
(357,-258,o),
(383,-246,qs),
(411,-233,o),
(452,-178,o),
(454,-140,qs),
(456,-89,o),
(394,-38,o),
(345,-45,q),
(354,-7,l),
(402,-5,o),
(481,17,o),
(513,39,qs),
(552,65,o),
(598,151,o),
(598,212,qs),
(597,268,o),
(559,338,o),
(497,380,o),
(417,404,o),
(376,413,qs),
(362,415,o),
(330,422,o),
(296,431,o),
(261,442,o),
(246,449,qs),
(225,459,o),
(200,491,o),
(201,514,qs),
(201,536,o),
(223,566,o),
(257,584,o),
(296,590,o),
(314,590,qs),
(365,588,o),
(433,549,o),
(439,504,q),
(583,504,l)
);
}
);
userData = {
assembly = "NPUSHB[ ]	/* 85 values pushed */
50 1 1 5 28 1 3 1 38 1 2 3 3 76 37 1 2 73 8 1 7 0 4 0 7 4 128 0 4 5 0 4 5 126 0 2 3 2 134 0 5 0 3 2 5 3 105 0 0 0 6 97 0 6 6 46 77 0 1 1 47 1 78 0 0 0 90 0 90 86 84 62 60 56 55 49 45 40 39 27 26 34 9 8 23 
CALL[ ]	/* CallFunction */";
};
width = 635;
}
);
note = Scedilla;
unicode = 350;
},
{
glyphname = t_alt;
kernLeft = t;
layers = (
{
layerId = m01;
shapes = (
{
closed = 1;
nodes = (
(364,527,l),
(238,527,l),
(238,670,l),
(124,670,l),
(100,527,l),
(17,527,l),
(17,404,l),
(97,404,l),
(97,173,ls),
(96,84,o),
(188,-4,o),
(293,0,qs),
(359,0,l),
(359,123,l),
(307,123,ls),
(238,123,o),
(238,191,qs),
(238,404,l),
(364,404,l)
);
}
);
userData = {
assembly = "NPUSHB[ ]	/* 44 values pushed */
0 4 3 4 133 7 6 2 2 2 3 95 5 1 3 3 22 77 0 0 0 1 98 0 1 1 21 1 78 0 0 0 18 0 18 17 17 17 19 33 34 8 7 28 
CALL[ ]	/* CallFunction */";
};
width = 391;
}
);
note = t_alt;
},
{
glyphname = alt_1;
layers = (
{
layerId = m01;
shapes = (
{
closed = 1;
nodes = (
(35,128,l),
(35,0,l),
(515,0,l),
(515,128,l),
(356,128,l),
(356,708,l),
(248,708,l),
(233,681,o),
(188,647,o),
(134,628,o),
(75,621,o),
(47,621,q),
(47,521,l),
(211,521,l),
(211,128,l)
);
}
);
userData = {
assembly = "NPUSHB[ ]	/* 34 values pushed */
0 1 0 0 3 1 0 103 0 2 2 20 77 5 1 3 3 4 96 0 4 4 21 4 78 17 17 17 20 17 16 6 7 28 
CALL[ ]	/* CallFunction */";
};
width = 522;
}
);
note = alt_1;
},
{
glyphname = colon.uc;
layers = (
{
layerId = m01;
shapes = (
{
closed = 1;
nodes = (
(55,198,o),
(55,158,qs),
(55,116,o),
(102,72,o),
(142,72,qs),
(182,72,o),
(229,117,o),
(229,158,qs),
(229,198,o),
(183,246,o),
(142,246,qs),
(102,246,o)
);
},
{
closed = 1;
nodes = (
(55,557,o),
(55,517,qs),
(55,475,o),
(102,431,o),
(142,431,qs),
(182,431,o),
(229,476,o),
(229,517,qs),
(229,557,o),
(183,606,o),
(142,606,qs),
(102,606,o)
);
}
);
userData = {
assembly = "NPUSHB[ ]	/* 46 values pushed */
5 1 2 0 3 0 2 3 105 4 1 0 1 1 0 89 4 1 0 0 1 97 0 1 0 1 81 13 12 1 0 19 17 12 23 13 23 7 5 0 11 1 11 6 7 22 
CALL[ ]	/* CallFunction */";
};
width = 284;
}
);
note = colon.uc;
},
{
glyphname = t2.alt;
layers = (
{
layerId = m01;
shapes = (
{
closed = 1;
nodes = (
(260,135,o),
(243,163,o),
(238,196,o),
(238,214,qs),
(238,404,l),
(393,404,l),
(393,527,l),
(238,527,l),
(238,671,l),
(97,671,l),
(97,527,l),
(17,527,l),
(17,404,l),
(97,404,l),
(97,181,ls),
(97,137,o),
(118,67,o),
(140,45,qs),
(164,19,o),
(237,-7,o),
(285,-7,qs),
(300,-7,o),
(336,-3,o),
(377,8,o),
(412,23,o),
(426,32,q),
(386,139,l),
(371,130,o),
(331,118,o),
(315,118,qs),
(291,118,o)
);
}
);
userData = {
assembly = "NPUSHB[ ]	/* 60 values pushed */
3 1 0 2 4 1 1 0 2 76 0 4 3 4 133 6 1 2 2 3 95 5 1 3 3 22 77 7 1 0 0 1 97 0 1 1 28 1 78 1 0 25 24 23 22 21 20 19 18 17 16 10 8 0 30 1 30 8 7 22 
CALL[ ]	/* CallFunction */";
};
width = 429;
}
);
note = t2.alt;
},
{
glyphname = hyphen.uc;
layers = (
{
layerId = m01;
shapes = (
{
closed = 1;
nodes = (
(62,420,l),
(62,302,l),
(391,302,l),
(391,420,l)
);
}
);
userData = {
assembly = "NPUSHB[ ]	/* 21 values pushed */
0 1 0 0 1 87 0 1 1 0 95 0 0 1 0 79 17 16 2 7 24 
CALL[ ]	/* CallFunction */";
};
width = 453;
}
);
note = hyphen.uc;
},
{
glyphname = uni00AD.uc;
layers = (
{
layerId = m01;
shapes = (
{
closed = 1;
nodes = (
(62,420,l),
(62,302,l),
(391,302,l),
(391,420,l)
);
}
);
userData = {
assembly = "NPUSHB[ ]	/* 21 values pushed */
0 1 0 0 1 87 0 1 1 0 95 0 0 1 0 79 17 16 2 7 24 
CALL[ ]	/* CallFunction */";
};
width = 453;
}
);
note = uni00AD.uc;
},
{
glyphname = endash.uc;
layers = (
{
layerId = m01;
shapes = (
{
closed = 1;
nodes = (
(561,420,l),
(62,420,l),
(62,302,l),
(561,302,l)
);
}
);
userData = {
assembly = "NPUSHB[ ]	/* 27 values pushed */
0 0 1 1 0 87 0 0 0 1 95 2 1 1 0 1 79 0 0 0 3 0 3 17 3 7 23 
CALL[ ]	/* CallFunction */";
};
width = 623;
}
);
note = endash.uc;
},
{
glyphname = emdash.uc;
layers = (
{
layerId = m01;
shapes = (
{
closed = 1;
nodes = (
(785,420,l),
(62,420,l),
(62,302,l),
(785,302,l)
);
}
);
userData = {
assembly = "NPUSHB[ ]	/* 27 values pushed */
0 0 1 1 0 87 0 0 0 1 95 2 1 1 0 1 79 0 0 0 3 0 3 17 3 7 23 
CALL[ ]	/* CallFunction */";
};
width = 847;
}
);
note = emdash.uc;
},
{
glyphname = uni2117;
layers = (
{
layerId = m01;
shapes = (
{
closed = 1;
nodes = (
(700,-32,o),
(806,74,o),
(863,225,o),
(863,320,qs),
(863,410,o),
(804,561,o),
(697,669,o),
(547,729,o),
(457,729,qs),
(365,729,o),
(214,671,o),
(106,565,o),
(47,413,o),
(47,320,qs),
(47,225,o),
(105,74,o),
(212,-32,o),
(364,-88,o),
(457,-88,qs),
(550,-88,o)
);
},
{
closed = 1;
nodes = (
(274,48,o),
(193,129,o),
(149,246,o),
(149,319,qs),
(149,391,o),
(194,507,o),
(276,589,o),
(391,633,o),
(461,633,qs),
(531,633,o),
(644,589,o),
(724,507,o),
(768,391,o),
(768,319,qs),
(768,246,o),
(726,129,o),
(646,48,o),
(533,5,o),
(461,5,qs),
(389,5,o)
);
},
{
closed = 1;
nodes = (
(562,217,o),
(658,298,o),
(659,376,qs),
(659,420,o),
(634,481,o),
(588,520,o),
(522,537,o),
(481,537,qs),
(307,537,l),
(307,78,l),
(403,78,l),
(403,217,l),
(487,217,ls)
);
},
{
closed = 1;
nodes = (
(521,451,o),
(567,415,o),
(565,375,qs),
(563,338,o),
(517,301,o),
(482,301,qs),
(403,301,l),
(403,451,l),
(481,451,ls)
);
}
);
userData = {
assembly = "NPUSHB[ ]	/* 90 values pushed */
0 4 6 2 6 4 2 128 0 1 0 3 5 1 3 105 0 5 12 1 8 7 5 8 103 0 7 11 1 6 4 7 6 103 10 1 2 0 0 2 89 10 1 2 2 0 97 9 1 0 2 0 81 53 53 40 40 21 20 1 0 53 61 53 60 56 54 40 52 40 51 45 43 42 41 31 29 20 39 21 39 11 9 0 19 1 19 13 6 22 
CALL[ ]	/* CallFunction */";
};
width = 910;
}
);
note = uni2117;
unicode = 8471;
},
{
glyphname = f_alt;
layers = (
{
layerId = m01;
shapes = (
{
closed = 1;
nodes = (
(238,578,ls),
(238,610,o),
(277,645,o),
(309,644,qs),
(328,644,o),
(359,636,o),
(373,628,q),
(414,737,l),
(388,752,o),
(323,768,o),
(292,768,qs),
(249,768,o),
(179,746,o),
(126,704,o),
(97,637,o),
(97,592,qs),
(97,527,l),
(17,527,l),
(17,404,l),
(97,404,l),
(97,0,l),
(238,0,l),
(238,404,l),
(367,404,l),
(367,527,l),
(238,527,l)
);
}
);
userData = {
assembly = "NPUSHB[ ]	/* 52 values pushed */
17 1 5 4 18 1 3 5 2 76 0 4 0 5 3 4 5 105 2 1 0 0 3 95 7 6 2 3 3 22 77 0 1 1 21 1 78 0 0 0 25 0 25 37 37 17 17 17 17 8 7 28 
CALL[ ]	/* CallFunction */";
};
width = 379;
}
);
note = f_alt;
},
{
glyphname = g_alt;
layers = (
{
layerId = m01;
shapes = (
{
closed = 1;
nodes = (
(431,-53,o),
(412,-81,qs),
(394,-108,o),
(335,-140,o),
(287,-142,qs),
(258,-143,o),
(203,-133,o),
(154,-117,o),
(113,-98,o),
(99,-90,q),
(95,-105,o),
(86,-135,o),
(81,-150,qs),
(61,-211,l),
(105,-240,o),
(227,-274,o),
(291,-273,qs),
(370,-273,o),
(481,-227,o),
(514,-189,qs),
(539,-159,o),
(567,-90,o),
(579,-17,o),
(581,59,o),
(581,95,qs),
(581,527,l),
(459,527,l),
(444,470,l),
(412,505,o),
(326,536,o),
(288,536,qs),
(233,537,o),
(135,503,o),
(102,467,qs),
(67,428,o),
(31,321,o),
(31,258,qs),
(31,201,o),
(63,104,o),
(123,32,o),
(214,-9,o),
(274,-9,qs),
(324,-8,o),
(409,17,o),
(438,56,q),
(440,23,o)
);
},
{
closed = 1;
nodes = (
(223,136,o),
(189,175,o),
(172,228,o),
(172,261,qs),
(172,292,o),
(188,346,o),
(221,386,o),
(272,408,o),
(305,408,qs),
(369,407,o),
(437,329,o),
(438,266,qs),
(438,235,o),
(422,180,o),
(390,139,o),
(339,115,o),
(306,115,qs),
(273,115,o)
);
}
);
userData = {
assembly = "MPPEM[ ]	/* MeasurePixelPerEm */
PUSHB[ ]	/* 1 value pushed */
27 
LT[ ]	/* LessThan */
IF[ ]	/* If */
NPUSHB[ ]	/* 18 values pushed */
17 1 6 1 0 1 0 5 35 1 4 0 31 1 3 4 4 76 
ELSE[ ]	/* Else */
NPUSHB[ ]	/* 18 values pushed */
17 1 6 2 0 1 0 5 35 1 4 0 31 1 3 4 4 76 
EIF[ ]	/* EndIf */
MPPEM[ ]	/* MeasurePixelPerEm */
PUSHB[ ]	/* 1 value pushed */
12 
LT[ ]	/* LessThan */
IF[ ]	/* If */
NPUSHB[ ]	/* 33 values pushed */
0 6 6 1 97 2 1 1 1 29 77 7 1 5 5 0 97 0 0 0 28 77 0 4 4 3 97 0 3 3 31 3 78 
ELSE[ ]	/* Else */
MPPEM[ ]	/* MeasurePixelPerEm */
PUSHB[ ]	/* 1 value pushed */
14 
LT[ ]	/* LessThan */
IF[ ]	/* If */
NPUSHB[ ]	/* 33 values pushed */
0 6 6 1 97 2 1 1 1 29 77 7 1 5 5 0 97 0 0 0 30 77 0 4 4 3 97 0 3 3 31 3 78 
ELSE[ ]	/* Else */
MPPEM[ ]	/* MeasurePixelPerEm */
PUSHB[ ]	/* 1 value pushed */
27 
LT[ ]	/* LessThan */
IF[ ]	/* If */
NPUSHB[ ]	/* 30 values pushed */
0 4 0 3 4 3 101 0 6 6 1 97 2 1 1 1 29 77 7 1 5 5 0 97 0 0 0 30 0 78 
ELSE[ ]	/* Else */
NPUSHB[ ]	/* 34 values pushed */
0 4 0 3 4 3 101 0 2 2 22 77 0 6 6 1 97 0 1 1 29 77 7 1 5 5 0 97 0 0 0 30 0 78 
EIF[ ]	/* EndIf */
EIF[ ]	/* EndIf */
EIF[ ]	/* EndIf */
NPUSHB[ ]	/* 16 values pushed */
47 46 55 53 46 63 47 63 42 40 19 41 34 8 7 27 
CALL[ ]	/* CallFunction */";
};
width = 636;
}
);
note = g_alt;
},
